<svg xmlns="http://www.w3.org/2000/svg" width="18" height="19" viewBox="0 0 18 19">
  <path fill="#05032D" stroke="#FFF" d="M9.52930377,8.57705749 L9.24625394,12.822538 L12.2333333,14.6533457 L12.2333333,16.6067984 L8,15.7821451 L3.76666667,16.6067984 L3.76666667,14.6533457 L6.75374606,12.822538 L6.47069623,8.57705749 L-0.5,9.6494723 L-0.5,6.9202222 L6.43333333,4.44747553 L6.43333333,1.6 C6.43333333,1.35094136 6.47201337,1.00282107 6.59232502,0.641886117 C6.81979714,-0.0405302643 7.27926688,-0.5 8,-0.5 C8.72073312,-0.5 9.18020286,-0.0405302643 9.40767498,0.641886117 C9.52798663,1.00282107 9.56666667,1.35094136 9.56666667,1.6 L9.56666667,4.26268045 L16.5,6.92934712 L16.5,9.6494723 L9.52930377,8.57705749 Z" transform="translate(1 1)"/>
</svg>
