<svg xmlns="http://www.w3.org/2000/svg" width="24" height="20" viewBox="0 0 24 20">
  <path fill="#05032D" d="M16,0 C15.11632,0 14.4,0.71632 14.4,1.6 C14.4,2.48368 15.11632,3.2 16,3.2 C16.88368,3.2 17.6,2.48368 17.6,1.6 C17.6,0.71632 16.88368,0 16,0 Z M13.0312,3.19056 C12.8232,3.19136 12.62368,3.27328 12.47488,3.41872 L8.24992,7.41872 C7.88896,7.7592 7.92176,8.34272 8.31872,8.64064 L11.2,10.8 L11.2,15.2 C11.184,16.28192 12.81536,16.28192 12.8,15.2 L12.8,10.4 C12.80048,10.14816 12.6824,9.91088 12.48128,9.75936 L11.25312,8.83744 L14.16192,6.08352 L15.35936,7.68112 C15.51088,7.8824 15.74816,8.00048 16,8 L18.4,8 C19.48176,8.016 19.48176,6.38464 18.4,6.4 L16.4,6.4 L15.2,4.8 L14.24064,3.51872 C14.09648,3.32096 13.8696,3.2 13.62496,3.19056 L13.0312,3.19056 Z M4.8,9.6 C2.14896,9.6 0,11.74912 0,14.4 C0,17.05088 2.14896,19.2 4.8,19.2 C7.45104,19.2 9.6,17.05088 9.6,14.4 C9.6,11.74912 7.45104,9.6 4.8,9.6 Z M19.2,9.6 C16.54896,9.6 14.4,11.74912 14.4,14.4 C14.4,17.05088 16.54896,19.2 19.2,19.2 C21.85104,19.2 24,17.05088 24,14.4 C24,11.74912 21.85104,9.6 19.2,9.6 Z M4.8,11.2 C6.56736,11.2 8,12.63264 8,14.4 C8,16.16736 6.56736,17.6 4.8,17.6 C3.03264,17.6 1.6,16.16736 1.6,14.4 C1.6,12.63264 3.03264,11.2 4.8,11.2 Z M19.2,11.2 C20.96736,11.2 22.4,12.63264 22.4,14.4 C22.4,16.16736 20.96736,17.6 19.2,17.6 C17.43264,17.6 16,16.16736 16,14.4 C16,12.63264 17.43264,11.2 19.2,11.2 Z"/>
</svg>
