<svg xmlns="http://www.w3.org/2000/svg" width="18" height="15" viewBox="0 0 18 15">
  <path fill="#05032D" stroke="#FFF" d="M10.6666667,-0.5 C11.531929,-0.5 12.2333333,0.201404292 12.2333333,1.06666667 C12.2333333,1.93192904 11.531929,2.63333333 10.6666667,2.63333333 C9.80140429,2.63333333 9.1,1.93192904 9.1,1.06666667 C9.1,0.201404292 9.80140429,-0.5 10.6666667,-0.5 Z M11.1833405,3.76667617 L12.2595678,3.76671706 C12.8831216,3.75786317 13.3075467,4.23034289 13.3075467,4.80016 C13.3075467,5.3700837 12.8829499,5.84250329 12.2666667,5.83333333 L10.6676197,5.83333243 C10.3423092,5.83395246 10.0357754,5.68138389 9.83948199,5.42062484 L9.37765135,4.80445983 L8.27604568,5.84741015 L8.62171678,6.10688904 C8.88146304,6.30257695 9.03395229,6.6090636 9.03333333,6.93333333 L9.03328295,10.1262356 C9.04213595,10.7498188 8.56967111,11.1742933 7.99984,11.1742933 C7.42990231,11.1742933 6.95749762,10.7496472 6.96666667,10.1333333 L6.96666667,7.45011109 L5.2456844,6.16032993 C4.73303577,5.77558517 4.69062146,5.02187958 5.15619183,4.58272572 L7.96709338,1.92157927 C8.15922546,1.73378566 8.41689724,1.62807695 8.6855436,1.6270437 L8.68746667,1.62704 L9.10258597,1.62741183 C9.41854129,1.6396037 9.71156452,1.79579743 9.89399978,2.0461333 L10.5333333,2.9 L11.1833405,3.76667617 Z M3.2,5.9 C5.24346811,5.9 6.9,7.55657003 6.9,9.6 C6.9,11.64343 5.24346811,13.3 3.2,13.3 C1.15653189,13.3 -0.5,11.64343 -0.5,9.6 C-0.5,7.55657003 1.15653189,5.9 3.2,5.9 Z M12.8,5.9 C14.8434681,5.9 16.5,7.55657003 16.5,9.6 C16.5,11.64343 14.8434681,13.3 12.8,13.3 C10.7565319,13.3 9.1,11.64343 9.1,9.6 C9.1,7.55657003 10.7565319,5.9 12.8,5.9 Z M3.2,7.96666667 C2.29790237,7.96666667 1.56666667,8.69790237 1.56666667,9.6 C1.56666667,10.5020976 2.29790237,11.2333333 3.2,11.2333333 C4.10209763,11.2333333 4.83333333,10.5020976 4.83333333,9.6 C4.83333333,8.69790237 4.10209763,7.96666667 3.2,7.96666667 Z M12.8,7.96666667 C11.8979024,7.96666667 11.1666667,8.69790237 11.1666667,9.6 C11.1666667,10.5020976 11.8979024,11.2333333 12.8,11.2333333 C13.7020976,11.2333333 14.4333333,10.5020976 14.4333333,9.6 C14.4333333,8.69790237 13.7020976,7.96666667 12.8,7.96666667 Z" transform="translate(1 1)"/>
</svg>
