<svg xmlns="http://www.w3.org/2000/svg" width="19" height="21" viewBox="0 0 19 21">
  <path fill="#05032D" d="M4.24038462,0 C2.31298846,0 0,1.04062 0,3.84454 L0,11.47888 L0,16.8 C0,16.8 0,18.2 1.41346154,18.2 L1.41346154,19.6 C1.41346154,19.6 1.41346154,21 2.82692308,21 C4.24038462,21 4.24038462,19.6 4.24038462,19.6 L4.24038462,18.2 L14.1346154,18.2 L14.1346154,19.6 C14.1346154,19.6 14.1346154,21 15.5480769,21 C16.9615385,21 16.9615385,19.6 16.9615385,19.6 L16.9615385,18.2 C16.9615385,18.2 18.375,18.2 18.375,16.8 L18.375,3.84454 C18.375,0.98084 16.6279615,0 14.7005654,0 L4.24038462,0 Z M4.59375,2.1 L13.78125,2.1 C13.9770144,2.1 14.1346154,2.2561 14.1346154,2.45 C14.1346154,2.6439 13.9770144,2.8 13.78125,2.8 L4.59375,2.8 C4.39798558,2.8 4.24038462,2.6439 4.24038462,2.45 C4.24038462,2.2561 4.39798558,2.1 4.59375,2.1 Z M2.82692308,4.2 L15.5480769,4.2 C16.9615385,4.2 16.9615385,5.55352 16.9615385,5.55352 L16.9615385,9.8 C16.9615385,9.8 16.9615385,11.2 15.5480769,11.2 L2.82692308,11.2 C1.41346154,11.2 1.41346154,9.8 1.41346154,9.8 L1.41346154,5.6 C1.41346154,5.6 1.41346154,4.2 2.82692308,4.2 Z M2.82692308,14 C3.60757788,14 4.24038462,14.62678 4.24038462,15.4 C4.24038462,16.17322 3.60757788,16.8 2.82692308,16.8 C2.04626827,16.8 1.41346154,16.17322 1.41346154,15.4 C1.41346154,14.62678 2.04626827,14 2.82692308,14 Z M15.5480769,14 C16.3287317,14 16.9615385,14.62678 16.9615385,15.4 C16.9615385,16.17322 16.3287317,16.8 15.5480769,16.8 C14.7674221,16.8 14.1346154,16.17322 14.1346154,15.4 C14.1346154,14.62678 14.7674221,14 15.5480769,14 Z"/>
</svg>
