<svg xmlns="http://www.w3.org/2000/svg" width="16" height="18" viewBox="0 0 16 18">
  <path fill="#05032D" stroke="#FFF" d="M13.4230769,14.286447 L13.4230769,14.9333333 C13.4230769,15.1379484 13.3773668,15.4095972 13.2348135,15.6919886 C12.9841382,16.1885643 12.5124928,16.5 11.8461538,16.5 C11.1798149,16.5 10.7081695,16.1885643 10.4574942,15.6919886 C10.3149409,15.4095972 10.2692308,15.1379484 10.2692308,14.9333333 L10.2692308,14.3666667 L3.73076923,14.3666667 L3.73076923,14.9333333 C3.73076923,15.1379484 3.68505909,15.4095972 3.54250578,15.6919886 C3.29183052,16.1885643 2.8201851,16.5 2.15384615,16.5 C1.4875072,16.5 1.01586178,16.1885643 0.76518653,15.6919886 C0.622633221,15.4095972 0.576923077,15.1379484 0.576923077,14.9333333 L0.576923077,14.3000819 C0.170352943,14.1835444 -0.129246282,13.9201597 -0.311736547,13.5586552 C-0.454289856,13.2762639 -0.5,13.004615 -0.5,12.8 L-0.5,2.92917333 C-0.5,0.739925173 1.16334209,-0.5 3.23076923,-0.5 L11.2004308,-0.5 C13.1786576,-0.5 14.5,0.676060271 14.5,2.92917333 L14.5,12.8 C14.5,13.4643143 14.1843038,13.9333487 13.6834367,14.1813971 C13.595002,14.2251934 13.5076423,14.259699 13.4230769,14.286447 Z M3.5,2.1 L10.5,2.1 C10.3740769,2.1 10.2692308,1.99615244 10.2692308,1.86666667 C10.2692308,1.7371809 10.3740769,1.63333333 10.5,1.63333333 L3.5,1.63333333 C3.62592313,1.63333333 3.73076923,1.7371809 3.73076923,1.86666667 C3.73076923,1.99615244 3.62592313,2.1 3.5,2.1 Z M2.15384615,3.7 C1.87787741,3.7 1.7437536,3.78856429 1.65789039,3.95865522 C1.59852063,4.0762639 1.57692308,4.20461505 1.57692308,4.26666667 L1.57692308,7.46666667 C1.57692308,7.52871829 1.59852063,7.65706943 1.65789039,7.77467811 C1.7437536,7.94476904 1.87787741,8.03333333 2.15384615,8.03333333 L11.8461538,8.03333333 C12.1221226,8.03333333 12.2562464,7.94476904 12.3421096,7.77467811 C12.4014794,7.65706943 12.4230769,7.52871829 12.4230769,7.46666667 L12.4230769,4.23125333 C12.4230769,4.17573213 12.4022918,4.05631029 12.3452425,3.9470503 C12.2611686,3.78603323 12.1264037,3.7 11.8461538,3.7 L2.15384615,3.7 Z M2.15384615,11.1666667 C1.83413852,11.1666667 1.57692308,11.4214324 1.57692308,11.7333333 C1.57692308,12.0452342 1.83413852,12.3 2.15384615,12.3 C2.47355379,12.3 2.73076923,12.0452342 2.73076923,11.7333333 C2.73076923,11.4214324 2.47355379,11.1666667 2.15384615,11.1666667 Z M11.8461538,11.1666667 C11.5264462,11.1666667 11.2692308,11.4214324 11.2692308,11.7333333 C11.2692308,12.0452342 11.5264462,12.3 11.8461538,12.3 C12.1658615,12.3 12.4230769,12.0452342 12.4230769,11.7333333 C12.4230769,11.4214324 12.1658615,11.1666667 11.8461538,11.1666667 Z" transform="translate(1 1)"/>
</svg>
