<svg xmlns="http://www.w3.org/2000/svg" width="21" height="22" viewBox="0 0 21 22">
  <path fill="#05032D" d="M19.0384615,7.85714286 L11.1057692,7.85714286 L11.1057692,4.08571429 C11.3999135,3.92118571 11.6332933,3.66787143 11.7721154,3.36285714 L19.8317308,2.35714286 C20.269774,2.35714286 20.625,2.0053 20.625,1.57142857 C20.625,1.13755714 20.269774,0.785714286 19.8317308,0.785714286 L11.55,1.80714286 C11.257125,1.4201 10.8006779,1.18831429 10.3125,1.17857143 C9.67201442,1.18171429 9.09625962,1.56608571 8.85288462,2.15285714 L0.793269231,3.14285714 C0.355225962,3.14285714 0,3.4947 0,3.92857143 C0,4.36244286 0.355225962,4.71428571 0.793269231,4.71428571 L9.075,3.69285714 C9.1966875,3.85047143 9.34740865,3.98372857 9.51923077,4.08571429 L9.51923077,7.85714286 L1.58653846,7.85714286 C0.710293269,7.85714286 0,8.56067143 0,9.42857143 L0,20.4285714 C0,21.2964714 0.710293269,22 1.58653846,22 L19.0384615,22 C19.9147067,22 20.625,21.2964714 20.625,20.4285714 L20.625,9.42857143 C20.625,8.56067143 19.9147067,7.85714286 19.0384615,7.85714286 Z M9.51923077,17.2857143 L3.17307692,17.2857143 L3.17307692,11 L9.51923077,11 L9.51923077,17.2857143 Z M17.4519231,17.2857143 L11.1057692,17.2857143 L11.1057692,11 L17.4519231,11 L17.4519231,17.2857143 Z"/>
</svg>
