<svg xmlns="http://www.w3.org/2000/svg" width="17" height="18" viewBox="0 0 17 18">
  <path fill="#05032D" stroke="#FFF" d="M6.12207358,4.96583851 L6.12207358,3.09612185 L0.551839465,3.77950311 C-0.0279632678,3.77950311 -0.5,3.31196196 -0.5,2.73291925 C-0.5,2.15387655 -0.0279632678,1.6863354 0.490880307,1.69006534 L5.84279179,1.03266518 C6.13493729,0.595150947 6.63251057,0.322551588 7.18388985,0.319975323 C7.57277953,0.327736626 7.94198412,0.475353479 8.22598714,0.729936316 L13.7959866,0.0465838509 C14.3757894,0.0465838509 14.8478261,0.514124995 14.8478261,1.0931677 C14.8478261,1.67221041 14.3757894,2.13975155 13.8578987,2.13590365 L8.49608347,2.80497455 C8.4187942,2.91448319 8.32795613,3.01386838 8.22575251,3.10077734 L8.22575251,4.96583851 L13.2441472,4.96583851 C14.128786,4.96583851 14.8478261,5.67803059 14.8478261,6.55900621 L14.8478261,14.2111801 C14.8478261,15.0921558 14.128786,15.8043478 13.2441472,15.8043478 L1.10367893,15.8043478 C0.219040077,15.8043478 -0.5,15.0921558 -0.5,14.2111801 L-0.5,6.55900621 C-0.5,5.67803059 0.219040077,4.96583851 1.10367893,4.96583851 L6.12207358,4.96583851 Z M6.12207358,11.5248447 L6.12207358,8.15217391 L2.70735786,8.15217391 L2.70735786,11.5248447 L6.12207358,11.5248447 Z M11.6404682,11.5248447 L11.6404682,8.15217391 L8.22575251,8.15217391 L8.22575251,11.5248447 L11.6404682,11.5248447 Z" transform="translate(1 1)"/>
</svg>
