<svg xmlns="http://www.w3.org/2000/svg" width="18" height="16" viewBox="0 0 18 16">
  <path fill="#05032D" stroke="#FFF" d="M15.2692308,11.3181818 L15.2692308,12.0909091 C15.2692308,13.0662976 14.4981779,13.8636364 13.5384615,13.8636364 C12.5787451,13.8636364 11.8076923,13.0662976 11.8076923,12.0909091 L11.8076923,11.3181818 L4.19230769,11.3181818 L4.19230769,12.0909091 C4.19230769,13.0662976 3.42125486,13.8636364 2.46153846,13.8636364 C1.50182206,13.8636364 0.730769231,13.0662976 0.730769231,12.0909091 L0.730769231,11.3181818 L-0.500000698,11.3181818 L-0.500000698,10.8181818 L-0.500000524,6.36405393 C-0.500852844,5.34348285 0.123266027,4.44105559 1.04393756,4.09781896 L2.69886341,0.142398381 C2.88096793,-0.242215887 3.2605576,-0.491996151 3.69230769,-0.5 L12.3102532,-0.499993442 C12.7646251,-0.497666241 13.1695136,-0.215470549 13.3356788,0.202945363 L14.9569607,4.11088149 C15.8718623,4.45241094 16.4943094,5.34653591 16.4999915,6.36083543 L16.4999993,6.36363636 L16.4999993,11.3181818 L15.2692308,11.3181818 Z M4.39812832,1.77272727 L3.51197448,3.95454545 L12.4880255,3.95454545 L11.6018717,1.77272727 L4.39812832,1.77272727 Z M2.46153846,8.40909091 C2.86132975,8.40909091 3.19230769,8.06682963 3.19230769,7.63636364 C3.19230769,7.20589764 2.86132975,6.86363636 2.46153846,6.86363636 C2.06174717,6.86363636 1.73076923,7.20589764 1.73076923,7.63636364 C1.73076923,8.06682963 2.06174717,8.40909091 2.46153846,8.40909091 Z M13.5384615,8.40909091 C13.9382528,8.40909091 14.2692308,8.06682963 14.2692308,7.63636364 C14.2692308,7.20589764 13.9382528,6.86363636 13.5384615,6.86363636 C13.1386702,6.86363636 12.8076923,7.20589764 12.8076923,7.63636364 C12.8076923,8.06682963 13.1386702,8.40909091 13.5384615,8.40909091 Z" transform="translate(1 1)"/>
</svg>
