<svg xmlns="http://www.w3.org/2000/svg" width="22" height="19" viewBox="0 0 22 19">
  <path fill="#05032D" d="M21.999999,8.75 C21.9932308,7.5418 21.1898923,6.494425 20.0538462,6.2125 L17.7015385,0.5425 L17.7015385,0.5425 L17.7015385,0.5425 L17.7015385,0.5425 C17.5717385,0.215775 17.2647538,0.00175 16.9230769,0 L5.07692308,0 C4.75944615,0.00595 4.47192308,0.195125 4.33230769,0.49 L4.33230769,0.49 L4.33230769,0.49 L4.33230769,0.49 L1.94615385,6.195 C0.803846154,6.4785 -0.00101538462,7.535325 -9.59636426e-07,8.75 L-9.59636426e-07,14.875 L1.69230769,14.875 L1.69230769,16.625 C1.69230769,17.591525 2.44995385,18.375 3.38461538,18.375 C4.31927692,18.375 5.07692308,17.591525 5.07692308,16.625 L5.07692308,14.875 L16.9230769,14.875 L16.9230769,16.625 C16.9230769,17.591525 17.6807231,18.375 18.6153846,18.375 C19.5500462,18.375 20.3076923,17.591525 20.3076923,16.625 L20.3076923,14.875 L21.999999,14.875 L21.999999,8.75 Z M5.58461538,1.75 L16.4153846,1.75 L18.1923077,6.125 L3.80769231,6.125 L5.58461538,1.75 Z M3.38461538,12.25 C2.44995385,12.25 1.69230769,11.466525 1.69230769,10.5 C1.69230769,9.533475 2.44995385,8.75 3.38461538,8.75 C4.31927692,8.75 5.07692308,9.533475 5.07692308,10.5 C5.07692308,11.466525 4.31927692,12.25 3.38461538,12.25 Z M18.6153846,12.25 C17.6807231,12.25 16.9230769,11.466525 16.9230769,10.5 C16.9230769,9.533475 17.6807231,8.75 18.6153846,8.75 C19.5500462,8.75 20.3076923,9.533475 20.3076923,10.5 C20.3076923,11.466525 19.5500462,12.25 18.6153846,12.25 Z"/>
</svg>
