<svg xmlns="http://www.w3.org/2000/svg" width="16" height="18" viewBox="0 0 16 18">
  <path fill="#05032D" stroke="#FFF" d="M3.73076923,1.63333333 L3.80769231,1.63333333 L3.80769231,1.06666667 C3.80769231,0.200327563 4.51475379,-0.5 5.38461538,-0.5 C6.25447698,-0.5 6.96153846,0.200327563 6.96153846,1.06666667 L6.96153846,1.63333333 L7.03846154,1.63333333 L7.03846154,1.06666667 C7.03846154,0.200327563 7.74552302,-0.5 8.61538462,-0.5 C9.48524621,-0.5 10.1923077,0.200327563 10.1923077,1.06666667 L10.1923077,1.63333333 L10.2692308,1.63333333 L10.2692308,0.533333333 C10.2692308,-0.0383924375 10.7352769,-0.5 11.3076923,-0.5 C11.8801077,-0.5 12.3461538,-0.0383924375 12.3461538,0.533333333 L12.3461538,3.2 C12.3461538,4.0663391 11.6390924,4.76666667 10.7692308,4.76666667 L3.23076923,4.76666667 C2.36090764,4.76666667 1.65384615,4.0663391 1.65384615,3.2 L1.65384615,0.533333333 C1.65384615,-0.0383924375 2.11989225,-0.5 2.69230769,-0.5 C3.26472313,-0.5 3.73076923,-0.0383924375 3.73076923,0.533333333 L3.73076923,1.63333333 Z M14.5,15.4666667 C14.5,16.0383924 14.0339539,16.5 13.4615385,16.5 L0.538461538,16.5 C-0.0339539032,16.5 -0.5,16.0383924 -0.5,15.4666667 C-0.5,14.8949409 -0.0339539032,14.4333333 0.538461538,14.4333333 L1.07692308,14.4333333 C1.39663071,14.4333333 1.65384615,14.1785676 1.66077793,13.7836985 C1.66911811,13.7341347 1.66911811,13.7341347 1.7068931,13.5075648 C1.74363584,13.2866085 1.78458392,13.0385801 1.82868478,12.7692148 C1.95468144,11.9996353 2.08067427,11.21344 2.1982322,10.4565908 C2.23486219,10.2202137 2.23486219,10.2202137 2.27128139,9.98279569 C2.55864537,8.10425629 2.73076923,6.79152498 2.73076923,6.4 C2.73076923,5.5336609 3.43783071,4.83333333 4.30769231,4.83333333 L9.69230769,4.83333333 C10.5621693,4.83333333 11.2692308,5.5336609 11.2692308,6.4 C11.2692308,6.79152498 11.4413546,8.10425629 11.7287186,9.98279569 C11.7651378,10.2202137 11.7651378,10.2202137 11.8017678,10.4565908 C11.9193257,11.21344 12.0453186,11.9996353 12.1713152,12.7692148 C12.2154161,13.0385801 12.2563642,13.2866085 12.2931069,13.5075648 C12.3308819,13.7341347 12.3308819,13.7341347 12.3461538,13.8666667 C12.3461538,14.1785676 12.6033693,14.4333333 12.9230769,14.4333333 L13.4613566,14.4333334 C14.0258664,14.433128 14.4886101,14.8823271 14.5,15.456 L14.5,15.4666667 Z" transform="translate(1 1)"/>
</svg>
