<svg xmlns="http://www.w3.org/2000/svg" width="18" height="20" viewBox="0 0 18 20">
  <path fill="#05032D" d="M13.4615385,5.33333333 L4.03846154,5.33333333 C3.29498077,5.33333333 2.69230769,4.7364 2.69230769,4 L2.69230769,0.666666667 C2.69230769,0.298533333 2.99371154,0 3.36538462,0 C3.73705769,0 4.03846154,0.298533333 4.03846154,0.666666667 L4.03846154,2.66666667 L5.38461538,2.66666667 L5.38461538,1.33333333 C5.38461538,0.596933333 5.98728846,0 6.73076923,0 C7.47425,0 8.07692308,0.596933333 8.07692308,1.33333333 L8.07692308,2.66666667 L9.42307692,2.66666667 L9.42307692,1.33333333 C9.42307692,0.596933333 10.02575,0 10.7692308,0 C11.5127115,0 12.1153846,0.596933333 12.1153846,1.33333333 L12.1153846,2.66666667 L13.4615385,2.66666667 L13.4615385,0.666666667 C13.4615385,0.298533333 13.7629423,0 14.1346154,0 C14.5062885,0 14.8076923,0.298533333 14.8076923,0.666666667 L14.8076923,4 C14.8076923,4.7364 14.2050192,5.33333333 13.4615385,5.33333333 Z M17.5,19.3333333 C17.5,19.7014667 17.1985962,20 16.8269231,20 L0.673076923,20 C0.301403846,20 0,19.7014667 0,19.3333333 C0,18.9652 0.301403846,18.6666667 0.673076923,18.6666667 L1.34615385,18.6666667 C2.08963462,18.6666667 2.69230769,18.0697333 2.69230769,17.3333333 C2.69230769,17.3333333 4.03846154,9.33333333 4.03846154,8 C4.03846154,7.2636 4.64113462,6.66666667 5.38461538,6.66666667 L12.1153846,6.66666667 C12.8588654,6.66666667 13.4615385,7.2636 13.4615385,8 C13.4615385,9.33333333 14.8076923,17.3333333 14.8076923,17.3333333 C14.8076923,18.0697333 15.4103654,18.6666667 16.1538462,18.6666667 L16.8269231,18.6666667 C17.1934808,18.6665333 17.4927308,18.9570667 17.5,19.32 L17.5,19.3333333 Z"/>
</svg>
