<svg xmlns="http://www.w3.org/2000/svg" width="21" height="23" viewBox="0 0 21 23">
  <path fill="#05032D" d="M16.5155455,10.3003077 C16.3403954,10.164521 16.0912409,10.164521 15.9160909,10.3003077 L11.6301818,13.6381538 C11.5187592,13.7249969 11.4541474,13.8560726 11.4545436,13.9944615 L11.4545436,22.5329231 C11.4545436,22.7908825 11.6707919,23 11.9375455,23 L14.7897273,23 C15.0564808,23 15.2727273,22.7908825 15.2727273,22.5329231 L15.2727273,22.5329231 L15.2727273,19.3076923 L17.1818182,19.3076923 L17.1818182,22.5329231 C17.1818182,22.7908825 17.3980646,23 17.6648182,23 L20.517,23 C20.7837535,23 21.0000813,22.7908825 21.0000813,22.5329231 L21.0000813,22.5329231 L21.0000813,13.9907692 C21.002734,13.8474186 20.9364217,13.7109801 20.8205455,13.6215385 L16.5155455,10.3003077 Z M15.2727273,17.4615385 L13.3636364,17.4615385 L13.3636364,15.6153846 L15.2727273,15.6153846 L15.2727273,17.4615385 Z M19.0909091,17.4615385 L17.1818182,17.4615385 L17.1818182,15.6153846 L19.0909091,15.6153846 L19.0909091,17.4615385 Z M7.08272727,0.504615385 C6.99359338,0.374670914 6.84306746,0.296550599 6.68181818,0.296550599 C6.52056891,0.296550599 6.37004298,0.374670914 6.28090909,0.504615385 L0.0801818182,8.11261538 C0.0276369708,8.1892171 -0.000264155123,8.27915479 -3.80823518e-06,8.37107692 L-3.80823518e-06,22.5329231 C-0.000507328222,22.6563102 0.0496929802,22.7748386 0.13955722,22.8624327 C0.22942146,22.9500268 0.351588264,22.9995113 0.479181818,23 L5.25190909,23 C5.51536893,22.9969668 5.7272914,22.7895616 5.72727273,22.5347692 L5.72727273,19.3076923 L7.63636364,19.3076923 L7.63636364,22.5347692 C7.63636364,22.7917091 7.85175537,23 8.11745455,23 L9.54545455,23 L9.54545455,11.9230769 C9.54528737,11.6421869 9.67738646,11.3765062 9.90436364,11.2012308 L13.3636364,8.23076923 C13.3636364,8.13846154 7.08272727,0.504615385 7.08272727,0.504615385 Z M3.81818182,15.6153846 L1.90909091,15.6153846 L1.90909091,13.7692308 L3.81818182,13.7692308 L3.81818182,15.6153846 Z M3.81818182,10.0769231 L1.90909091,10.0769231 L1.90909091,8.23076923 L3.81818182,8.23076923 L3.81818182,10.0769231 Z M7.63636364,15.6153846 L5.72727273,15.6153846 L5.72727273,13.7692308 L7.63636364,13.7692308 L7.63636364,15.6153846 Z M7.63636364,10.0769231 L5.72727273,10.0769231 L5.72727273,8.23076923 L7.63636364,8.23076923 L7.63636364,10.0769231 Z"/>
</svg>
