<svg xmlns="http://www.w3.org/2000/svg" width="36" height="36" viewBox="0 0 36 36">
  <g fill="none" fill-rule="evenodd">
    <path fill="#D64113" fill-rule="nonzero" d="M36,18 C36,27.9412615 27.9412615,36 18,36 C8.05873846,36 0,27.9412615 0,18 C0,8.05873846 8.05873846,0 18,0 C27.9412615,0 36,8.05873846 36,18 Z" opacity=".4"/>
    <path fill="#D64113" fill-opacity=".3" fill-rule="nonzero" d="M33,18 C33,26.2843846 26.2843846,33 18,33 C9.71561538,33 3,26.2843846 3,18 C3,9.71561538 9.71561538,3 18,3 C26.2843846,3 33,9.71561538 33,18 Z"/>
    <path fill="#D64113" fill-opacity=".3" fill-rule="nonzero" d="M30,18 C30,24.6275077 24.6275077,30 18,30 C11.3724923,30 6,24.6275077 6,18 C6,11.3724923 11.3724923,6 18,6 C24.6275077,6 30,11.3724923 30,18 Z"/>
    <path fill="#D64113" fill-opacity=".3" fill-rule="nonzero" d="M26,18 C26,22.4183385 22.4183385,26 18,26 C13.5816615,26 10,22.4183385 10,18 C10,13.5816615 13.5816615,10 18,10 C22.4183385,10 26,13.5816615 26,18 Z"/>
    <path fill="#D64113" fill-opacity=".6" fill-rule="nonzero" d="M21,18 C21,19.6568769 19.6568769,21 18,21 C16.3431231,21 15,19.6568769 15,18 C15,16.3431231 16.3431231,15 18,15 C19.6568769,15 21,16.3431231 21,18 Z"/>
  </g>
</svg>
