<svg xmlns="http://www.w3.org/2000/svg" width="22" height="23" viewBox="0 0 22 23">
  <g fill="#05032D" transform="translate(-4 -2)">
    <path d="M8.04605395,9.07492507 C7.86015795,9.21028864 7.69323816,9.36995105 7.54975025,9.54965035 L2.64065934,5.77342657 C3.10844703,5.15998371 3.65638731,4.61204343 4.26983017,4.14425574 L8.04605395,9.07492507 Z M8.04605395,14.0082917 C7.86015795,13.8729281 7.69323816,13.7132657 7.54975025,13.5335664 L2.64065934,17.3097902 C3.10844703,17.9232331 3.65638731,18.4711733 4.26983017,18.938961 L8.04605395,14.0082917 Z M15.0158841,4.15504496 L11.2396603,9.06413586 C11.4223576,9.2036764 11.5856343,9.36695311 11.7251748,9.54965035 L16.6450549,5.77342657 C16.1770416,5.1633381 15.6290688,4.61899428 15.0158841,4.15504496 Z M15.0262238,19.216034 L11.25,14.3069431 C11.4326972,14.1674025 11.5959739,14.0041258 11.7355145,13.8214286 L16.6553946,17.5976523 C16.1873813,18.2077408 15.6394085,18.7520846 15.0262238,19.216034 Z M18.4637958,12.9408429 L12.3372667,12.0327239 C12.3717551,11.8054347 12.375785,11.5745617 12.3492499,11.3462073 L18.5115009,10.6449595 C18.5986434,11.4089298 18.5825977,12.1811519 18.4637958,12.9408429 Z M0.796927419,12.9408429 L6.92345657,12.0327239 C6.88896818,11.8054347 6.88493827,11.5745617 6.91147338,11.3462073 L0.749222338,10.6449595 C0.662079905,11.4089298 0.678125543,12.1811519 0.796927419,12.9408429 Z M8.48841159,2.3964036 C7.72422478,2.49328905 6.97661463,2.6928937 6.26583417,2.98981019 L8.63946054,8.72967033 C8.84797978,8.63471021 9.07002501,8.57282875 9.2976024,8.54625375 L8.48841159,2.3964036 Z M8.00829171,22.8917083 C7.2441049,22.7948228 6.49649475,22.5952182 5.78571429,22.2983017 L8.15934066,16.5584416 C8.3678599,16.6534017 8.58990513,16.7152831 8.81748252,16.7418581 L8.00829171,22.8917083 Z M10.3903627,6.50187237 C10.6176749,6.51546568 10.8423365,6.55790504 11.0589433,6.62816957 L13.0279004,0.758241496 C12.3008499,0.501517719 11.5396833,0.354268677 10.7693431,0.321319575 L10.3903627,6.50187237 Z M9.98811189,14.599001 C10.2139221,14.5695843 10.435076,14.5115767 10.6462537,14.4263736 L13.0198801,20.1446553 C12.3125088,20.4514702 11.5634679,20.6514569 10.7973027,20.7380619 L9.98811189,14.599001 Z" transform="translate(5.357 2.143)"/>
    <path d="M8.54679594,13.5774169 C8.35407032,13.4519679 8.17902321,13.3012602 8.02632721,13.1293167 L3.32159632,17.1572873 C3.82084804,17.7454074 4.39671437,18.2639197 5.03379864,18.6989612 L8.54679594,13.5774169 Z M18.7225742,0.256199836 L14.9463504,5.16529074 C15.1290477,5.30483128 15.2923244,5.468108 15.4318649,5.65080523 L20.351745,1.87458145 C19.8837317,1.26449298 19.3357589,0.720149157 18.7225742,0.256199836 Z M23.1022696,10.9280913 L16.9608247,10.1270333 C16.9913411,9.8991768 16.9913411,9.66826866 16.9608247,9.44041214 L23.1098987,8.63172499 C23.210361,9.3940581 23.2077949,10.1664426 23.1022696,10.9280913 Z M0.377313694,10.7256291 L6.50384284,9.81751013 C6.46935445,9.5902209 6.46532455,9.35934793 6.49185965,9.13099353 L0.329608613,8.42974568 C0.24246618,9.193716 0.258511818,9.96593806 0.377313694,10.7256291 Z" transform="rotate(24 3.307 19.369)"/>
  </g>
</svg>
