<svg xmlns="http://www.w3.org/2000/svg" width="14" height="14" viewBox="0 0 14 14">
  <g fill="#05032D" stroke="#FFF" stroke-width=".5" transform="translate(-2 -1)">
    <path d="M4.97479364,5.64705294 C4.88130982,5.71512489 4.79736881,5.7954163 4.72521127,5.88578391 L4.57201937,6.07763614 L1.23464317,3.51042367 L1.38560059,3.31246259 C1.67982633,2.92662371 2.02446587,2.58198417 2.41030475,2.28775844 L2.60868564,2.13648088 L5.18184151,5.49628725 L4.97479364,5.64705294 Z M4.97479364,8.20287713 L5.18184151,8.35364282 L2.60868564,11.7134492 L2.41030475,11.5621716 C2.02446587,11.2679459 1.67982633,10.9233064 1.38560059,10.5374675 L1.23464317,10.3395064 L4.57201937,7.77229393 L4.72521127,7.96414616 C4.79736881,8.05451377 4.88130982,8.13480518 4.97479364,8.20287713 Z M6.39268828,5.48489133 L8.96259219,2.14401625 L9.16037411,2.2936625 C9.54616823,2.585563 9.89093333,2.92804488 10.1853908,3.31189096 L10.3375155,3.51019632 L6.98853366,6.08068679 L6.83642673,5.88153667 C6.76619094,5.78957855 6.68400787,5.70739548 6.59204975,5.63715968 L6.39268828,5.48489133 Z M8.96879599,11.8786311 L6.39889208,8.53775602 L6.59825354,8.38548767 C6.69021166,8.31525188 6.77239473,8.23306881 6.84263053,8.14111069 L6.99473745,7.94196056 L10.3437193,10.512451 L10.1915946,10.7107564 C9.89713712,11.0946025 9.55237203,11.4370844 9.16657791,11.7289849 L8.96879599,11.8786311 Z M11.2869562,8.04816914 L7.11755515,7.43014999 L7.15518931,7.18212919 C7.17254856,7.06772631 7.17457695,6.9515196 7.16122088,6.83658059 L7.13229615,6.58766163 L11.3269648,6.11031944 L11.3552899,6.35864311 C11.4101168,6.83930621 11.4000215,7.32516101 11.3252756,7.80313177 L11.2869562,8.04816914 Z M4.43887881,7.43014999 L0.269477801,8.04816914 L0.231158411,7.80313177 C0.156412473,7.32516101 0.146317125,6.83930621 0.201144062,6.35864311 L0.229469153,6.11031944 L4.42413782,6.58766163 L4.39521308,6.83658059 C4.38185701,6.9515196 4.3838854,7.06772631 4.40124466,7.18212919 L4.43887881,7.43014999 Z M5.06160305,1.18982748 L5.3084504,1.15853158 L5.85951766,5.34664274 L5.60755778,5.37606498 C5.49681262,5.38899708 5.38875955,5.41911023 5.28728858,5.46532033 L5.0516131,5.57264746 L3.4332798,1.6592233 L3.66313709,1.56320431 C4.11036663,1.37638175 4.58076975,1.25078869 5.06160305,1.18982748 Z M4.77353112,13.9830397 C4.29269782,13.9220784 3.8222947,13.7964854 3.37506516,13.6096628 L3.14520788,13.5136438 L4.76354117,9.60021967 L4.99921665,9.7075468 C5.10068762,9.7537569 5.20874069,9.78387006 5.31948586,9.79680215 L5.57144573,9.82622439 L5.02037847,14.0143356 L4.77353112,13.9830397 Z M6.21929425,4.15067761 L5.96936233,4.13573163 L6.22709496,-0.0674673685 L6.47228916,-0.0569798861 C6.95924025,-0.036151942 7.44039257,0.0569278296 7.89997923,0.219209295 L8.13201953,0.301143442 L6.79367078,4.29107832 L6.55822619,4.21470304 C6.44841898,4.17908295 6.33452848,4.15756864 6.21929425,4.15067761 Z M5.96057207,8.51149532 C6.0750449,8.49658274 6.18715722,8.46717623 6.29421221,8.42398315 L6.5237556,8.33137013 L8.13716799,12.2182272 L7.91140836,12.3161481 C7.46426141,12.5100934 6.99077407,12.6365099 6.50646205,12.6912551 L6.26259671,12.718821 L5.71229156,8.54383926 L5.96057207,8.51149532 Z" transform="translate(3.214 1.286)"/>
    <path d="M5.26446017,7.93692739 L5.47911475,8.07665041 L3.08532399,11.5665209 L2.87929772,11.4258331 C2.47858903,11.1522038 2.11638477,10.8260736 1.80236901,10.4561621 L1.64125798,10.2663728 L4.83970291,7.52801386 L5.00272563,7.71158572 C5.07951375,7.79805305 5.16754186,7.87384129 5.26446017,7.93692739 Z M8.61670234,3.14558426 L11.1866062,-0.195290824 L11.3843882,-0.0456445762 C11.7701823,0.246255925 12.1149474,0.588737805 12.4094048,0.972583891 L12.5615296,1.17088925 L9.21254771,3.74137972 L9.06044079,3.54222959 C8.99020499,3.45027147 8.90802192,3.36808841 8.8160638,3.29785261 L8.61670234,3.14558426 Z M14.0749592,6.83683303 L9.89540731,6.29167409 L9.92870718,6.04303426 C9.94406718,5.92834584 9.94406718,5.81212143 9.92870718,5.69743301 L9.89544261,5.44905677 L14.0811416,4.89858022 L14.1137963,5.14637173 C14.1770036,5.62600476 14.1753891,6.11196175 14.1089963,6.59116422 L14.0749592,6.83683303 Z M-0.0206098239,6.47400349 C-0.0953557619,5.99603273 -0.10545111,5.51017792 -0.0506241735,5.02951483 L-0.0222990822,4.78119116 L4.17236958,5.25853334 L4.14344485,5.50745231 C4.13008877,5.62239132 4.13211717,5.73859803 4.14947642,5.85300091 L4.18711058,6.10102171 L0.0177095661,6.71904086 L-0.0206098239,6.47400349 Z" transform="rotate(24 1.984 11.621)"/>
  </g>
</svg>
