<svg xmlns="http://www.w3.org/2000/svg" width="18" height="21" viewBox="0 0 18 21">
  <path fill="#C73530" stroke="#FFF" d="M10.946613,4.35300086 L12.7120927,1.99902792 L13.0891488,2.66186651 C13.2175294,2.88755065 14.2656137,4.36333169 14.5680686,4.83283305 C15.6755787,6.55202377 16.2921745,8.0925312 16.2921745,9.66237091 C16.2921745,14.242067 12.5796578,17.9545455 8,17.9545455 C3.42034223,17.9545455 -0.292174545,14.242067 -0.292174545,9.66237091 C-0.292174545,8.0925312 0.32442127,6.55202377 1.43193143,4.83283305 C1.73438626,4.36333169 2.78247061,2.88755065 2.91085117,2.66186651 L3.2879073,1.99902792 L5.05338701,4.35300086 L8,-0.361579931 L10.946613,4.35300086 Z M8.00397731,8.89053901 C7.97896835,8.91958333 7.95308185,8.94983035 7.92637385,8.98124162 C7.59490891,9.37107754 7.26336913,9.7940971 6.95479541,10.2340183 C6.51558266,10.8601864 6.16106812,11.4670271 5.9220956,12.029022 C5.70436747,12.5410563 5.59090909,12.9978904 5.59090909,13.3818182 C5.59090909,14.293603 6.55357668,15.2090909 8,15.2090909 C9.44642332,15.2090909 10.4090909,14.293603 10.4090909,13.3818182 C10.4090909,13.0290587 10.3211943,12.6249738 10.1512028,12.1800761 C9.91583726,11.5640828 9.53404438,10.8954263 9.04647576,10.2068039 C8.73846836,9.77178657 8.40752898,9.35569517 8.07668867,8.9739275 C8.05171455,8.94510904 8.02746204,8.91730292 8.00397731,8.89053901 Z" transform="translate(1 2)"/>
</svg>
