<svg xmlns="http://www.w3.org/2000/svg" width="20" height="22" viewBox="0 0 20 22">
  <path fill="#C73530" d="M10.0833333,0.733333333 L6.41666667,6.6 L4.21666667,3.66666667 C3.40296,5.09710667 0.261946667,8.49552 0.261946667,12.1786133 C0.261946667,17.6029333 4.65916,22 10.0833333,22 C15.5075067,22 19.90472,17.6029333 19.90472,12.1786133 C19.90472,8.49552 16.7637067,5.09710667 15.95,3.66666667 L13.75,6.6 L10.0833333,0.733333333 Z M10.0833333,10.2666667 C10.0833333,10.2666667 13.75,14.0239733 13.75,16.8666667 C13.75,18.0944133 12.53868,19.8 10.0833333,19.8 C7.62798667,19.8 6.41666667,18.0944133 6.41666667,16.8666667 C6.41666667,14.1215067 10.0833333,10.2666667 10.0833333,10.2666667 Z"/>
</svg>
