<svg xmlns="http://www.w3.org/2000/svg" width="15" height="16" viewBox="0 0 15 16">
  <path fill="#05032D" stroke="#FFF" d="M6.08461538,0.576923077 C6.8443872,0.576923077 7.30616913,0.745225219 8.15223984,1.20949937 C8.15946876,1.21346624 8.15946876,1.21346624 8.16668164,1.21742418 C8.87725194,1.60732686 9.20847263,1.72602369 9.6647517,1.72917304 C10.4957124,1.55434858 11.2771017,1.19578635 11.9515838,0.679802075 L12.0476822,0.622104768 C12.2085338,0.54864843 12.386494,0.520343044 12.5624472,0.540287422 C13.0968845,0.601144671 13.4807379,1.08376782 13.4230769,1.56153846 L13.4230512,7.00569978 C13.4264062,7.33658096 13.2703392,7.64871482 13.0150122,7.83594239 C12.0911852,8.5557894 10.9820187,8.99864748 9.76769231,9.11538462 C8.98463999,9.11538462 8.49849296,8.90820115 7.63197414,8.35240373 C7.60527968,8.33527865 7.60527968,8.33527865 7.5788004,8.31829847 C6.9057173,7.88683523 6.57851536,7.74769231 6.16393772,7.74136018 C5.4620055,7.85414633 4.83176883,8.23619607 4.40716561,8.80633852 L4.32485372,8.89295896 C4.13791725,9.04759634 3.90004746,9.12686689 3.65759097,9.11535295 C3.12039604,9.08967738 2.70566362,8.63332797 2.73076923,8.12 L2.73088471,3.39228404 C2.72563973,3.14828738 2.80744492,2.91028369 2.96654973,2.71512311 C3.00824328,2.66554159 3.22442459,2.39476681 3.2781749,2.32891298 C3.44401503,2.12572887 3.59605711,1.95107696 3.75852487,1.78207162 C4.4855771,1.02576338 5.23794419,0.576923077 6.08461538,0.576923077 Z M1.61538462,2.65384615 C0.744457625,2.65384615 0.0384615385,1.94785007 0.0384615385,1.07692308 C0.0384615385,0.205996087 0.744457625,-0.5 1.61538462,-0.5 C2.48631161,-0.5 3.19230769,0.205996087 3.19230769,1.07692308 C3.19230769,1.94785007 2.48631161,2.65384615 1.61538462,2.65384615 Z M2.65384615,3.23076923 L2.65384615,13.44 C2.65384615,14.0134808 2.18886545,14.4784615 1.61538462,14.4784615 C1.04190378,14.4784615 0.576923077,14.0134808 0.576923077,13.44 L0.576923077,3.23076923 C0.576923077,2.65728839 1.04190378,2.19230769 1.61538462,2.19230769 C2.18886545,2.19230769 2.65384615,2.65728839 2.65384615,3.23076923 Z" transform="translate(1 1)"/>
</svg>
