<svg xmlns="http://www.w3.org/2000/svg" width="21" height="22" viewBox="0 0 21 22">
  <path fill="#05032D" d="M9.56153846,1.69230769 C7.49692308,1.69230769 5.88923077,4.02769231 5.26307692,4.77230769 C5.13869231,4.92495385 5.07269231,5.11703077 5.07692308,5.31384615 L5.07692308,12.76 C5.05729231,13.1707231 5.37443077,13.5196769 5.78515385,13.5393077 C5.97046154,13.5481077 6.15238462,13.4875231 6.29538462,13.3692308 C7.08484615,12.3091692 8.2566,11.5989077 9.56153846,11.3892308 C11.9476923,11.3892308 12.8615385,13.5384615 15.3492308,13.5384615 C17.0327385,13.3732923 18.6348462,12.7336 19.9692308,11.6938462 C20.1844923,11.5357846 20.3104,11.2839692 20.3076923,11.0169231 L20.3076923,2.45384615 C20.3542308,2.04532308 20.0607846,1.67623077 19.6520923,1.62969231 C19.5177231,1.61446154 19.3814923,1.63612308 19.2584615,1.69230769 C18.1054923,2.57433846 16.7697538,3.18729231 15.3492308,3.48615385 C12.8615385,3.52 12.0492308,1.69230769 9.56153846,1.69230769 Z M2.53846154,3.38461538 C1.6038,3.38461538 0.846153846,2.62696923 0.846153846,1.69230769 C0.846153846,0.757646154 1.6038,0 2.53846154,0 C3.47312308,0 4.23076923,0.757646154 4.23076923,1.69230769 C4.23076923,2.62696923 3.47312308,3.38461538 2.53846154,3.38461538 Z M3.38461538,5.07692308 L3.38461538,21.12 C3.38461538,21.5872462 3.00570769,21.9661538 2.53846154,21.9661538 C2.07121538,21.9661538 1.69230769,21.5872462 1.69230769,21.12 L1.69230769,5.07692308 C1.69230769,4.60967692 2.07121538,4.23076923 2.53846154,4.23076923 C3.00570769,4.23076923 3.38461538,4.60967692 3.38461538,5.07692308 Z"/>
</svg>
