<svg xmlns="http://www.w3.org/2000/svg" width="20" height="20" viewBox="0 0 20 20">
  <path fill="#05032D" d="M1.53846154,19.612 C1.53846154,19.8244154 1.71066154,19.9966154 1.92307692,19.9966154 L7.69076923,19.9966154 L7.69076923,15.3812308 L12.3061538,15.3812308 L12.3061538,19.9966154 L18.0738462,19.9966154 C18.2862615,19.9966154 18.4584615,19.8244154 18.4584615,19.612 L18.4584615,10.7672308 L1.53846154,10.7672308 C1.53846154,10.7672308 1.53846154,19.612 1.53846154,19.612 Z M19.8923077,8.58123077 L18.4586154,7.32138462 L18.4586154,1.53846154 C18.4586154,0.6888 17.7698308,0 16.9201538,0 C16.0704769,0 15.3816923,0.6888 15.3816923,1.53846154 L15.3816923,4.61538462 L10.2781538,0.138461538 C10.1327692,-0.0158461538 9.88993846,-0.0234153846 9.73523077,0.121538462 L9.71830769,0.138461538 L0.104307692,8.54307692 C-0.0409230769,8.69809231 -0.0329846154,8.94149231 0.122030769,9.08672308 C0.191969231,9.15224615 0.283861538,9.18929231 0.379692308,9.19061538 L3.07692308,9.2290791 L19.6104615,9.2290791 C19.8228769,9.22978462 19.9956462,9.05815385 19.9963559,8.84573846 C19.9966769,8.74756923 19.9594615,8.653 19.8923077,8.58138462 L19.8923077,8.58123077 Z"/>
</svg>
