<svg xmlns="http://www.w3.org/2000/svg" width="18" height="18" viewBox="0 0 18 18">
  <path fill="#05032D" stroke="#FFF" d="M1.23076923,15.6896 C1.23076923,15.8595323 1.36852923,15.9972923 1.53846154,15.9972923 L6.15261538,15.9972923 L6.15261538,12.3049846 L9.84492308,12.3049846 L9.84492308,15.9972923 L14.4590769,15.9972923 C14.6290092,15.9972923 14.7667692,15.8595323 14.7667692,15.6896 L14.7667692,7.61378462 L1.23076923,7.61378462 C1.23076923,6.61378462 1.23076923,15.6896 1.23076923,15.6896 Z M15.9138462,6.86498462 L14.7668923,5.85710769 L14.7668923,1.23076923 C14.7668923,0.55104 14.2158646,0 13.5361231,0 C12.8563815,0 12.3053538,0.55104 12.3053538,1.23076923 L12.3053538,3.69230769 L8.22252308,0.110769231 C8.10621538,-0.0126769231 7.91195077,-0.0187323077 7.78818462,0.0972307692 L7.77464615,0.110769231 L0.0834461538,6.83446154 C-0.0327384615,6.95847385 -0.0263876923,7.15319385 0.0976246154,7.26937846 C0.153575385,7.32179692 0.227089231,7.35143385 0.303753846,7.35249231 L2.46153846,7.38326328 L15.6883692,7.38326328 C15.8583015,7.38382769 15.9965169,7.24652308 15.9970847,7.07659077 C15.9973415,6.99805538 15.9675692,6.9224 15.9138462,6.86510769 L15.9138462,6.86498462 Z" transform="translate(1 1)"/>
</svg>
