<svg xmlns="http://www.w3.org/2000/svg" width="18" height="16" viewBox="0 0 18 16">
  <g fill="none" fill-rule="evenodd">
    <path fill="#05032D" stroke="#FFF" d="M8.99362626,3.80735626 L5.71229964,9.11538462 L5.71597014,9.11538462 L7.84694318,6.98441157 L9,8.7139968 L10.1530568,6.98441157 L12.0200634,8.85141815 L8.99362626,3.80735626 Z M5.70635692,9.12499784 L5.63975154,9.23274183 L5.56952353,9.26183122 L5.70635692,9.12499784 Z M12.2840299,9.11538462 L12.4304765,9.26183122 L12.2120182,9.17134285 L12.1784433,9.11538462 L12.2840299,9.11538462 Z M16.4995428,13.5520318 C16.4995432,13.5520335 16.4995437,13.5520353 16.4995441,13.552037 C16.4995436,13.552035 16.4995431,13.5520329 16.4995426,13.5520307 Z M0.720141974,12.8850616 L7.83478654,1.23176442 L7.90798507,1.1387543 C7.9516069,1.09513247 8.10764242,0.921759674 8.11557328,0.913300091 C8.37094998,0.640898274 8.62456687,0.5 9,0.5 C9.48722882,0.5 9.75455501,0.678217461 10.2150919,1.1387543 L10.2902849,1.23505981 L17.3241367,12.9610086 C17.4207999,13.154335 17.443514,13.2048107 17.4696866,13.3095014 C17.4971178,13.4192262 17.5,13.4768695 17.5,13.6769231 C17.5,14.5378057 16.9437157,15.0384615 16.1384615,15.0384615 L1.86153846,15.0384615 C1.14008709,15.0384615 0.5,14.5147539 0.5,13.6769231 C0.5,13.5428425 0.503821679,13.4587656 0.522187653,13.3485697 C0.55143641,13.1730772 0.610104594,13.0168765 0.720141974,12.8850616 Z"/>
    <polygon fill="#FFF" points="9.123 4 7.695 6.369 8.938 8 10.685 6.369"/>
  </g>
</svg>
