<svg xmlns="http://www.w3.org/2000/svg" width="24" height="21" viewBox="0 0 24 21">
  <path fill="#05032D" fill-rule="evenodd" d="M12,2.76923077 L18.0923077,12.9230769 L16.6153846,12.9230769 L13.8461538,10.1538462 L12,12.9230769 L10.1538462,10.1538462 L7.38461538,12.9230769 L5.72307692,12.9230769 L12,2.76923077 Z M12,0 C11.4461538,0 11.2615385,0.369230769 10.8923077,0.738461538 L0.184615385,18.2769231 C0,18.4615385 0,18.8307692 0,19.0153846 C0,19.9384615 0.738461538,20.3076923 1.29230769,20.3076923 L22.7076923,20.3076923 C23.4461538,20.3076923 24,19.9384615 24,19.0153846 C24,18.6461538 24,18.6461538 23.8153846,18.2769231 L13.2923077,0.738461538 C12.9230769,0.369230769 12.5538462,0 12,0 L12,0 Z"/>
</svg>
