<svg xmlns="http://www.w3.org/2000/svg" width="22" height="22" viewBox="0 0 22 22">
  <g fill="none" fill-rule="evenodd">
    <path fill="#FFF" fill-rule="nonzero" stroke="#05032D" stroke-width="1.5" d="M20,10 C20,15.5229231 15.5229231,20 10,20 C4.47707692,20 0,15.5229231 0,10 C0,4.47707692 4.47707692,0 10,0 C15.5229231,0 20,4.47707692 20,10 Z" transform="translate(1 1)"/>
    <path fill="#05032D" fill-rule="nonzero" d="M6.569,16 L6.569,8.804 C6.247,9.196 5.533,9.392 4.945,9.392 L4.497,9.392 L4.497,7.838 L4.777,7.838 C5.827,7.824 6.569,7.306 6.877,6.27 L8.305,6.27 L8.305,16 L6.569,16 Z M13.877,16.21 C11.707,16.21 10.293,15.02 10.265,13.144 L11.973,12.962 C12.015,14.138 12.757,14.838 13.919,14.838 C15.039,14.838 15.641,14.264 15.641,13.2 C15.641,12.178 14.997,11.632 13.695,11.632 L13.149,11.632 L13.149,10.372 L13.653,10.372 C14.801,10.372 15.361,9.798 15.361,8.86 C15.361,7.95 14.787,7.418 13.779,7.418 C12.687,7.418 12.071,8.132 12.071,9.406 L10.391,9.126 C10.391,7.236 11.735,6.06 13.877,6.06 C15.935,6.06 17.111,7.04 17.111,8.664 C17.111,9.77 16.397,10.638 15.263,10.904 C16.663,11.128 17.419,11.912 17.419,13.256 C17.419,15.09 16.047,16.21 13.877,16.21 Z"/>
  </g>
</svg>
