<svg xmlns="http://www.w3.org/2000/svg" width="18" height="18" viewBox="0 0 18 18">
  <g fill="none" transform="translate(1 1)">
    <path fill="#FFF" stroke="#05032D" d="M16,8 C16,12.4183385 12.4183385,16 8,16 C3.58166154,16 0,12.4183385 0,8 C0,3.58166154 3.58166154,0 8,0 C12.4183385,0 16,3.58166154 16,8 Z"/>
    <path fill="#05032D" d="M7.9664,12.168 C6.2304,12.168 5.0992,11.216 5.0768,9.7152 L6.4432,9.5696 C6.4768,10.5104 7.0704,11.0704 8,11.0704 C8.896,11.0704 9.3776,10.6112 9.3776,9.76 C9.3776,8.9424 8.8624,8.5056 7.8208,8.5056 L7.384,8.5056 L7.384,7.4976 L7.7872,7.4976 C8.7056,7.4976 9.1536,7.0384 9.1536,6.288 C9.1536,5.56 8.6944,5.1344 7.888,5.1344 C7.0144,5.1344 6.5216,5.7056 6.5216,6.7248 L5.1776,6.5008 C5.1776,4.9888 6.2528,4.048 7.9664,4.048 C9.6128,4.048 10.5536,4.832 10.5536,6.1312 C10.5536,7.016 9.9824,7.7104 9.0752,7.9232 C10.1952,8.1024 10.8,8.7296 10.8,9.8048 C10.8,11.272 9.7024,12.168 7.9664,12.168 Z"/>
  </g>
</svg>
