<svg xmlns="http://www.w3.org/2000/svg" width="22" height="22" viewBox="0 0 22 22">
  <g fill="none" fill-rule="evenodd">
    <path fill="#FFF" fill-rule="nonzero" stroke="#05032D" stroke-width="1.5" d="M20,10 C20,15.5229231 15.5229231,20 10,20 C4.47707692,20 0,15.5229231 0,10 C0,4.47707692 4.47707692,0 10,0 C15.5229231,0 20,4.47707692 20,10 Z" transform="translate(1 1)"/>
    <path fill="#05032D" fill-rule="nonzero" d="M6.541,16 L6.541,8.804 C6.219,9.196 5.505,9.392 4.917,9.392 L4.469,9.392 L4.469,7.838 L4.749,7.838 C5.799,7.824 6.541,7.306 6.849,6.27 L8.277,6.27 L8.277,16 L6.541,16 Z M13.751,6.06 C16.201,6.06 17.447,7.726 17.447,10.96 C17.447,14.054 16.355,16.21 13.751,16.21 C11.889,16.21 10.727,15.3 10.433,13.634 L12.099,13.312 C12.281,14.236 12.785,14.838 13.807,14.838 C15.179,14.838 15.753,13.452 15.767,11.282 C15.305,12.08 14.465,12.458 13.485,12.458 C11.623,12.458 10.307,11.296 10.307,9.308 C10.307,7.432 11.637,6.06 13.751,6.06 Z M13.751,11.128 C14.661,11.128 15.487,10.484 15.753,9.588 C15.655,8.482 15.151,7.39 13.765,7.39 C12.687,7.39 11.973,8.146 11.973,9.28 C11.973,10.4 12.715,11.128 13.751,11.128 Z"/>
  </g>
</svg>
