<svg xmlns="http://www.w3.org/2000/svg" width="22" height="22" viewBox="0 0 22 22">
  <g fill="none" fill-rule="evenodd">
    <path fill="#FFF" fill-rule="nonzero" stroke="#05032D" stroke-width="1.5" d="M20,10 C20,15.5229231 15.5229231,20 10,20 C4.47707692,20 0,15.5229231 0,10 C0,4.47707692 4.47707692,0 10,0 C15.5229231,0 20,4.47707692 20,10 Z" transform="translate(1 1)"/>
    <path fill="#05032D" fill-rule="nonzero" d="M7.073,16 L7.073,8.804 C6.751,9.196 6.037,9.392 5.449,9.392 L5.001,9.392 L5.001,7.838 L5.281,7.838 C6.331,7.824 7.073,7.306 7.381,6.27 L8.809,6.27 L8.809,16 L7.073,16 Z M12.071,16 L12.071,15.846 C12.071,13.004 13.345,10.232 15.487,7.768 L10.671,7.768 L10.671,6.27 L17.293,6.27 L17.293,7.6 C15.095,9.98 13.961,12.752 13.961,15.706 L13.961,16 L12.071,16 Z"/>
  </g>
</svg>
