<svg xmlns="http://www.w3.org/2000/svg" width="18" height="18" viewBox="0 0 18 18">
  <g fill="none" transform="translate(1 1)">
    <path fill="#FFF" stroke="#05032D" d="M16,8 C16,12.4183385 12.4183385,16 8,16 C3.58166154,16 0,12.4183385 0,8 C0,3.58166154 3.58166154,0 8,0 C12.4183385,0 16,3.58166154 16,8 Z"/>
    <path fill="#05032D" d="M9.3664,7.7664 C10.4976,8.1808 10.9792,8.8304 10.9792,9.8832 C10.9792,11.2608 9.8032,12.168 8.0112,12.168 C6.208,12.168 5.032,11.3056 5.032,9.9728 C5.032,8.9536 5.536,8.3152 6.5776,8.0016 C5.6816,7.6096 5.2896,7.016 5.2896,6.1312 C5.2896,4.8768 6.3648,4.048 7.9664,4.048 C9.6016,4.048 10.6544,4.8208 10.6544,6.0304 C10.6544,6.8928 10.2288,7.464 9.3664,7.7664 Z M7.9552,5.0224 C7.1376,5.0224 6.6336,5.4368 6.6336,6.12 C6.6336,6.7248 7.0144,7.0832 7.9104,7.3408 L8.3248,7.464 C9.0528,7.1616 9.3216,6.7808 9.3216,6.176 C9.3216,5.448 8.8176,5.0224 7.9552,5.0224 Z M8.0224,11.1264 C8.9968,11.1264 9.5792,10.6448 9.5792,9.8608 C9.5792,9.2112 9.1872,8.8192 8.2688,8.5392 L7.5856,8.3376 C6.7568,8.6624 6.432,9.0768 6.432,9.7824 C6.432,10.5888 7.0704,11.1264 8.0224,11.1264 Z"/>
  </g>
</svg>
