<svg xmlns="http://www.w3.org/2000/svg" width="22" height="22" viewBox="0 0 22 22">
  <g fill="none" fill-rule="evenodd">
    <path fill="#FFF" fill-rule="nonzero" stroke="#05032D" stroke-width="1.5" d="M20,10 C20,15.5229231 15.5229231,20 10,20 C4.47707692,20 0,15.5229231 0,10 C0,4.47707692 4.47707692,0 10,0 C15.5229231,0 20,4.47707692 20,10 Z" transform="translate(1 1)"/>
    <path fill="#05032D" fill-rule="nonzero" d="M6.604,16 L6.604,8.804 C6.282,9.196 5.568,9.392 4.98,9.392 L4.532,9.392 L4.532,7.838 L4.812,7.838 C5.862,7.824 6.604,7.306 6.912,6.27 L8.34,6.27 L8.34,16 L6.604,16 Z M13.87,16.21 C12.008,16.21 10.706,15.188 10.44,13.564 L12.162,13.326 C12.344,14.194 12.918,14.81 13.898,14.81 C15.032,14.81 15.704,14.054 15.704,12.794 C15.704,11.52 15.088,10.666 13.94,10.666 C13.03,10.666 12.442,11.184 12.204,12.08 L10.622,11.926 L11.21,6.27 L16.936,6.27 L16.936,7.684 L12.484,7.684 L12.162,10.484 C12.624,9.742 13.38,9.35 14.402,9.35 C16.278,9.35 17.426,10.638 17.426,12.724 C17.426,14.824 16.054,16.21 13.87,16.21 Z"/>
  </g>
</svg>
