<svg xmlns="http://www.w3.org/2000/svg" width="18" height="18" viewBox="0 0 18 18">
  <g fill="none" transform="translate(1 1)">
    <path fill="#FFF" stroke="#05032D" d="M16,8 C16,12.4183385 12.4183385,16 8,16 C3.58166154,16 0,12.4183385 0,8 C0,3.58166154 3.58166154,0 8,0 C12.4183385,0 16,3.58166154 16,8 Z"/>
    <path fill="#05032D" d="M7.8656,4.048 C9.8256,4.048 10.8224,5.3808 10.8224,7.968 C10.8224,10.4432 9.9488,12.168 7.8656,12.168 C6.376,12.168 5.4464,11.44 5.2112,10.1072 L6.544,9.8496 C6.6896,10.5888 7.0928,11.0704 7.9104,11.0704 C9.008,11.0704 9.4672,9.9616 9.4784,8.2256 C9.1088,8.864 8.4368,9.1664 7.6528,9.1664 C6.1632,9.1664 5.1104,8.2368 5.1104,6.6464 C5.1104,5.1456 6.1744,4.048 7.8656,4.048 Z M7.8656,8.1024 C8.5936,8.1024 9.2544,7.5872 9.4672,6.8704 C9.3888,5.9856 8.9856,5.112 7.8768,5.112 C7.0144,5.112 6.4432,5.7168 6.4432,6.624 C6.4432,7.52 7.0368,8.1024 7.8656,8.1024 Z"/>
  </g>
</svg>
