<svg xmlns="http://www.w3.org/2000/svg" width="18" height="18" viewBox="0 0 18 18">
  <g fill="none" transform="translate(1 1)">
    <path fill="#FFF" stroke="#05032D" d="M16,8 C16,12.4183385 12.4183385,16 8,16 C3.58166154,16 0,12.4183385 0,8 C0,3.58166154 3.58166154,0 8,0 C12.4183385,0 16,3.58166154 16,8 Z"/>
    <path fill="#05032D" d="M4.0856,12 L4.0856,6.2432 C3.828,6.5568 3.2568,6.7136 2.7864,6.7136 L2.428,6.7136 L2.428,5.4704 L2.652,5.4704 C3.492,5.4592 4.0856,5.0448 4.332,4.216 L5.4744,4.216 L5.4744,12 L4.0856,12 Z M10.3352,12.168 C8.2968,12.168 7.1768,10.6336 7.1768,8.1136 C7.1768,5.5824 8.2968,4.048 10.3352,4.048 C12.3736,4.048 13.5048,5.5824 13.5048,8.1136 C13.5048,10.6336 12.3736,12.168 10.3352,12.168 Z M10.3352,11.0704 C11.5,11.0704 12.1048,9.9728 12.1048,8.1136 C12.1048,6.2432 11.5,5.1456 10.3352,5.1456 C9.1704,5.1456 8.5768,6.2432 8.5768,8.1136 C8.5768,9.9728 9.1704,11.0704 10.3352,11.0704 Z"/>
  </g>
</svg>
