<svg xmlns="http://www.w3.org/2000/svg" width="18" height="18" viewBox="0 0 18 18">
  <g fill="none" transform="translate(1 1)">
    <path fill="#FFF" stroke="#05032D" d="M16,8 C16,12.4183385 12.4183385,16 8,16 C3.58166154,16 0,12.4183385 0,8 C0,3.58166154 3.58166154,0 8,0 C12.4183385,0 16,3.58166154 16,8 Z"/>
    <path fill="#05032D" d="M7.9608,12.168 C6.4712,12.168 5.4296,11.3504 5.2168,10.0512 L6.5944,9.8608 C6.74,10.5552 7.1992,11.048 7.9832,11.048 C8.8904,11.048 9.428,10.4432 9.428,9.4352 C9.428,8.416 8.9352,7.7328 8.0168,7.7328 C7.2888,7.7328 6.8184,8.1472 6.628,8.864 L5.3624,8.7408 L5.8328,4.216 L10.4136,4.216 L10.4136,5.3472 L6.852,5.3472 L6.5944,7.5872 C6.964,6.9936 7.5688,6.68 8.3864,6.68 C9.8872,6.68 10.8056,7.7104 10.8056,9.3792 C10.8056,11.0592 9.708,12.168 7.9608,12.168 Z"/>
  </g>
</svg>
