<svg xmlns="http://www.w3.org/2000/svg" width="22" height="22" viewBox="0 0 22 22">
  <g fill="none" fill-rule="evenodd">
    <path fill="#FFF" fill-rule="nonzero" stroke="#05032D" stroke-width="1.5" d="M20,10 C20,15.5229231 15.5229231,20 10,20 C4.47707692,20 0,15.5229231 0,10 C0,4.47707692 4.47707692,0 10,0 C15.5229231,0 20,4.47707692 20,10 Z" transform="translate(1 1)"/>
    <path fill="#05032D" fill-rule="nonzero" d="M6.716,16 L6.716,8.804 C6.394,9.196 5.68,9.392 5.092,9.392 L4.644,9.392 L4.644,7.838 L4.924,7.838 C5.974,7.824 6.716,7.306 7.024,6.27 L8.452,6.27 L8.452,16 L6.716,16 Z M10.426,16 L10.426,14.684 C11.532,13.956 12.764,13.018 13.828,12.01 C14.934,10.974 15.326,10.19 15.326,9.126 C15.326,8.062 14.78,7.474 13.8,7.474 C12.806,7.474 12.218,8.09 12.218,9.056 C12.218,9.308 12.246,9.588 12.316,9.91 L10.58,9.742 C10.51,9.476 10.482,9.21 10.482,8.972 C10.482,7.194 11.784,6.06 13.884,6.06 C15.942,6.06 17.16,7.138 17.16,9.042 C17.16,10.386 16.53,11.534 15.172,12.766 C14.472,13.396 13.73,13.956 12.764,14.558 L17.258,14.558 L17.258,16 L10.426,16 Z"/>
  </g>
</svg>
