<?xml version="1.0" encoding="UTF-8"?>
<svg width="19px" height="18px" viewBox="0 0 19 18" version="1.1" xmlns="http://www.w3.org/2000/svg" xmlns:xlink="http://www.w3.org/1999/xlink">
    <title>number-28</title>
    <g id="Page-1" stroke="none" stroke-width="1" fill="none" fill-rule="evenodd">
        <g id="number-28" transform="translate(1.129446, 1.036655)" fill-rule="nonzero">
            <path d="M16.2515125,8 C16.2515125,12.4183385 12.669851,16 8.25151247,16 C3.83317401,16 0.251512467,12.4183385 0.251512467,8 C0.251512467,3.58166154 3.83317401,0 8.25151247,0 C12.669851,0 16.2515125,3.58166154 16.2515125,8 Z" id="Path" stroke="#05032D" fill="#FFFFFF"></path>
            <path d="M7.81915741,11.9898735 L7.81915741,10.8362735 L4.22395741,10.8362735 C4.94822408,10.3882735 5.59035741,9.91040682 6.15035741,9.40267349 C6.69542408,8.90987349 7.09675741,8.42454016 7.35435741,7.94667349 C7.61195741,7.46880682 7.74075741,6.96107349 7.74075741,6.42347349 C7.74075741,5.66187349 7.51115741,5.07387349 7.05195741,4.65947349 C6.59275741,4.24507349 5.94875741,4.03787349 5.11995741,4.03787349 C4.28369074,4.03787349 3.62102408,4.24694016 3.13195741,4.66507349 C2.64289074,5.08320682 2.39835741,5.65067349 2.39835741,6.36747349 C2.39835741,6.57654016 2.42449074,6.78187349 2.47675741,6.98347349 L2.47675741,6.98347349 L3.86555741,7.11787349 C3.81329074,6.87894016 3.78715741,6.65120682 3.78715741,6.43467349 C3.78715741,6.04640682 3.89915741,5.73840682 4.12315741,5.51067349 C4.34715741,5.28294016 4.65702408,5.16907349 5.05275741,5.16907349 C5.44849074,5.16907349 5.75089074,5.28294016 5.95995741,5.51067349 C6.16902408,5.73840682 6.27355741,6.06507349 6.27355741,6.49067349 C6.27355741,6.91627349 6.18395741,7.30454016 6.00475741,7.65547349 C5.82555741,8.00640682 5.51569074,8.38720682 5.07515741,8.79787349 C4.27622408,9.55947349 3.36902408,10.2725402 2.35355741,10.9370735 L2.35355741,10.9370735 L2.35355741,11.9898735 L7.81915741,11.9898735 Z M11.6831574,12.1578735 C12.2730241,12.1578735 12.7919574,12.0626735 13.2399574,11.8722735 C13.6879574,11.6818735 14.0351574,11.4149402 14.2815574,11.0714735 C14.5279574,10.7280068 14.6511574,10.3285402 14.6511574,9.87307349 C14.6511574,9.34294016 14.5223574,8.90987349 14.2647574,8.57387349 C14.0071574,8.23787349 13.5983574,7.96534016 13.0383574,7.75627349 C13.8970241,7.45760682 14.3263574,6.87894016 14.3263574,6.02027349 C14.3263574,5.41547349 14.0836907,4.93387349 13.5983574,4.57547349 C13.1130241,4.21707349 12.4596907,4.03787349 11.6383574,4.03787349 C11.1082241,4.03787349 10.6415574,4.12374016 10.2383574,4.29547349 C9.83515741,4.46720682 9.52155741,4.71174016 9.29755741,5.02907349 C9.07355741,5.34640682 8.96155741,5.71040682 8.96155741,6.12107349 C8.96155741,6.56907349 9.06422408,6.94427349 9.26955741,7.24667349 C9.47489074,7.54907349 9.80155741,7.79734016 10.2495574,7.99147349 C9.72689074,8.14827349 9.33862408,8.38907349 9.08475741,8.71387349 C8.83089074,9.03867349 8.70395741,9.45494016 8.70395741,9.96267349 C8.70395741,10.4032068 8.82715741,10.7896068 9.07355741,11.1218735 C9.31995741,11.4541402 9.66715741,11.7098735 10.1151574,11.8890735 C10.5631574,12.0682735 11.0858241,12.1578735 11.6831574,12.1578735 Z M11.9967574,7.45387349 L11.5823574,7.33067349 C11.1343574,7.20374016 10.8095574,7.04320682 10.6079574,6.84907349 C10.4063574,6.65494016 10.3055574,6.40854016 10.3055574,6.10987349 C10.3055574,5.76640682 10.4231574,5.49760682 10.6583574,5.30347349 C10.8935574,5.10934016 11.2164907,5.01227349 11.6271574,5.01227349 C12.0602241,5.01227349 12.3962241,5.11307349 12.6351574,5.31467349 C12.8740907,5.51627349 12.9935574,5.80000682 12.9935574,6.16587349 C12.9935574,6.47200682 12.9170241,6.72587349 12.7639574,6.92747349 C12.6108907,7.12907349 12.3551574,7.30454016 11.9967574,7.45387349 L11.9967574,7.45387349 Z M11.6943574,11.1162735 C11.2164907,11.1162735 10.8319574,10.9930735 10.5407574,10.7466735 C10.2495574,10.5002735 10.1039574,10.1754735 10.1039574,9.77227349 C10.1039574,9.42134016 10.1935574,9.13387349 10.3727574,8.90987349 C10.5519574,8.68587349 10.8468907,8.49174016 11.2575574,8.32747349 L11.2575574,8.32747349 L11.9407574,8.52907349 C12.4036907,8.67094016 12.7378241,8.84640682 12.9431574,9.05547349 C13.1484907,9.26454016 13.2511574,9.52960682 13.2511574,9.85067349 C13.2511574,10.2464068 13.1130241,10.5562735 12.8367574,10.7802735 C12.5604907,11.0042735 12.1796907,11.1162735 11.6943574,11.1162735 Z" id="28" fill="#05032D"></path>
        </g>
    </g>
</svg>