<svg xmlns="http://www.w3.org/2000/svg" width="18" height="18" viewBox="0 0 18 18">
  <g fill="none" transform="translate(1 1)">
    <path fill="#FFF" stroke="#05032D" d="M16,8 C16,12.4183385 12.4183385,16 8,16 C3.58166154,16 0,12.4183385 0,8 C0,3.58166154 3.58166154,0 8,0 C12.4183385,0 16,3.58166154 16,8 Z"/>
    <path fill="#05032D" d="M4.4552,12 L4.4552,6.2432 C4.1976,6.5568 3.6264,6.7136 3.156,6.7136 L2.7976,6.7136 L2.7976,5.4704 L3.0216,5.4704 C3.8616,5.4592 4.4552,5.0448 4.7016,4.216 L5.844,4.216 L5.844,12 L4.4552,12 Z M10.3016,12.168 C8.5656,12.168 7.4344,11.216 7.412,9.7152 L8.7784,9.5696 C8.812,10.5104 9.4056,11.0704 10.3352,11.0704 C11.2312,11.0704 11.7128,10.6112 11.7128,9.76 C11.7128,8.9424 11.1976,8.5056 10.156,8.5056 L9.7192,8.5056 L9.7192,7.4976 L10.1224,7.4976 C11.0408,7.4976 11.4888,7.0384 11.4888,6.288 C11.4888,5.56 11.0296,5.1344 10.2232,5.1344 C9.3496,5.1344 8.8568,5.7056 8.8568,6.7248 L7.5128,6.5008 C7.5128,4.9888 8.588,4.048 10.3016,4.048 C11.948,4.048 12.8888,4.832 12.8888,6.1312 C12.8888,7.016 12.3176,7.7104 11.4104,7.9232 C12.5304,8.1024 13.1352,8.7296 13.1352,9.8048 C13.1352,11.272 12.0376,12.168 10.3016,12.168 Z"/>
  </g>
</svg>
