<svg xmlns="http://www.w3.org/2000/svg" width="18" height="18" viewBox="0 0 18 18">
  <g fill="none" transform="translate(1 1)">
    <path fill="#FFF" stroke="#05032D" d="M16,8 C16,12.4183385 12.4183385,16 8,16 C3.58166154,16 0,12.4183385 0,8 C0,3.58166154 3.58166154,0 8,0 C12.4183385,0 16,3.58166154 16,8 Z"/>
    <path fill="#05032D" d="M4.4832,12 L4.4832,6.2432 C4.2256,6.5568 3.6544,6.7136 3.184,6.7136 L2.8256,6.7136 L2.8256,5.4704 L3.0496,5.4704 C3.8896,5.4592 4.4832,5.0448 4.7296,4.216 L5.872,4.216 L5.872,12 L4.4832,12 Z M10.296,12.168 C8.8064,12.168 7.7648,11.3504 7.552,10.0512 L8.9296,9.8608 C9.0752,10.5552 9.5344,11.048 10.3184,11.048 C11.2256,11.048 11.7632,10.4432 11.7632,9.4352 C11.7632,8.416 11.2704,7.7328 10.352,7.7328 C9.624,7.7328 9.1536,8.1472 8.9632,8.864 L7.6976,8.7408 L8.168,4.216 L12.7488,4.216 L12.7488,5.3472 L9.1872,5.3472 L8.9296,7.5872 C9.2992,6.9936 9.904,6.68 10.7216,6.68 C12.2224,6.68 13.1408,7.7104 13.1408,9.3792 C13.1408,11.0592 12.0432,12.168 10.296,12.168 Z"/>
  </g>
</svg>
