<?xml version="1.0" encoding="UTF-8"?>
<svg width="18px" height="18px" viewBox="0 0 18 18" version="1.1" xmlns="http://www.w3.org/2000/svg" xmlns:xlink="http://www.w3.org/1999/xlink">
    <title>number-25</title>
    <g id="Page-1" stroke="none" stroke-width="1" fill="none" fill-rule="evenodd">
        <g id="number-25" transform="translate(0.264678, 1.036655)" fill-rule="nonzero">
            <path d="M16.516281,8 C16.516281,12.4183385 12.9346195,16 8.51628101,16 C4.09794255,16 0.516281006,12.4183385 0.516281006,8 C0.516281006,3.58166154 4.09794255,0 8.51628101,0 C12.9346195,0 16.516281,3.58166154 16.516281,8 Z" id="Path" stroke="#05032D" fill="#FFFFFF"></path>
            <path d="M7.94795741,11.9898735 L7.94795741,10.8362735 L4.35275741,10.8362735 C5.07702408,10.3882735 5.71915741,9.91040682 6.27915741,9.40267349 C6.82422408,8.90987349 7.22555741,8.42454016 7.48315741,7.94667349 C7.74075741,7.46880682 7.86955741,6.96107349 7.86955741,6.42347349 C7.86955741,5.66187349 7.63995741,5.07387349 7.18075741,4.65947349 C6.72155741,4.24507349 6.07755741,4.03787349 5.24875741,4.03787349 C4.41249074,4.03787349 3.74982408,4.24694016 3.26075741,4.66507349 C2.77169074,5.08320682 2.52715741,5.65067349 2.52715741,6.36747349 C2.52715741,6.57654016 2.55329074,6.78187349 2.60555741,6.98347349 L2.60555741,6.98347349 L3.99435741,7.11787349 C3.94209074,6.87894016 3.91595741,6.65120682 3.91595741,6.43467349 C3.91595741,6.04640682 4.02795741,5.73840682 4.25195741,5.51067349 C4.47595741,5.28294016 4.78582408,5.16907349 5.18155741,5.16907349 C5.57729074,5.16907349 5.87969074,5.28294016 6.08875741,5.51067349 C6.29782408,5.73840682 6.40235741,6.06507349 6.40235741,6.49067349 C6.40235741,6.91627349 6.31275741,7.30454016 6.13355741,7.65547349 C5.95435741,8.00640682 5.64449074,8.38720682 5.20395741,8.79787349 C4.40502408,9.55947349 3.49782408,10.2725402 2.48235741,10.9370735 L2.48235741,10.9370735 L2.48235741,11.9898735 L7.94795741,11.9898735 Z M11.6327574,12.1578735 C12.2076907,12.1578735 12.7098241,12.0421402 13.1391574,11.8106735 C13.5684907,11.5792068 13.8988907,11.2544068 14.1303574,10.8362735 C14.3618241,10.4181402 14.4775574,9.92907349 14.4775574,9.36907349 C14.4775574,8.53280682 14.2610241,7.87387349 13.8279574,7.39227349 C13.3948907,6.91067349 12.8050241,6.66987349 12.0583574,6.66987349 C11.2370241,6.66987349 10.6396907,6.97227349 10.2663574,7.57707349 L10.2663574,7.57707349 L10.5239574,5.33707349 L14.0855574,5.33707349 L14.0855574,4.20587349 L9.50475741,4.20587349 L9.03435741,8.73067349 L10.2999574,8.85387349 C10.3970241,8.48800682 10.5631574,8.20800682 10.7983574,8.01387349 C11.0335574,7.81974016 11.3303574,7.72267349 11.6887574,7.72267349 C12.1367574,7.72267349 12.4839574,7.87574016 12.7303574,8.18187349 C12.9767574,8.48800682 13.0999574,8.90240682 13.0999574,9.42507349 C13.0999574,9.93280682 12.9730241,10.3285402 12.7191574,10.6122735 C12.4652907,10.8960068 12.1106241,11.0378735 11.6551574,11.0378735 C11.2743574,11.0378735 10.9663574,10.9314735 10.7311574,10.7186735 C10.4959574,10.5058735 10.3410241,10.2165402 10.2663574,9.85067349 L10.2663574,9.85067349 L8.88875741,10.0410735 C8.99329074,10.6906735 9.29195741,11.2058735 9.78475741,11.5866735 C10.2775574,11.9674735 10.8935574,12.1578735 11.6327574,12.1578735 Z" id="25" fill="#05032D"></path>
        </g>
    </g>
</svg>