<svg xmlns="http://www.w3.org/2000/svg" width="18" height="18" viewBox="0 0 18 18">
  <g fill="none" transform="translate(1 1)">
    <path fill="#FFF" stroke="#05032D" d="M16,8 C16,12.4183385 12.4183385,16 8,16 C3.58166154,16 0,12.4183385 0,8 C0,3.58166154 3.58166154,0 8,0 C12.4183385,0 16,3.58166154 16,8 Z"/>
    <path fill="#05032D" d="M8.4872,6.7808 C9.9544,6.7808 10.884,7.8 10.884,9.4128 C10.884,11.048 9.7864,12.168 8.1736,12.168 C6.2472,12.168 5.1944,10.7904 5.1944,8.2592 C5.1944,5.5936 6.3144,4.048 8.2408,4.048 C9.6744,4.048 10.548,4.7312 10.7832,6.0304 L9.4504,6.2768 C9.2936,5.504 8.8904,5.1344 8.2184,5.1344 C7.1544,5.1344 6.5608,6.0752 6.5272,7.8224 C6.8968,7.1616 7.5912,6.7808 8.4872,6.7808 Z M8.1624,11.0816 C9.0136,11.0816 9.54,10.4544 9.54,9.4464 C9.54,8.4608 8.9912,7.8336 8.1288,7.8336 C7.3784,7.8336 6.796,8.3264 6.5496,9.1888 C6.6616,10.3536 7.2776,11.0816 8.1624,11.0816 Z"/>
  </g>
</svg>
