<?xml version="1.0" encoding="UTF-8"?>
<svg width="18px" height="18px" viewBox="0 0 18 18" version="1.1" xmlns="http://www.w3.org/2000/svg" xmlns:xlink="http://www.w3.org/1999/xlink">
    <title>number-30</title>
    <g id="Page-1" stroke="none" stroke-width="1" fill="none" fill-rule="evenodd">
        <g id="number-30" transform="translate(0.429179, 0.536655)" fill-rule="nonzero">
            <path d="M16.2564534,8 C16.2564534,12.4183385 12.6747919,16 8.25645338,16 C3.83811492,16 0.256453376,12.4183385 0.256453376,8 C0.256453376,3.58166154 3.83811492,0 8.25645338,0 C12.6747919,0 16.2564534,3.58166154 16.2564534,8 Z" id="Path" stroke="#05032D" fill="#FFFFFF"></path>
            <path d="M4.84555741,12.1483376 C5.71915741,12.1483376 6.40982408,11.9374043 6.91755741,11.5155376 C7.42529074,11.0936709 7.67915741,10.5168709 7.67915741,9.7851376 C7.67915741,9.25500427 7.53355741,8.83127093 7.24235741,8.5139376 C6.95115741,8.19660427 6.52182408,7.9931376 5.95435741,7.9035376 C6.40982408,7.79900427 6.77009074,7.5843376 7.03515741,7.2595376 C7.30022408,6.9347376 7.43275741,6.55207093 7.43275741,6.1115376 C7.43275741,5.4619376 7.20689074,4.9523376 6.75515741,4.5827376 C6.30342408,4.2131376 5.66689074,4.0283376 4.84555741,4.0283376 C3.98689074,4.0283376 3.30742408,4.24860427 2.80715741,4.6891376 C2.30689074,5.12967093 2.05675741,5.72700427 2.05675741,6.4811376 L2.05675741,6.4811376 L3.40075741,6.7051376 C3.40075741,6.19740427 3.51835741,5.80540427 3.75355741,5.5291376 C3.98875741,5.25287093 4.32662408,5.1147376 4.76715741,5.1147376 C5.17035741,5.1147376 5.48209074,5.2155376 5.70235741,5.4171376 C5.92262408,5.6187376 6.03275741,5.90247093 6.03275741,6.2683376 C6.03275741,6.6491376 5.91702408,6.9459376 5.68555741,7.1587376 C5.45409074,7.3715376 5.11435741,7.4779376 4.66635741,7.4779376 L4.66635741,7.4779376 L4.26315741,7.4779376 L4.26315741,8.4859376 L4.69995741,8.4859376 C5.21515741,8.4859376 5.60342408,8.5923376 5.86475741,8.8051376 C6.12609074,9.0179376 6.25675741,9.32967093 6.25675741,9.7403376 C6.25675741,10.1659376 6.13915741,10.4907376 5.90395741,10.7147376 C5.66875741,10.9387376 5.32715741,11.0507376 4.87915741,11.0507376 C4.41622408,11.0507376 4.04475741,10.9182043 3.76475741,10.6531376 C3.48475741,10.3880709 3.33729074,10.0203376 3.32235741,9.5499376 L3.32235741,9.5499376 L1.95595741,9.6955376 C1.96342408,10.1883376 2.08662408,10.6195376 2.32555741,10.9891376 C2.56449074,11.3587376 2.90049074,11.6443376 3.33355741,11.8459376 C3.76662408,12.0475376 4.27062408,12.1483376 4.84555741,12.1483376 Z M11.7895574,12.1483376 C12.7975574,12.1483376 13.5778241,11.7899376 14.1303574,11.0731376 C14.6828907,10.3563376 14.9591574,9.36327093 14.9591574,8.0939376 C14.9591574,6.8171376 14.6828907,5.8203376 14.1303574,5.1035376 C13.5778241,4.3867376 12.7975574,4.0283376 11.7895574,4.0283376 C10.7815574,4.0283376 10.0031574,4.3867376 9.45435741,5.1035376 C8.90555741,5.8203376 8.63115741,6.8171376 8.63115741,8.0939376 C8.63115741,9.36327093 8.90555741,10.3563376 9.45435741,11.0731376 C10.0031574,11.7899376 10.7815574,12.1483376 11.7895574,12.1483376 Z M11.7895574,11.0507376 C11.2146241,11.0507376 10.7778241,10.7931376 10.4791574,10.2779376 C10.1804907,9.7627376 10.0311574,9.0347376 10.0311574,8.0939376 C10.0311574,7.14567093 10.1804907,6.4139376 10.4791574,5.8987376 C10.7778241,5.3835376 11.2146241,5.1259376 11.7895574,5.1259376 C12.3644907,5.1259376 12.8031574,5.3835376 13.1055574,5.8987376 C13.4079574,6.4139376 13.5591574,7.14567093 13.5591574,8.0939376 C13.5591574,9.0347376 13.4079574,9.7627376 13.1055574,10.2779376 C12.8031574,10.7931376 12.3644907,11.0507376 11.7895574,11.0507376 Z" id="30" fill="#05032D"></path>
        </g>
    </g>
</svg>