<svg xmlns="http://www.w3.org/2000/svg" width="18" height="18" viewBox="0 0 18 18">
  <g fill="none" transform="translate(1 1)">
    <path fill="#FFF" stroke="#05032D" d="M16,8 C16,12.4183385 12.4183385,16 8,16 C3.58166154,16 0,12.4183385 0,8 C0,3.58166154 3.58166154,0 8,0 C12.4183385,0 16,3.58166154 16,8 Z"/>
    <path fill="#05032D" d="M4.3544,12 L4.3544,6.2432 C4.0968,6.5568 3.5256,6.7136 3.0552,6.7136 L2.6968,6.7136 L2.6968,5.4704 L2.9208,5.4704 C3.7608,5.4592 4.3544,5.0448 4.6008,4.216 L5.7432,4.216 L5.7432,12 L4.3544,12 Z M11.7016,7.7664 C12.8328,8.1808 13.3144,8.8304 13.3144,9.8832 C13.3144,11.2608 12.1384,12.168 10.3464,12.168 C8.5432,12.168 7.3672,11.3056 7.3672,9.9728 C7.3672,8.9536 7.8712,8.3152 8.9128,8.0016 C8.0168,7.6096 7.6248,7.016 7.6248,6.1312 C7.6248,4.8768 8.7,4.048 10.3016,4.048 C11.9368,4.048 12.9896,4.8208 12.9896,6.0304 C12.9896,6.8928 12.564,7.464 11.7016,7.7664 Z M10.2904,5.0224 C9.4728,5.0224 8.9688,5.4368 8.9688,6.12 C8.9688,6.7248 9.3496,7.0832 10.2456,7.3408 L10.66,7.464 C11.388,7.1616 11.6568,6.7808 11.6568,6.176 C11.6568,5.448 11.1528,5.0224 10.2904,5.0224 Z M10.3576,11.1264 C11.332,11.1264 11.9144,10.6448 11.9144,9.8608 C11.9144,9.2112 11.5224,8.8192 10.604,8.5392 L9.9208,8.3376 C9.092,8.6624 8.7672,9.0768 8.7672,9.7824 C8.7672,10.5888 9.4056,11.1264 10.3576,11.1264 Z"/>
  </g>
</svg>
