<svg xmlns="http://www.w3.org/2000/svg" width="22" height="22" viewBox="0 0 22 22">
  <g fill="none" fill-rule="evenodd">
    <path fill="#FFF" fill-rule="nonzero" stroke="#05032D" stroke-width="1.5" d="M20,10 C20,15.5229231 15.5229231,20 10,20 C4.47707692,20 0,15.5229231 0,10 C0,4.47707692 4.47707692,0 10,0 C15.5229231,0 20,4.47707692 20,10 Z" transform="translate(1 1)"/>
    <path fill="#05032D" fill-rule="nonzero" d="M7.507,16 L7.507,14.684 C8.613,13.956 9.845,13.018 10.909,12.01 C12.015,10.974 12.407,10.19 12.407,9.126 C12.407,8.062 11.861,7.474 10.881,7.474 C9.887,7.474 9.299,8.09 9.299,9.056 C9.299,9.308 9.327,9.588 9.397,9.91 L7.661,9.742 C7.591,9.476 7.563,9.21 7.563,8.972 C7.563,7.194 8.865,6.06 10.965,6.06 C13.023,6.06 14.241,7.138 14.241,9.042 C14.241,10.386 13.611,11.534 12.253,12.766 C11.553,13.396 10.811,13.956 9.845,14.558 L14.339,14.558 L14.339,16 L7.507,16 Z"/>
  </g>
</svg>
