<svg xmlns="http://www.w3.org/2000/svg" width="18" height="18" viewBox="0 0 18 18">
  <g fill="none" transform="translate(1 1)">
    <path fill="#FFF" stroke="#05032D" d="M16,8 C16,12.4183385 12.4183385,16 8,16 C3.58166154,16 0,12.4183385 0,8 C0,3.58166154 3.58166154,0 8,0 C12.4183385,0 16,3.58166154 16,8 Z"/>
    <path fill="#05032D" d="M5.3904,12 L5.3904,6.2432 C5.1328,6.5568 4.5616,6.7136 4.0912,6.7136 L3.7328,6.7136 L3.7328,5.4704 L3.9568,5.4704 C4.7968,5.4592 5.3904,5.0448 5.6368,4.216 L6.7792,4.216 L6.7792,12 L5.3904,12 Z M10.0608,12 L10.0608,6.2432 C9.8032,6.5568 9.232,6.7136 8.7616,6.7136 L8.4032,6.7136 L8.4032,5.4704 L8.6272,5.4704 C9.4672,5.4592 10.0608,5.0448 10.3072,4.216 L11.4496,4.216 L11.4496,12 L10.0608,12 Z"/>
  </g>
</svg>
