<?xml version="1.0" encoding="UTF-8"?>
<svg width="19px" height="18px" viewBox="0 0 19 18" version="1.1" xmlns="http://www.w3.org/2000/svg" xmlns:xlink="http://www.w3.org/1999/xlink">
    <title>number-24</title>
    <g id="Page-1" stroke="none" stroke-width="1" fill="none" fill-rule="evenodd">
        <g id="number-24" transform="translate(1.028768, 0.611684)" fill-rule="nonzero">
            <path d="M16.3521909,8 C16.3521909,12.4183385 12.7705294,16 8.35219091,16 C3.93385245,16 0.352190912,12.4183385 0.352190912,8 C0.352190912,3.58166154 3.93385245,0 8.35219091,0 C12.7705294,0 16.3521909,3.58166154 16.3521909,8 Z" id="Path" stroke="#05032D" fill="#FFFFFF"></path>
            <path d="M7.76315741,11.9733596 L7.76315741,10.8197596 L4.16795741,10.8197596 C4.89222408,10.3717596 5.53435741,9.89389291 6.09435741,9.38615957 C6.63942408,8.89335957 7.04075741,8.40802624 7.29835741,7.93015957 C7.55595741,7.45229291 7.68475741,6.94455957 7.68475741,6.40695957 C7.68475741,5.64535957 7.45515741,5.05735957 6.99595741,4.64295957 C6.53675741,4.22855957 5.89275741,4.02135957 5.06395741,4.02135957 C4.22769074,4.02135957 3.56502408,4.23042624 3.07595741,4.64855957 C2.58689074,5.06669291 2.34235741,5.63415957 2.34235741,6.35095957 C2.34235741,6.56002624 2.36849074,6.76535957 2.42075741,6.96695957 L2.42075741,6.96695957 L3.80955741,7.10135957 C3.75729074,6.86242624 3.73115741,6.63469291 3.73115741,6.41815957 C3.73115741,6.02989291 3.84315741,5.72189291 4.06715741,5.49415957 C4.29115741,5.26642624 4.60102408,5.15255957 4.99675741,5.15255957 C5.39249074,5.15255957 5.69489074,5.26642624 5.90395741,5.49415957 C6.11302408,5.72189291 6.21755741,6.04855957 6.21755741,6.47415957 C6.21755741,6.89975957 6.12795741,7.28802624 5.94875741,7.63895957 C5.76955741,7.98989291 5.45969074,8.37069291 5.01915741,8.78135957 C4.22022408,9.54295957 3.31302408,10.2560262 2.29755741,10.9205596 L2.29755741,10.9205596 L2.29755741,11.9733596 L7.76315741,11.9733596 Z M13.4863574,11.9733596 L13.4863574,10.1141596 L14.7071574,10.1141596 L14.7071574,9.08375957 L13.4863574,9.08375957 L13.4863574,4.18935957 L11.9631574,4.18935957 L8.52475741,9.18455957 L8.52475741,10.1141596 L12.1423574,10.1141596 L12.1423574,11.9733596 L13.4863574,11.9733596 Z M12.1759574,9.08375957 L9.80155741,9.08375957 C9.89862408,8.98669291 9.99942408,8.86535957 10.1039574,8.71975957 C10.2084907,8.57415957 10.3204907,8.41175957 10.4399574,8.23255957 L10.4399574,8.23255957 L11.6719574,6.39575957 C11.9183574,6.02242624 12.0863574,5.72002624 12.1759574,5.48855957 L12.1759574,5.48855957 L12.1983574,5.48855957 C12.1834241,5.71255957 12.1759574,6.05602624 12.1759574,6.51895957 L12.1759574,6.51895957 L12.1759574,9.08375957 Z" id="24" fill="#05032D"></path>
        </g>
    </g>
</svg>