<?xml version="1.0" encoding="UTF-8"?>
<svg width="18px" height="18px" viewBox="0 0 18 18" version="1.1" xmlns="http://www.w3.org/2000/svg" xmlns:xlink="http://www.w3.org/1999/xlink">
    <title>number-26</title>
    <g id="Page-1" stroke="none" stroke-width="1" fill="none" fill-rule="evenodd">
        <g id="number-26" transform="translate(0.395823, 1.036655)" fill-rule="nonzero">
            <path d="M16.2898097,8 C16.2898097,12.4183385 12.7081482,16 8.28980967,16 C3.87147121,16 0.28980967,12.4183385 0.28980967,8 C0.28980967,3.58166154 3.87147121,0 8.28980967,0 C12.7081482,0 16.2898097,3.58166154 16.2898097,8 Z" id="Path" stroke="#05032D" fill="#FFFFFF"></path>
            <path d="M7.90315741,11.9898735 L7.90315741,10.8362735 L4.30795741,10.8362735 C5.03222408,10.3882735 5.67435741,9.91040682 6.23435741,9.40267349 C6.77942408,8.90987349 7.18075741,8.42454016 7.43835741,7.94667349 C7.69595741,7.46880682 7.82475741,6.96107349 7.82475741,6.42347349 C7.82475741,5.66187349 7.59515741,5.07387349 7.13595741,4.65947349 C6.67675741,4.24507349 6.03275741,4.03787349 5.20395741,4.03787349 C4.36769074,4.03787349 3.70502408,4.24694016 3.21595741,4.66507349 C2.72689074,5.08320682 2.48235741,5.65067349 2.48235741,6.36747349 C2.48235741,6.57654016 2.50849074,6.78187349 2.56075741,6.98347349 L2.56075741,6.98347349 L3.94955741,7.11787349 C3.89729074,6.87894016 3.87115741,6.65120682 3.87115741,6.43467349 C3.87115741,6.04640682 3.98315741,5.73840682 4.20715741,5.51067349 C4.43115741,5.28294016 4.74102408,5.16907349 5.13675741,5.16907349 C5.53249074,5.16907349 5.83489074,5.28294016 6.04395741,5.51067349 C6.25302408,5.73840682 6.35755741,6.06507349 6.35755741,6.49067349 C6.35755741,6.91627349 6.26795741,7.30454016 6.08875741,7.65547349 C5.90955741,8.00640682 5.59969074,8.38720682 5.15915741,8.79787349 C4.36022408,9.55947349 3.45302408,10.2725402 2.43755741,10.9370735 L2.43755741,10.9370735 L2.43755741,11.9898735 L7.90315741,11.9898735 Z M11.8455574,12.1578735 C12.3756907,12.1578735 12.8460907,12.0421402 13.2567574,11.8106735 C13.6674241,11.5792068 13.9866241,11.2544068 14.2143574,10.8362735 C14.4420907,10.4181402 14.5559574,9.94027349 14.5559574,9.40267349 C14.5559574,8.59627349 14.3394241,7.95600682 13.9063574,7.48187349 C13.4732907,7.00774016 12.8908907,6.77067349 12.1591574,6.77067349 C11.7111574,6.77067349 11.3191574,6.86027349 10.9831574,7.03947349 C10.6471574,7.21867349 10.3858241,7.47627349 10.1991574,7.81227349 C10.2140907,6.93867349 10.3671574,6.27227349 10.6583574,5.81307349 C10.9495574,5.35387349 11.3602241,5.12427349 11.8903574,5.12427349 C12.5548907,5.12427349 12.9655574,5.50507349 13.1223574,6.26667349 L13.1223574,6.26667349 L14.4551574,6.02027349 C14.3356907,5.37067349 14.0612907,4.87787349 13.6319574,4.54187349 C13.2026241,4.20587349 12.6295574,4.03787349 11.9127574,4.03787349 C10.9495574,4.03787349 10.2010241,4.40747349 9.66715741,5.14667349 C9.13329074,5.88587349 8.86635741,6.92000682 8.86635741,8.24907349 C8.86635741,9.51094016 9.12209074,10.4778735 9.63355741,11.1498735 C10.1450241,11.8218735 10.8823574,12.1578735 11.8455574,12.1578735 Z M11.8343574,11.0714735 C11.3938241,11.0714735 11.0298241,10.9016068 10.7423574,10.5618735 C10.4548907,10.2221402 10.2812907,9.76107349 10.2215574,9.17867349 C10.3410241,8.74560682 10.5407574,8.41147349 10.8207574,8.17627349 C11.1007574,7.94107349 11.4274241,7.82347349 11.8007574,7.82347349 C12.2338241,7.82347349 12.5772907,7.96907349 12.8311574,8.26027349 C13.0850241,8.55147349 13.2119574,8.94347349 13.2119574,9.43627349 C13.2119574,9.94400682 13.0887574,10.3434735 12.8423574,10.6346735 C12.5959574,10.9258735 12.2599574,11.0714735 11.8343574,11.0714735 Z" id="26" fill="#05032D"></path>
        </g>
    </g>
</svg>