<svg xmlns="http://www.w3.org/2000/svg" width="18" height="18" viewBox="0 0 18 18">
  <g fill="none" transform="translate(1 1)">
    <path fill="#FFF" stroke="#05032D" d="M16,8 C16,12.4183385 12.4183385,16 8,16 C3.58166154,16 0,12.4183385 0,8 C0,3.58166154 3.58166154,0 8,0 C12.4183385,0 16,3.58166154 16,8 Z"/>
    <path fill="#05032D" d="M4.4384,12 L4.4384,6.2432 C4.1808,6.5568 3.6096,6.7136 3.1392,6.7136 L2.7808,6.7136 L2.7808,5.4704 L3.0048,5.4704 C3.8448,5.4592 4.4384,5.0448 4.6848,4.216 L5.8272,4.216 L5.8272,12 L4.4384,12 Z M10.8224,6.7808 C12.2896,6.7808 13.2192,7.8 13.2192,9.4128 C13.2192,11.048 12.1216,12.168 10.5088,12.168 C8.5824,12.168 7.5296,10.7904 7.5296,8.2592 C7.5296,5.5936 8.6496,4.048 10.576,4.048 C12.0096,4.048 12.8832,4.7312 13.1184,6.0304 L11.7856,6.2768 C11.6288,5.504 11.2256,5.1344 10.5536,5.1344 C9.4896,5.1344 8.896,6.0752 8.8624,7.8224 C9.232,7.1616 9.9264,6.7808 10.8224,6.7808 Z M10.4976,11.0816 C11.3488,11.0816 11.8752,10.4544 11.8752,9.4464 C11.8752,8.4608 11.3264,7.8336 10.464,7.8336 C9.7136,7.8336 9.1312,8.3264 8.8848,9.1888 C8.9968,10.3536 9.6128,11.0816 10.4976,11.0816 Z"/>
  </g>
</svg>
