<svg xmlns="http://www.w3.org/2000/svg" width="22" height="22" viewBox="0 0 22 22">
  <g fill="none" fill-rule="evenodd">
    <path fill="#FFF" fill-rule="nonzero" stroke="#05032D" stroke-width="1.5" d="M20,10 C20,15.5229231 15.5229231,20 10,20 C4.47707692,20 0,15.5229231 0,10 C0,4.47707692 4.47707692,0 10,0 C15.5229231,0 20,4.47707692 20,10 Z" transform="translate(1 1)"/>
    <path fill="#05032D" fill-rule="nonzero" d="M11.609,9.476 C13.443,9.476 14.605,10.75 14.605,12.766 C14.605,14.81 13.233,16.21 11.217,16.21 C8.809,16.21 7.493,14.488 7.493,11.324 C7.493,7.992 8.893,6.06 11.301,6.06 C13.093,6.06 14.185,6.914 14.479,8.538 L12.813,8.846 C12.617,7.88 12.113,7.418 11.273,7.418 C9.943,7.418 9.201,8.594 9.159,10.778 C9.621,9.952 10.489,9.476 11.609,9.476 Z M11.203,14.852 C12.267,14.852 12.925,14.068 12.925,12.808 C12.925,11.576 12.239,10.792 11.161,10.792 C10.223,10.792 9.495,11.408 9.187,12.486 C9.327,13.942 10.097,14.852 11.203,14.852 Z"/>
  </g>
</svg>
