<svg xmlns="http://www.w3.org/2000/svg" width="18" height="18" viewBox="0 0 18 18">
  <g fill="none" transform="translate(1 1)">
    <path fill="#FFF" stroke="#05032D" d="M16,8 C16,12.4183385 12.4183385,16 8,16 C3.58166154,16 0,12.4183385 0,8 C0,3.58166154 3.58166154,0 8,0 C12.4183385,0 16,3.58166154 16,8 Z"/>
    <path fill="#05032D" d="M4.5728,12 L4.5728,6.2432 C4.3152,6.5568 3.744,6.7136 3.2736,6.7136 L2.9152,6.7136 L2.9152,5.4704 L3.1392,5.4704 C3.9792,5.4592 4.5728,5.0448 4.8192,4.216 L5.9616,4.216 L5.9616,12 L4.5728,12 Z M7.5408,12 L7.5408,10.9472 C8.4256,10.3648 9.4112,9.6144 10.2624,8.808 C11.1472,7.9792 11.4608,7.352 11.4608,6.5008 C11.4608,5.6496 11.024,5.1792 10.24,5.1792 C9.4448,5.1792 8.9744,5.672 8.9744,6.4448 C8.9744,6.6464 8.9968,6.8704 9.0528,7.128 L7.664,6.9936 C7.608,6.7808 7.5856,6.568 7.5856,6.3776 C7.5856,4.9552 8.6272,4.048 10.3072,4.048 C11.9536,4.048 12.928,4.9104 12.928,6.4336 C12.928,7.5088 12.424,8.4272 11.3376,9.4128 C10.7776,9.9168 10.184,10.3648 9.4112,10.8464 L13.0064,10.8464 L13.0064,12 L7.5408,12 Z"/>
  </g>
</svg>
