<?xml version="1.0" encoding="UTF-8"?>
<svg width="18px" height="18px" viewBox="0 0 18 18" version="1.1" xmlns="http://www.w3.org/2000/svg" xmlns:xlink="http://www.w3.org/1999/xlink">
    <title>number-21</title>
    <g id="Page-1" stroke="none" stroke-width="1" fill="none" fill-rule="evenodd">
        <g id="number-21" transform="translate(0.264678, 0.611684)" fill-rule="nonzero">
            <path d="M16.516281,8 C16.516281,12.4183385 12.9346195,16 8.51628101,16 C4.09794255,16 0.516281006,12.4183385 0.516281006,8 C0.516281006,3.58166154 4.09794255,0 8.51628101,0 C12.9346195,0 16.516281,3.58166154 16.516281,8 Z" id="Path" stroke="#05032D" fill="#FFFFFF"></path>
            <path d="M8.85515741,11.9733596 L8.85515741,10.8197596 L5.25995741,10.8197596 C5.98422408,10.3717596 6.62635741,9.89389291 7.18635741,9.38615957 C7.73142408,8.89335957 8.13275741,8.40802624 8.39035741,7.93015957 C8.64795741,7.45229291 8.77675741,6.94455957 8.77675741,6.40695957 C8.77675741,5.64535957 8.54715741,5.05735957 8.08795741,4.64295957 C7.62875741,4.22855957 6.98475741,4.02135957 6.15595741,4.02135957 C5.31969074,4.02135957 4.65702408,4.23042624 4.16795741,4.64855957 C3.67889074,5.06669291 3.43435741,5.63415957 3.43435741,6.35095957 C3.43435741,6.56002624 3.46049074,6.76535957 3.51275741,6.96695957 L3.51275741,6.96695957 L4.90155741,7.10135957 C4.84929074,6.86242624 4.82315741,6.63469291 4.82315741,6.41815957 C4.82315741,6.02989291 4.93515741,5.72189291 5.15915741,5.49415957 C5.38315741,5.26642624 5.69302408,5.15255957 6.08875741,5.15255957 C6.48449074,5.15255957 6.78689074,5.26642624 6.99595741,5.49415957 C7.20502408,5.72189291 7.30955741,6.04855957 7.30955741,6.47415957 C7.30955741,6.89975957 7.21995741,7.28802624 7.04075741,7.63895957 C6.86155741,7.98989291 6.55169074,8.37069291 6.11115741,8.78135957 C5.31222408,9.54295957 4.40502408,10.2560262 3.38955741,10.9205596 L3.38955741,10.9205596 L3.38955741,11.9733596 L8.85515741,11.9733596 Z M12.7863574,11.9733596 L12.7863574,4.18935957 L11.6439574,4.18935957 C11.5244907,4.60002624 11.3210241,4.90989291 11.0335574,5.11895957 C10.7460907,5.32802624 10.3895574,5.43629291 9.96395741,5.44375957 L9.96395741,5.44375957 L9.73995741,5.44375957 L9.73995741,6.68695957 L10.0983574,6.68695957 C10.3522241,6.68695957 10.6023574,6.64589291 10.8487574,6.56375957 C11.0951574,6.48162624 11.2780907,6.36589291 11.3975574,6.21655957 L11.3975574,6.21655957 L11.3975574,11.9733596 L12.7863574,11.9733596 Z" id="21" fill="#05032D"></path>
        </g>
    </g>
</svg>