<svg xmlns="http://www.w3.org/2000/svg" width="22" height="22" viewBox="0 0 22 22">
  <g fill="none" fill-rule="evenodd">
    <path fill="#FFF" fill-rule="nonzero" stroke="#05032D" stroke-width="1.5" d="M20,10 C20,15.5229231 15.5229231,20 10,20 C4.47707692,20 0,15.5229231 0,10 C0,4.47707692 4.47707692,0 10,0 C15.5229231,0 20,4.47707692 20,10 Z" transform="translate(1 1)"/>
    <path fill="#05032D" fill-rule="nonzero" d="M10.832,6.06 C13.282,6.06 14.528,7.726 14.528,10.96 C14.528,14.054 13.436,16.21 10.832,16.21 C8.97,16.21 7.808,15.3 7.514,13.634 L9.18,13.312 C9.362,14.236 9.866,14.838 10.888,14.838 C12.26,14.838 12.834,13.452 12.848,11.282 C12.386,12.08 11.546,12.458 10.566,12.458 C8.704,12.458 7.388,11.296 7.388,9.308 C7.388,7.432 8.718,6.06 10.832,6.06 Z M10.832,11.128 C11.742,11.128 12.568,10.484 12.834,9.588 C12.736,8.482 12.232,7.39 10.846,7.39 C9.768,7.39 9.054,8.146 9.054,9.28 C9.054,10.4 9.796,11.128 10.832,11.128 Z"/>
  </g>
</svg>
