<svg xmlns="http://www.w3.org/2000/svg" width="18" height="18" viewBox="0 0 18 18">
  <g fill="none" transform="translate(1 1)">
    <path fill="#FFF" stroke="#05032D" d="M16,8 C16,12.4183385 12.4183385,16 8,16 C3.58166154,16 0,12.4183385 0,8 C0,3.58166154 3.58166154,0 8,0 C12.4183385,0 16,3.58166154 16,8 Z"/>
    <path fill="#05032D" d="M4.2984,12 L4.2984,6.2432 C4.0408,6.5568 3.4696,6.7136 2.9992,6.7136 L2.6408,6.7136 L2.6408,5.4704 L2.8648,5.4704 C3.7048,5.4592 4.2984,5.0448 4.5448,4.216 L5.6872,4.216 L5.6872,12 L4.2984,12 Z M13.3704,10.1408 L12.1496,10.1408 L12.1496,12 L10.8056,12 L10.8056,10.1408 L7.188,10.1408 L7.188,9.2112 L10.6264,4.216 L12.1496,4.216 L12.1496,9.1104 L13.3704,9.1104 L13.3704,10.1408 Z M10.8392,6.5456 C10.8392,6.0192 10.8392,5.8512 10.8616,5.5152 L10.8392,5.5152 C10.716,5.8288 10.5704,6.064 10.3352,6.4224 L9.1032,8.2592 C8.8344,8.6512 8.6776,8.8864 8.4648,9.1104 L10.8392,9.1104 L10.8392,6.5456 Z"/>
  </g>
</svg>
