<?xml version="1.0" encoding="UTF-8"?>
<svg width="18px" height="18px" viewBox="0 0 18 18" version="1.1" xmlns="http://www.w3.org/2000/svg" xmlns:xlink="http://www.w3.org/1999/xlink">
    <title>number-29</title>
    <g id="Page-1" stroke="none" stroke-width="1" fill="none" fill-rule="evenodd">
        <g id="number-29" transform="translate(0.264678, 0.536655)" fill-rule="nonzero">
            <path d="M16.516281,8 C16.516281,12.4183385 12.9346195,16 8.51628101,16 C4.09794255,16 0.516281006,12.4183385 0.516281006,8 C0.516281006,3.58166154 4.09794255,0 8.51628101,0 C12.9346195,0 16.516281,3.58166154 16.516281,8 Z" id="Path" stroke="#05032D" fill="#FFFFFF"></path>
            <path d="M7.89755741,11.9803376 L7.89755741,10.8267376 L4.30235741,10.8267376 C5.02662408,10.3787376 5.66875741,9.90087093 6.22875741,9.3931376 C6.77382408,8.9003376 7.17515741,8.41500427 7.43275741,7.9371376 C7.69035741,7.45927093 7.81915741,6.9515376 7.81915741,6.4139376 C7.81915741,5.6523376 7.58955741,5.0643376 7.13035741,4.6499376 C6.67115741,4.2355376 6.02715741,4.0283376 5.19835741,4.0283376 C4.36209074,4.0283376 3.69942408,4.23740427 3.21035741,4.6555376 C2.72129074,5.07367093 2.47675741,5.6411376 2.47675741,6.3579376 C2.47675741,6.56700427 2.50289074,6.7723376 2.55515741,6.9739376 L2.55515741,6.9739376 L3.94395741,7.1083376 C3.89169074,6.86940427 3.86555741,6.64167093 3.86555741,6.4251376 C3.86555741,6.03687093 3.97755741,5.72887093 4.20155741,5.5011376 C4.42555741,5.27340427 4.73542408,5.1595376 5.13115741,5.1595376 C5.52689074,5.1595376 5.82929074,5.27340427 6.03835741,5.5011376 C6.24742408,5.72887093 6.35195741,6.0555376 6.35195741,6.4811376 C6.35195741,6.9067376 6.26235741,7.29500427 6.08315741,7.6459376 C5.90395741,7.99687093 5.59409074,8.37767093 5.15355741,8.7883376 C4.35462408,9.5499376 3.44742408,10.2630043 2.43195741,10.9275376 L2.43195741,10.9275376 L2.43195741,11.9803376 L7.89755741,11.9803376 Z M11.5375574,12.1483376 C12.5380907,12.1483376 13.2810241,11.7731376 13.7663574,11.0227376 C14.2516907,10.2723376 14.4943574,9.2475376 14.4943574,7.9483376 C14.4943574,6.65660427 14.2460907,5.6803376 13.7495574,5.0195376 C13.2530241,4.3587376 12.5156907,4.0283376 11.5375574,4.0283376 C10.9850241,4.0283376 10.4996907,4.1403376 10.0815574,4.3643376 C9.66342408,4.5883376 9.34235741,4.8963376 9.11835741,5.2883376 C8.89435741,5.6803376 8.78235741,6.12647093 8.78235741,6.6267376 C8.78235741,7.14940427 8.89062408,7.59927093 9.10715741,7.9763376 C9.32369074,8.35340427 9.62235741,8.6427376 10.0031574,8.8443376 C10.3839574,9.0459376 10.8244907,9.1467376 11.3247574,9.1467376 C11.7279574,9.1467376 12.0882241,9.0683376 12.4055574,8.9115376 C12.7228907,8.7547376 12.9711574,8.5195376 13.1503574,8.2059376 C13.1428907,9.10940427 13.0122241,9.80940427 12.7583574,10.3059376 C12.5044907,10.8024709 12.1124907,11.0507376 11.5823574,11.0507376 C10.8282241,11.0507376 10.3727574,10.6438043 10.2159574,9.8299376 L10.2159574,9.8299376 L8.88315741,10.0875376 C9.00262408,10.7520709 9.28822408,11.2616709 9.73995741,11.6163376 C10.1916907,11.9710043 10.7908907,12.1483376 11.5375574,12.1483376 Z M11.5375574,8.0827376 C11.1194241,8.0827376 10.7778241,7.94647093 10.5127574,7.6739376 C10.2476907,7.40140427 10.1151574,7.04487093 10.1151574,6.6043376 C10.1151574,6.14887093 10.2458241,5.78300427 10.5071574,5.5067376 C10.7684907,5.23047093 11.1156907,5.0923376 11.5487574,5.0923376 C12.0564907,5.0923376 12.4372907,5.25847093 12.6911574,5.5907376 C12.9450241,5.92300427 13.0943574,6.34300427 13.1391574,6.8507376 C13.0346241,7.2091376 12.8330241,7.50407093 12.5343574,7.7355376 C12.2356907,7.96700427 11.9034241,8.0827376 11.5375574,8.0827376 Z" id="29" fill="#05032D"></path>
        </g>
    </g>
</svg>