<svg xmlns="http://www.w3.org/2000/svg" width="22" height="22" viewBox="0 0 22 22">
  <g fill="none" fill-rule="evenodd">
    <path fill="#FFF" fill-rule="nonzero" stroke="#05032D" stroke-width="1.5" d="M20,10 C20,15.5229231 15.5229231,20 10,20 C4.47707692,20 0,15.5229231 0,10 C0,4.47707692 4.47707692,0 10,0 C15.5229231,0 20,4.47707692 20,10 Z" transform="translate(1 1)"/>
    <path fill="#05032D" fill-rule="nonzero" d="M10.958,16.21 C8.788,16.21 7.374,15.02 7.346,13.144 L9.054,12.962 C9.096,14.138 9.838,14.838 11,14.838 C12.12,14.838 12.722,14.264 12.722,13.2 C12.722,12.178 12.078,11.632 10.776,11.632 L10.23,11.632 L10.23,10.372 L10.734,10.372 C11.882,10.372 12.442,9.798 12.442,8.86 C12.442,7.95 11.868,7.418 10.86,7.418 C9.768,7.418 9.152,8.132 9.152,9.406 L7.472,9.126 C7.472,7.236 8.816,6.06 10.958,6.06 C13.016,6.06 14.192,7.04 14.192,8.664 C14.192,9.77 13.478,10.638 12.344,10.904 C13.744,11.128 14.5,11.912 14.5,13.256 C14.5,15.09 13.128,16.21 10.958,16.21 Z"/>
  </g>
</svg>
