<svg xmlns="http://www.w3.org/2000/svg" width="22" height="22" viewBox="0 0 22 22">
  <g fill="none" fill-rule="evenodd">
    <path fill="#FFF" fill-rule="nonzero" stroke="#05032D" stroke-width="1.5" d="M20,10 C20,15.5229231 15.5229231,20 10,20 C4.47707692,20 0,15.5229231 0,10 C0,4.47707692 4.47707692,0 10,0 C15.5229231,0 20,4.47707692 20,10 Z" transform="translate(1 1)"/>
    <path fill="#05032D" fill-rule="nonzero" d="M10.951,16.21 C9.089,16.21 7.787,15.188 7.521,13.564 L9.243,13.326 C9.425,14.194 9.999,14.81 10.979,14.81 C12.113,14.81 12.785,14.054 12.785,12.794 C12.785,11.52 12.169,10.666 11.021,10.666 C10.111,10.666 9.523,11.184 9.285,12.08 L7.703,11.926 L8.291,6.27 L14.017,6.27 L14.017,7.684 L9.565,7.684 L9.243,10.484 C9.705,9.742 10.461,9.35 11.483,9.35 C13.359,9.35 14.507,10.638 14.507,12.724 C14.507,14.824 13.135,16.21 10.951,16.21 Z"/>
  </g>
</svg>
