<svg xmlns="http://www.w3.org/2000/svg" width="18" height="18" viewBox="0 0 18 18">
  <g fill="none" transform="translate(1 1)">
    <path fill="#FFF" stroke="#05032D" d="M16,8 C16,12.4183385 12.4183385,16 8,16 C3.58166154,16 0,12.4183385 0,8 C0,3.58166154 3.58166154,0 8,0 C12.4183385,0 16,3.58166154 16,8 Z"/>
    <path fill="#05032D" d="M4.4328,12 L4.4328,6.2432 C4.1752,6.5568 3.604,6.7136 3.1336,6.7136 L2.7752,6.7136 L2.7752,5.4704 L2.9992,5.4704 C3.8392,5.4592 4.4328,5.0448 4.6792,4.216 L5.8216,4.216 L5.8216,12 L4.4328,12 Z M10.2008,4.048 C12.1608,4.048 13.1576,5.3808 13.1576,7.968 C13.1576,10.4432 12.284,12.168 10.2008,12.168 C8.7112,12.168 7.7816,11.44 7.5464,10.1072 L8.8792,9.8496 C9.0248,10.5888 9.428,11.0704 10.2456,11.0704 C11.3432,11.0704 11.8024,9.9616 11.8136,8.2256 C11.444,8.864 10.772,9.1664 9.988,9.1664 C8.4984,9.1664 7.4456,8.2368 7.4456,6.6464 C7.4456,5.1456 8.5096,4.048 10.2008,4.048 Z M10.2008,8.1024 C10.9288,8.1024 11.5896,7.5872 11.8024,6.8704 C11.724,5.9856 11.3208,5.112 10.212,5.112 C9.3496,5.112 8.7784,5.7168 8.7784,6.624 C8.7784,7.52 9.372,8.1024 10.2008,8.1024 Z"/>
  </g>
</svg>
