<?xml version="1.0" encoding="UTF-8"?>
<svg width="18px" height="18px" viewBox="0 0 18 18" version="1.1" xmlns="http://www.w3.org/2000/svg" xmlns:xlink="http://www.w3.org/1999/xlink">
    <title>number-27</title>
    <g id="Page-1" stroke="none" stroke-width="1" fill="none" fill-rule="evenodd">
        <g id="number-27" transform="translate(0.759437, 1.036655)" fill-rule="nonzero">
            <path d="M16.516281,8 C16.516281,12.4183385 12.9346195,16 8.51628101,16 C4.09794255,16 0.516281006,12.4183385 0.516281006,8 C0.516281006,3.58166154 4.09794255,0 8.51628101,0 C12.9346195,0 16.516281,3.58166154 16.516281,8 Z" id="Path" stroke="#05032D" fill="#FFFFFF"></path>
            <path d="M8.32315741,11.9898735 L8.32315741,10.8362735 L4.72795741,10.8362735 C5.45222408,10.3882735 6.09435741,9.91040682 6.65435741,9.40267349 C7.19942408,8.90987349 7.60075741,8.42454016 7.85835741,7.94667349 C8.11595741,7.46880682 8.24475741,6.96107349 8.24475741,6.42347349 C8.24475741,5.66187349 8.01515741,5.07387349 7.55595741,4.65947349 C7.09675741,4.24507349 6.45275741,4.03787349 5.62395741,4.03787349 C4.78769074,4.03787349 4.12502408,4.24694016 3.63595741,4.66507349 C3.14689074,5.08320682 2.90235741,5.65067349 2.90235741,6.36747349 C2.90235741,6.57654016 2.92849074,6.78187349 2.98075741,6.98347349 L2.98075741,6.98347349 L4.36955741,7.11787349 C4.31729074,6.87894016 4.29115741,6.65120682 4.29115741,6.43467349 C4.29115741,6.04640682 4.40315741,5.73840682 4.62715741,5.51067349 C4.85115741,5.28294016 5.16102408,5.16907349 5.55675741,5.16907349 C5.95249074,5.16907349 6.25489074,5.28294016 6.46395741,5.51067349 C6.67302408,5.73840682 6.77755741,6.06507349 6.77755741,6.49067349 C6.77755741,6.91627349 6.68795741,7.30454016 6.50875741,7.65547349 C6.32955741,8.00640682 6.01969074,8.38720682 5.57915741,8.79787349 C4.78022408,9.55947349 3.87302408,10.2725402 2.85755741,10.9370735 L2.85755741,10.9370735 L2.85755741,11.9898735 L8.32315741,11.9898735 Z M11.7055574,11.9898735 L11.7055574,11.7546735 C11.7055574,10.5749402 11.9295574,9.43627349 12.3775574,8.33867349 C12.8255574,7.24107349 13.4900907,6.21814016 14.3711574,5.26987349 L14.3711574,5.26987349 L14.3711574,4.20587349 L9.07355741,4.20587349 L9.07355741,5.40427349 L12.9263574,5.40427349 C12.0527574,6.41227349 11.3788907,7.46320682 10.9047574,8.55707349 C10.4306241,9.65094016 10.1935574,10.7541402 10.1935574,11.8666735 L10.1935574,11.8666735 L10.1935574,11.9898735 L11.7055574,11.9898735 Z" id="27" fill="#05032D"></path>
        </g>
    </g>
</svg>