<svg xmlns="http://www.w3.org/2000/svg" width="18" height="18" viewBox="0 0 18 18">
  <g fill="none" transform="translate(1 1)">
    <path fill="#FFF" stroke="#05032D" d="M16,8 C16,12.4183385 12.4183385,16 8,16 C3.58166154,16 0,12.4183385 0,8 C0,3.58166154 3.58166154,0 8,0 C12.4183385,0 16,3.58166154 16,8 Z"/>
    <path fill="#05032D" d="M4.8584,12 L4.8584,6.2432 C4.6008,6.5568 4.0296,6.7136 3.5592,6.7136 L3.2008,6.7136 L3.2008,5.4704 L3.4248,5.4704 C4.2648,5.4592 4.8584,5.0448 5.1048,4.216 L6.2472,4.216 L6.2472,12 L4.8584,12 Z M8.8568,12 L8.8568,11.8768 C8.8568,9.6032 9.876,7.3856 11.5896,5.4144 L7.7368,5.4144 L7.7368,4.216 L13.0344,4.216 L13.0344,5.28 C11.276,7.184 10.3688,9.4016 10.3688,11.7648 L10.3688,12 L8.8568,12 Z"/>
  </g>
</svg>
