<svg xmlns="http://www.w3.org/2000/svg" width="22" height="22" viewBox="0 0 22 22">
  <g fill="none" fill-rule="evenodd">
    <path fill="#FFF" fill-rule="nonzero" stroke="#05032D" stroke-width="1.5" d="M20,10 C20,15.5229231 15.5229231,20 10,20 C4.47707692,20 0,15.5229231 0,10 C0,4.47707692 4.47707692,0 10,0 C15.5229231,0 20,4.47707692 20,10 Z" transform="translate(1 1)"/>
    <path fill="#05032D" fill-rule="nonzero" d="M3.534,16 L3.534,14.684 C4.64,13.956 5.872,13.018 6.936,12.01 C8.042,10.974 8.434,10.19 8.434,9.126 C8.434,8.062 7.888,7.474 6.908,7.474 C5.914,7.474 5.326,8.09 5.326,9.056 C5.326,9.308 5.354,9.588 5.424,9.91 L3.688,9.742 C3.618,9.476 3.59,9.21 3.59,8.972 C3.59,7.194 4.892,6.06 6.992,6.06 C9.05,6.06 10.268,7.138 10.268,9.042 C10.268,10.386 9.638,11.534 8.28,12.766 C7.58,13.396 6.838,13.956 5.872,14.558 L10.366,14.558 L10.366,16 L3.534,16 Z M15.364,16.21 C12.816,16.21 11.416,14.292 11.416,11.142 C11.416,7.978 12.816,6.06 15.364,6.06 C17.912,6.06 19.326,7.978 19.326,11.142 C19.326,14.292 17.912,16.21 15.364,16.21 Z M15.364,14.838 C16.82,14.838 17.576,13.466 17.576,11.142 C17.576,8.804 16.82,7.432 15.364,7.432 C13.908,7.432 13.166,8.804 13.166,11.142 C13.166,13.466 13.908,14.838 15.364,14.838 Z"/>
  </g>
</svg>
