<svg xmlns="http://www.w3.org/2000/svg" width="22" height="22" viewBox="0 0 22 22">
  <g fill="none" fill-rule="evenodd">
    <path fill="#FFF" fill-rule="nonzero" stroke="#05032D" stroke-width="1.5" d="M20,10 C20,15.5229231 15.5229231,20 10,20 C4.47707692,20 0,15.5229231 0,10 C0,4.47707692 4.47707692,0 10,0 C15.5229231,0 20,4.47707692 20,10 Z" transform="translate(1 1)"/>
    <path fill="#05032D" fill-rule="nonzero" d="M7.738,16 L7.738,8.804 C7.416,9.196 6.702,9.392 6.114,9.392 L5.666,9.392 L5.666,7.838 L5.946,7.838 C6.996,7.824 7.738,7.306 8.046,6.27 L9.474,6.27 L9.474,16 L7.738,16 Z M13.576,16 L13.576,8.804 C13.254,9.196 12.54,9.392 11.952,9.392 L11.504,9.392 L11.504,7.838 L11.784,7.838 C12.834,7.824 13.576,7.306 13.884,6.27 L15.312,6.27 L15.312,16 L13.576,16 Z"/>
  </g>
</svg>
