<svg xmlns="http://www.w3.org/2000/svg" width="22" height="22" viewBox="0 0 22 22">
  <g fill="none" fill-rule="evenodd">
    <path fill="#FFF" fill-rule="nonzero" stroke="#05032D" stroke-width="1.5" d="M20,10 C20,15.5229231 15.5229231,20 10,20 C4.47707692,20 0,15.5229231 0,10 C0,4.47707692 4.47707692,0 10,0 C15.5229231,0 20,4.47707692 20,10 Z" transform="translate(1 1)"/>
    <path fill="#05032D" fill-rule="nonzero" d="M6.373,16 L6.373,8.804 C6.051,9.196 5.337,9.392 4.749,9.392 L4.301,9.392 L4.301,7.838 L4.581,7.838 C5.631,7.824 6.373,7.306 6.681,6.27 L8.109,6.27 L8.109,16 L6.373,16 Z M17.713,13.676 L16.187,13.676 L16.187,16 L14.507,16 L14.507,13.676 L9.985,13.676 L9.985,12.514 L14.283,6.27 L16.187,6.27 L16.187,12.388 L17.713,12.388 L17.713,13.676 Z M14.549,9.182 C14.549,8.524 14.549,8.314 14.577,7.894 L14.549,7.894 C14.395,8.286 14.213,8.58 13.919,9.028 L12.379,11.324 C12.043,11.814 11.847,12.108 11.581,12.388 L14.549,12.388 L14.549,9.182 Z"/>
  </g>
</svg>
