<?xml version="1.0" encoding="UTF-8"?>
<svg width="18px" height="18px" viewBox="0 0 18 18" version="1.1" xmlns="http://www.w3.org/2000/svg" xmlns:xlink="http://www.w3.org/1999/xlink">
    <title>number-22</title>
    <g id="Page-1" stroke="none" stroke-width="1" fill="none" fill-rule="evenodd">
        <g id="number-22" transform="translate(0.169351, 0.611684)" fill-rule="nonzero">
            <path d="M16.516281,8 C16.516281,12.4183385 12.9346195,16 8.51628101,16 C4.09794255,16 0.516281006,12.4183385 0.516281006,8 C0.516281006,3.58166154 4.09794255,0 8.51628101,0 C12.9346195,0 16.516281,3.58166154 16.516281,8 Z" id="Path" stroke="#05032D" fill="#FFFFFF"></path>
            <path d="M8.03755741,11.9733596 L8.03755741,10.8197596 L4.44235741,10.8197596 C5.16662408,10.3717596 5.80875741,9.89389291 6.36875741,9.38615957 C6.91382408,8.89335957 7.31515741,8.40802624 7.57275741,7.93015957 C7.83035741,7.45229291 7.95915741,6.94455957 7.95915741,6.40695957 C7.95915741,5.64535957 7.72955741,5.05735957 7.27035741,4.64295957 C6.81115741,4.22855957 6.16715741,4.02135957 5.33835741,4.02135957 C4.50209074,4.02135957 3.83942408,4.23042624 3.35035741,4.64855957 C2.86129074,5.06669291 2.61675741,5.63415957 2.61675741,6.35095957 C2.61675741,6.56002624 2.64289074,6.76535957 2.69515741,6.96695957 L2.69515741,6.96695957 L4.08395741,7.10135957 C4.03169074,6.86242624 4.00555741,6.63469291 4.00555741,6.41815957 C4.00555741,6.02989291 4.11755741,5.72189291 4.34155741,5.49415957 C4.56555741,5.26642624 4.87542408,5.15255957 5.27115741,5.15255957 C5.66689074,5.15255957 5.96929074,5.26642624 6.17835741,5.49415957 C6.38742408,5.72189291 6.49195741,6.04855957 6.49195741,6.47415957 C6.49195741,6.89975957 6.40235741,7.28802624 6.22315741,7.63895957 C6.04395741,7.98989291 5.73409074,8.37069291 5.29355741,8.78135957 C4.49462408,9.54295957 3.58742408,10.2560262 2.57195741,10.9205596 L2.57195741,10.9205596 L2.57195741,11.9733596 L8.03755741,11.9733596 Z M14.3431574,11.9733596 L14.3431574,10.8197596 L10.7479574,10.8197596 C11.4722241,10.3717596 12.1143574,9.89389291 12.6743574,9.38615957 C13.2194241,8.89335957 13.6207574,8.40802624 13.8783574,7.93015957 C14.1359574,7.45229291 14.2647574,6.94455957 14.2647574,6.40695957 C14.2647574,5.64535957 14.0351574,5.05735957 13.5759574,4.64295957 C13.1167574,4.22855957 12.4727574,4.02135957 11.6439574,4.02135957 C10.8076907,4.02135957 10.1450241,4.23042624 9.65595741,4.64855957 C9.16689074,5.06669291 8.92235741,5.63415957 8.92235741,6.35095957 C8.92235741,6.56002624 8.94849074,6.76535957 9.00075741,6.96695957 L9.00075741,6.96695957 L10.3895574,7.10135957 C10.3372907,6.86242624 10.3111574,6.63469291 10.3111574,6.41815957 C10.3111574,6.02989291 10.4231574,5.72189291 10.6471574,5.49415957 C10.8711574,5.26642624 11.1810241,5.15255957 11.5767574,5.15255957 C11.9724907,5.15255957 12.2748907,5.26642624 12.4839574,5.49415957 C12.6930241,5.72189291 12.7975574,6.04855957 12.7975574,6.47415957 C12.7975574,6.89975957 12.7079574,7.28802624 12.5287574,7.63895957 C12.3495574,7.98989291 12.0396907,8.37069291 11.5991574,8.78135957 C10.8002241,9.54295957 9.89302408,10.2560262 8.87755741,10.9205596 L8.87755741,10.9205596 L8.87755741,11.9733596 L14.3431574,11.9733596 Z" id="22" fill="#05032D"></path>
        </g>
    </g>
</svg>