<svg xmlns="http://www.w3.org/2000/svg" width="18" height="18" viewBox="0 0 18 18">
  <g fill="none" transform="translate(1 1)">
    <path fill="#FFF" stroke="#05032D" d="M16,8 C16,12.4183385 12.4183385,16 8,16 C3.58166154,16 0,12.4183385 0,8 C0,3.58166154 3.58166154,0 8,0 C12.4183385,0 16,3.58166154 16,8 Z"/>
    <path fill="#05032D" d="M11.0352,10.1408 L9.8144,10.1408 L9.8144,12 L8.4704,12 L8.4704,10.1408 L4.8528,10.1408 L4.8528,9.2112 L8.2912,4.216 L9.8144,4.216 L9.8144,9.1104 L11.0352,9.1104 L11.0352,10.1408 Z M8.504,6.5456 C8.504,6.0192 8.504,5.8512 8.5264,5.5152 L8.504,5.5152 C8.3808,5.8288 8.2352,6.064 8,6.4224 L6.768,8.2592 C6.4992,8.6512 6.3424,8.8864 6.1296,9.1104 L8.504,9.1104 L8.504,6.5456 Z"/>
  </g>
</svg>
