<svg xmlns="http://www.w3.org/2000/svg" width="22" height="22" viewBox="0 0 22 22">
  <g fill="none" fill-rule="evenodd">
    <path fill="#FFF" fill-rule="nonzero" stroke="#05032D" stroke-width="1.5" d="M20,10 C20,15.5229231 15.5229231,20 10,20 C4.47707692,20 0,15.5229231 0,10 C0,4.47707692 4.47707692,0 10,0 C15.5229231,0 20,4.47707692 20,10 Z" transform="translate(1 1)"/>
    <path fill="#05032D" fill-rule="nonzero" d="M6.107,16 L6.107,8.804 C5.785,9.196 5.071,9.392 4.483,9.392 L4.035,9.392 L4.035,7.838 L4.315,7.838 C5.365,7.824 6.107,7.306 6.415,6.27 L7.843,6.27 L7.843,16 L6.107,16 Z M13.919,16.21 C11.371,16.21 9.971,14.292 9.971,11.142 C9.971,7.978 11.371,6.06 13.919,6.06 C16.467,6.06 17.881,7.978 17.881,11.142 C17.881,14.292 16.467,16.21 13.919,16.21 Z M13.919,14.838 C15.375,14.838 16.131,13.466 16.131,11.142 C16.131,8.804 15.375,7.432 13.919,7.432 C12.463,7.432 11.721,8.804 11.721,11.142 C11.721,13.466 12.463,14.838 13.919,14.838 Z"/>
  </g>
</svg>
