<svg xmlns="http://www.w3.org/2000/svg" width="22" height="22" viewBox="0 0 22 22">
  <g fill="none" fill-rule="evenodd">
    <path fill="#FFF" fill-rule="nonzero" stroke="#05032D" stroke-width="1.5" d="M20,10 C20,15.5229231 15.5229231,20 10,20 C4.47707692,20 0,15.5229231 0,10 C0,4.47707692 4.47707692,0 10,0 C15.5229231,0 20,4.47707692 20,10 Z" transform="translate(1 1)"/>
    <path fill="#05032D" fill-rule="nonzero" d="M6.548,16 L6.548,8.804 C6.226,9.196 5.512,9.392 4.924,9.392 L4.476,9.392 L4.476,7.838 L4.756,7.838 C5.806,7.824 6.548,7.306 6.856,6.27 L8.284,6.27 L8.284,16 L6.548,16 Z M14.528,9.476 C16.362,9.476 17.524,10.75 17.524,12.766 C17.524,14.81 16.152,16.21 14.136,16.21 C11.728,16.21 10.412,14.488 10.412,11.324 C10.412,7.992 11.812,6.06 14.22,6.06 C16.012,6.06 17.104,6.914 17.398,8.538 L15.732,8.846 C15.536,7.88 15.032,7.418 14.192,7.418 C12.862,7.418 12.12,8.594 12.078,10.778 C12.54,9.952 13.408,9.476 14.528,9.476 Z M14.122,14.852 C15.186,14.852 15.844,14.068 15.844,12.808 C15.844,11.576 15.158,10.792 14.08,10.792 C13.142,10.792 12.414,11.408 12.106,12.486 C12.246,13.942 13.016,14.852 14.122,14.852 Z"/>
  </g>
</svg>
