<svg xmlns="http://www.w3.org/2000/svg" width="22" height="22" viewBox="0 0 22 22">
  <g fill="none" fill-rule="evenodd">
    <path fill="#FFF" fill-rule="nonzero" stroke="#05032D" stroke-width="1.5" d="M20,10 C20,15.5229231 15.5229231,20 10,20 C4.47707692,20 0,15.5229231 0,10 C0,4.47707692 4.47707692,0 10,0 C15.5229231,0 20,4.47707692 20,10 Z" transform="translate(1 1)"/>
    <path fill="#05032D" fill-rule="nonzero" d="M14.794,13.676 L13.268,13.676 L13.268,16 L11.588,16 L11.588,13.676 L7.066,13.676 L7.066,12.514 L11.364,6.27 L13.268,6.27 L13.268,12.388 L14.794,12.388 L14.794,13.676 Z M11.63,9.182 C11.63,8.524 11.63,8.314 11.658,7.894 L11.63,7.894 C11.476,8.286 11.294,8.58 11,9.028 L9.46,11.324 C9.124,11.814 8.928,12.108 8.662,12.388 L11.63,12.388 L11.63,9.182 Z"/>
  </g>
</svg>
