<svg xmlns="http://www.w3.org/2000/svg" width="22" height="22" viewBox="0 0 22 22">
  <g fill="none" fill-rule="evenodd">
    <path fill="#FFF" fill-rule="nonzero" stroke="#05032D" stroke-width="1.5" d="M20,10 C20,15.5229231 15.5229231,20 10,20 C4.47707692,20 0,15.5229231 0,10 C0,4.47707692 4.47707692,0 10,0 C15.5229231,0 20,4.47707692 20,10 Z" transform="translate(1 1)"/>
    <path fill="#05032D" fill-rule="nonzero" d="M6.443,16 L6.443,8.804 C6.121,9.196 5.407,9.392 4.819,9.392 L4.371,9.392 L4.371,7.838 L4.651,7.838 C5.701,7.824 6.443,7.306 6.751,6.27 L8.179,6.27 L8.179,16 L6.443,16 Z M15.627,10.708 C17.041,11.226 17.643,12.038 17.643,13.354 C17.643,15.076 16.173,16.21 13.933,16.21 C11.679,16.21 10.209,15.132 10.209,13.466 C10.209,12.192 10.839,11.394 12.141,11.002 C11.021,10.512 10.531,9.77 10.531,8.664 C10.531,7.096 11.875,6.06 13.877,6.06 C15.921,6.06 17.237,7.026 17.237,8.538 C17.237,9.616 16.705,10.33 15.627,10.708 Z M13.863,7.278 C12.841,7.278 12.211,7.796 12.211,8.65 C12.211,9.406 12.687,9.854 13.807,10.176 L14.325,10.33 C15.235,9.952 15.571,9.476 15.571,8.72 C15.571,7.81 14.941,7.278 13.863,7.278 Z M13.947,14.908 C15.165,14.908 15.893,14.306 15.893,13.326 C15.893,12.514 15.403,12.024 14.255,11.674 L13.401,11.422 C12.365,11.828 11.959,12.346 11.959,13.228 C11.959,14.236 12.757,14.908 13.947,14.908 Z"/>
  </g>
</svg>
