<svg xmlns="http://www.w3.org/2000/svg" width="18" height="18" viewBox="0 0 18 18">
  <g fill="none" transform="translate(1 1)">
    <path fill="#FFF" stroke="#05032D" d="M16,8 C16,12.4183385 12.4183385,16 8,16 C3.58166154,16 0,12.4183385 0,8 C0,3.58166154 3.58166154,0 8,0 C12.4183385,0 16,3.58166154 16,8 Z"/>
    <path fill="#05032D" d="M2.0272,12 L2.0272,10.9472 C2.912,10.3648 3.8976,9.6144 4.7488,8.808 C5.6336,7.9792 5.9472,7.352 5.9472,6.5008 C5.9472,5.6496 5.5104,5.1792 4.7264,5.1792 C3.9312,5.1792 3.4608,5.672 3.4608,6.4448 C3.4608,6.6464 3.4832,6.8704 3.5392,7.128 L2.1504,6.9936 C2.0944,6.7808 2.072,6.568 2.072,6.3776 C2.072,4.9552 3.1136,4.048 4.7936,4.048 C6.44,4.048 7.4144,4.9104 7.4144,6.4336 C7.4144,7.5088 6.9104,8.4272 5.824,9.4128 C5.264,9.9168 4.6704,10.3648 3.8976,10.8464 L7.4928,10.8464 L7.4928,12 L2.0272,12 Z M11.4912,12.168 C9.4528,12.168 8.3328,10.6336 8.3328,8.1136 C8.3328,5.5824 9.4528,4.048 11.4912,4.048 C13.5296,4.048 14.6608,5.5824 14.6608,8.1136 C14.6608,10.6336 13.5296,12.168 11.4912,12.168 Z M11.4912,11.0704 C12.656,11.0704 13.2608,9.9728 13.2608,8.1136 C13.2608,6.2432 12.656,5.1456 11.4912,5.1456 C10.3264,5.1456 9.7328,6.2432 9.7328,8.1136 C9.7328,9.9728 10.3264,11.0704 11.4912,11.0704 Z"/>
  </g>
</svg>
