<?xml version="1.0" encoding="UTF-8"?>
<svg width="18px" height="18px" viewBox="0 0 18 18" version="1.1" xmlns="http://www.w3.org/2000/svg" xmlns:xlink="http://www.w3.org/1999/xlink">
    <title>number-23</title>
    <g id="Page-1" stroke="none" stroke-width="1" fill="none" fill-rule="evenodd">
        <g id="number-23" transform="translate(0.945850, 0.611684)" fill-rule="nonzero">
            <path d="M16.3298676,8 C16.3298676,12.4183385 12.7482061,16 8.32986756,16 C3.9115291,16 0.329867565,12.4183385 0.329867565,8 C0.329867565,3.58166154 3.9115291,0 8.32986756,0 C12.7482061,0 16.3298676,3.58166154 16.3298676,8 Z" id="Path" stroke="#05032D" fill="#FFFFFF"></path>
            <path d="M7.91995741,11.9733596 L7.91995741,10.8197596 L4.32475741,10.8197596 C5.04902408,10.3717596 5.69115741,9.89389291 6.25115741,9.38615957 C6.79622408,8.89335957 7.19755741,8.40802624 7.45515741,7.93015957 C7.71275741,7.45229291 7.84155741,6.94455957 7.84155741,6.40695957 C7.84155741,5.64535957 7.61195741,5.05735957 7.15275741,4.64295957 C6.69355741,4.22855957 6.04955741,4.02135957 5.22075741,4.02135957 C4.38449074,4.02135957 3.72182408,4.23042624 3.23275741,4.64855957 C2.74369074,5.06669291 2.49915741,5.63415957 2.49915741,6.35095957 C2.49915741,6.56002624 2.52529074,6.76535957 2.57755741,6.96695957 L2.57755741,6.96695957 L3.96635741,7.10135957 C3.91409074,6.86242624 3.88795741,6.63469291 3.88795741,6.41815957 C3.88795741,6.02989291 3.99995741,5.72189291 4.22395741,5.49415957 C4.44795741,5.26642624 4.75782408,5.15255957 5.15355741,5.15255957 C5.54929074,5.15255957 5.85169074,5.26642624 6.06075741,5.49415957 C6.26982408,5.72189291 6.37435741,6.04855957 6.37435741,6.47415957 C6.37435741,6.89975957 6.28475741,7.28802624 6.10555741,7.63895957 C5.92635741,7.98989291 5.61649074,8.37069291 5.17595741,8.78135957 C4.37702408,9.54295957 3.46982408,10.2560262 2.45435741,10.9205596 L2.45435741,10.9205596 L2.45435741,11.9733596 L7.91995741,11.9733596 Z M11.6383574,12.1413596 C12.5119574,12.1413596 13.2026241,11.9304262 13.7103574,11.5085596 C14.2180907,11.0866929 14.4719574,10.5098929 14.4719574,9.77815957 C14.4719574,9.24802624 14.3263574,8.82429291 14.0351574,8.50695957 C13.7439574,8.18962624 13.3146241,7.98615957 12.7471574,7.89655957 C13.2026241,7.79202624 13.5628907,7.57735957 13.8279574,7.25255957 C14.0930241,6.92775957 14.2255574,6.54509291 14.2255574,6.10455957 C14.2255574,5.45495957 13.9996907,4.94535957 13.5479574,4.57575957 C13.0962241,4.20615957 12.4596907,4.02135957 11.6383574,4.02135957 C10.7796907,4.02135957 10.1002241,4.24162624 9.59995741,4.68215957 C9.09969074,5.12269291 8.84955741,5.72002624 8.84955741,6.47415957 L8.84955741,6.47415957 L10.1935574,6.69815957 C10.1935574,6.19042624 10.3111574,5.79842624 10.5463574,5.52215957 C10.7815574,5.24589291 11.1194241,5.10775957 11.5599574,5.10775957 C11.9631574,5.10775957 12.2748907,5.20855957 12.4951574,5.41015957 C12.7154241,5.61175957 12.8255574,5.89549291 12.8255574,6.26135957 C12.8255574,6.64215957 12.7098241,6.93895957 12.4783574,7.15175957 C12.2468907,7.36455957 11.9071574,7.47095957 11.4591574,7.47095957 L11.4591574,7.47095957 L11.0559574,7.47095957 L11.0559574,8.47895957 L11.4927574,8.47895957 C12.0079574,8.47895957 12.3962241,8.58535957 12.6575574,8.79815957 C12.9188907,9.01095957 13.0495574,9.32269291 13.0495574,9.73335957 C13.0495574,10.1589596 12.9319574,10.4837596 12.6967574,10.7077596 C12.4615574,10.9317596 12.1199574,11.0437596 11.6719574,11.0437596 C11.2090241,11.0437596 10.8375574,10.9112262 10.5575574,10.6461596 C10.2775574,10.3810929 10.1300907,10.0133596 10.1151574,9.54295957 L10.1151574,9.54295957 L8.74875741,9.68855957 C8.75622408,10.1813596 8.87942408,10.6125596 9.11835741,10.9821596 C9.35729074,11.3517596 9.69329074,11.6373596 10.1263574,11.8389596 C10.5594241,12.0405596 11.0634241,12.1413596 11.6383574,12.1413596 Z" id="23" fill="#05032D"></path>
        </g>
    </g>
</svg>