<svg xmlns="http://www.w3.org/2000/svg" width="22" height="22" viewBox="0 0 22 22">
  <g fill="none" fill-rule="evenodd">
    <path fill="#FFF" fill-rule="nonzero" stroke="#05032D" stroke-width="1.5" d="M20,10 C20,15.5229231 15.5229231,20 10,20 C4.47707692,20 0,15.5229231 0,10 C0,4.47707692 4.47707692,0 10,0 C15.5229231,0 20,4.47707692 20,10 Z" transform="translate(1 1)"/>
    <path fill="#05032D" fill-rule="nonzero" d="M12.708,10.708 C14.122,11.226 14.724,12.038 14.724,13.354 C14.724,15.076 13.254,16.21 11.014,16.21 C8.76,16.21 7.29,15.132 7.29,13.466 C7.29,12.192 7.92,11.394 9.222,11.002 C8.102,10.512 7.612,9.77 7.612,8.664 C7.612,7.096 8.956,6.06 10.958,6.06 C13.002,6.06 14.318,7.026 14.318,8.538 C14.318,9.616 13.786,10.33 12.708,10.708 Z M10.944,7.278 C9.922,7.278 9.292,7.796 9.292,8.65 C9.292,9.406 9.768,9.854 10.888,10.176 L11.406,10.33 C12.316,9.952 12.652,9.476 12.652,8.72 C12.652,7.81 12.022,7.278 10.944,7.278 Z M11.028,14.908 C12.246,14.908 12.974,14.306 12.974,13.326 C12.974,12.514 12.484,12.024 11.336,11.674 L10.482,11.422 C9.446,11.828 9.04,12.346 9.04,13.228 C9.04,14.236 9.838,14.908 11.028,14.908 Z"/>
  </g>
</svg>
