<svg xmlns="http://www.w3.org/2000/svg" width="18" height="18" viewBox="0 0 18 18">
  <g fill="none" transform="translate(1 1)">
    <path fill="#FFF" stroke="#05032D" d="M16,8 C16,12.4183385 12.4183385,16 8,16 C3.58166154,16 0,12.4183385 0,8 C0,3.58166154 3.58166154,0 8,0 C12.4183385,0 16,3.58166154 16,8 Z"/>
    <path fill="#05032D" d="M5.2056,12 L5.2056,10.9472 C6.0904,10.3648 7.076,9.6144 7.9272,8.808 C8.812,7.9792 9.1256,7.352 9.1256,6.5008 C9.1256,5.6496 8.6888,5.1792 7.9048,5.1792 C7.1096,5.1792 6.6392,5.672 6.6392,6.4448 C6.6392,6.6464 6.6616,6.8704 6.7176,7.128 L5.3288,6.9936 C5.2728,6.7808 5.2504,6.568 5.2504,6.3776 C5.2504,4.9552 6.292,4.048 7.972,4.048 C9.6184,4.048 10.5928,4.9104 10.5928,6.4336 C10.5928,7.5088 10.0888,8.4272 9.0024,9.4128 C8.4424,9.9168 7.8488,10.3648 7.076,10.8464 L10.6712,10.8464 L10.6712,12 L5.2056,12 Z"/>
  </g>
</svg>
