<svg xmlns="http://www.w3.org/2000/svg" width="13" height="18" viewBox="0 0 13 18">
  <path fill="#38A650" stroke="#FFF" d="M7.14985757,3.04461538 L7.40338266,3.35150908 C7.38899736,3.32365748 7.38099873,3.2927729 7.38024722,3.26108564 C7.38010667,3.13700179 7.4718515,3.04461538 7.58677333,3.04461538 L7.14985757,3.04461538 Z M8.24188362,11.1338001 L10.4252294,13.3201985 C10.572232,13.4709957 10.6531792,13.6741596 10.6502416,13.8953893 C10.6354914,14.3279849 10.2840361,14.6737108 9.84544,14.6784615 L6.36666667,14.6784615 L6.36666667,15.8465359 L4.19333333,15.8640442 L4.19333333,14.6784494 L0.700036653,14.6783649 C0.486338557,14.6741628 0.28335555,14.5844528 0.144160036,14.4377176 C-0.00378530269,14.2889712 -0.0867228362,14.0875656 -0.0867228362,13.87776 C-0.0867228362,13.6679544 -0.00378530269,13.4665488 0.143883536,13.3180806 L0.155103924,13.306783 L2.32127211,11.1338462 L1.11466667,11.1338462 C0.675737779,11.1338462 0.321333333,10.7769634 0.32169079,10.3195584 C0.329709059,10.1076219 0.420854452,9.90726685 0.562599786,9.77481177 L2.73567784,7.58919471 L1.86730356,7.58913016 C1.43396913,7.58043592 1.08860802,7.22559108 1.08869908,6.79026726 C1.08973079,6.57509338 1.17807432,6.36944253 1.32442169,6.22986551 L3.49652749,4.04461538 L2.97322667,4.04461538 C2.53429778,4.04461538 2.17989333,3.68773259 2.18003389,3.23737589 C2.18468462,3.04127835 2.26188569,2.8537855 2.37378144,2.73752403 L4.64377974,-0.0167111298 C4.68201457,-0.0682466939 4.72631872,-0.114985133 4.77983065,-0.159255299 C4.92231997,-0.274715274 5.1004003,-0.337144832 5.27622539,-0.335760461 C5.4595997,-0.337144832 5.63768003,-0.274715274 5.78425897,-0.155905485 C5.83368128,-0.114985133 5.87798543,-0.0682466939 5.9000848,-0.0373105073 L8.86921541,3.55545846 L8.31914801,3.55545846 C8.19962195,3.84244015 7.91713932,4.04461538 7.58677333,4.04461538 L7.066096,4.04460704 L9.23103734,6.22081255 C9.38661901,6.36944253 9.47496254,6.57509338 9.476,6.79266067 C9.47600345,7.23057744 9.12300312,7.58746818 8.68266667,7.58923077 L7.83100861,7.58922818 L9.9904265,9.76791925 C10.1416698,9.91449786 10.2293826,10.1146293 10.2351467,10.3384615 C10.2351467,10.7769634 9.88074222,11.1338462 9.44181333,11.1338462 L8.24188362,11.1338001 Z" transform="translate(1 1)"/>
</svg>
