<svg xmlns="http://www.w3.org/2000/svg" width="16" height="24" viewBox="0 0 16 24">
  <path fill="#05032D" d="M11.7846667,17.4073846 C11.6998431,17.3175482 11.651451,17.1990145 11.649,17.0750769 C11.6499664,16.8237514 11.8504498,16.619404 12.1,16.6153846 L14.7528333,16.6153846 C15.0059638,16.6153846 15.2111667,16.4087468 15.2111667,16.1538462 C15.2078486,16.0288158 15.1558257,15.9101168 15.0663333,15.8233846 L11.1283333,11.8504615 C11.058612,11.7603447 11.0182693,11.6507222 11.0128333,11.5366154 C11.0128324,11.4143769 11.0611793,11.2971717 11.1471866,11.2109094 C11.2331939,11.1246471 11.349778,11.0764322 11.4711667,11.0769231 L13.5666667,11.0769231 C13.8200934,11.0759063 14.025002,10.8687395 14.025,10.6135385 C14.0244038,10.4892003 13.9734123,10.3704995 13.8838333,10.2849231 L9.95866667,6.33969231 L9.933,6.31384615 C9.8566461,6.22719718 9.81371007,6.115831 9.812,6 C9.81199195,5.74653435 10.0149692,5.54048926 10.2666667,5.53846154 L11.8543333,5.53846154 C12.1074638,5.53846154 12.3126667,5.33182373 12.3126667,5.07692308 C12.309986,4.96389179 12.2655329,4.8559318 12.188,4.77415385 L12.199,4.77415385 L8.61666667,0.439384615 C8.59433755,0.409287886 8.56848408,0.38201389 8.53966667,0.358153846 C8.45763018,0.291679173 8.35529512,0.2558071 8.25,0.256602018 L8.25,0.256602018 C8.14470488,0.2558071 8.04236982,0.291679173 7.96033333,0.358153846 C7.93151592,0.38201389 7.90566245,0.409287886 7.88333333,0.439384615 L4.312,4.77415385 C4.23446707,4.8559318 4.19001403,4.96389179 4.18733333,5.07692308 C4.18733333,5.33182373 4.39253616,5.53846154 4.64566667,5.53846154 L6.23333333,5.53846154 C6.42393729,5.51927956 6.60510529,5.62596041 6.68197117,5.80264209 C6.75883705,5.97932377 6.7138903,6.18575714 6.57066667,6.31384615 L6.545,6.33969231 L2.6235,10.2849231 C2.53392104,10.3704995 2.48292951,10.4892003 2.48233333,10.6135385 C2.48228361,10.8658968 2.68277721,11.071896 2.93333333,11.0769231 L5.0325,11.0769231 C5.15388866,11.0764322 5.27047277,11.1246471 5.35648005,11.2109094 C5.44248733,11.2971717 5.49083431,11.4143769 5.49083333,11.5366154 C5.48539735,11.6507222 5.44505465,11.7603447 5.37533333,11.8504615 L1.43366667,15.8233846 C1.34214558,15.9091961 1.28809407,16.0280117 1.28333333,16.1538462 C1.28333333,16.4087468 1.48853616,16.6153846 1.74166667,16.6153846 L4.4,16.6153846 C4.65098436,16.6174046 4.85367071,16.8223313 4.85466667,17.0750769 C4.85221569,17.1990145 4.80382359,17.3175482 4.719,17.4073846 L0.795666667,21.3433846 L0.779166667,21.36 C0.693745791,21.4458834 0.645745568,21.5624472 0.645745568,21.684 C0.645745568,21.8055528 0.693745791,21.9221166 0.779166667,22.008 C0.865509644,22.0989007 0.984275802,22.1513903 1.10916667,22.1538462 L7.33333333,22.1538462 L7.33333333,24 L9.16666667,23.9852308 L9.16666667,22.1538462 L15.3835,22.1538462 C15.6413452,22.1510358 15.8513577,21.9444351 15.8602062,21.6849231 C15.8617641,21.562883 15.8149064,21.445252 15.73,21.3581538 L11.7846667,17.4073846 Z"/>
</svg>
