<svg xmlns="http://www.w3.org/2000/svg" width="20" height="20" viewBox="0 0 20 20">
  <path fill="#05032D" d="M10,0 C7.33333333,0 5.33333333,2.08933333 5.33333333,4.66666667 C5.33653333,6.75053333 6.7196,8.536 8.66666667,9.1172 L8.66666667,17.1693333 C7.426,16.9497333 6.166,16.4365333 5.13546667,15.4766667 C3.73226667,14.1697333 2.66933333,12.0901333 2.66933333,8.664 C2.6796,7.9112 2.0652,7.2992 1.31253333,7.3124 C0.5772,7.324 -0.0101333333,7.92866667 -0.000129175228,8.664 C-0.000129175228,12.6678667 1.3492,15.5913333 3.32026667,17.4270667 C5.29133333,19.2628 7.78386667,20 10,20 C12.2208,20 14.7133333,19.2538667 16.6822667,17.414 C18.6512,15.5741333 19.9973333,12.6490667 19.9973333,8.664 C20.0837333,6.8036 17.2469333,6.8036 17.3333333,8.664 C17.3333333,12.068 16.2670667,14.1505333 14.862,15.4634667 C13.8308,16.4270667 12.5717333,16.9445333 11.3333333,17.1666667 L11.3333333,9.1224 C13.2809333,8.54106667 14.6648,6.75226667 14.6666667,4.66666667 C14.6666667,2.08933333 12.6666667,0 10,0 Z M10,2.66666667 C11.1045333,2.66666667 12,3.56213333 12,4.66666667 C12,5.7712 11.1045333,6.66666667 10,6.66666667 C8.89546667,6.66666667 8,5.7712 8,4.66666667 C8,3.56213333 8.89546667,2.66666667 10,2.66666667 Z"/>
</svg>
