<svg xmlns="http://www.w3.org/2000/svg" width="18" height="18" viewBox="0 0 18 18">
  <path fill="#05032D" stroke="#FFF" d="M9.56666667,7.65303589 L9.56666667,13.1047478 C10.3211914,12.8877781 10.9945968,12.5227826 11.5482272,12.0054452 C12.7176536,10.9127007 13.3666667,9.28319655 13.367205,6.95439581 C13.3216869,5.9742816 14.0374286,5.31496 14.9322667,5.31496 C15.8271047,5.31496 16.5428464,5.9742816 16.4978667,6.9312 C16.4978667,10.0740913 15.4814906,12.6198431 13.6871901,14.2965244 C12.1270343,15.7544096 10.0741022,16.5 8,16.5 C5.92542788,16.5 3.87501755,15.7600377 2.31544418,14.3075446 C0.517334515,12.632893 -0.50010334,10.0866357 -0.500057073,6.93800184 C-0.511811156,6.07404416 0.178186622,5.3636112 1.04125919,5.34999687 C1.92561459,5.33448736 2.64748223,6.05357183 2.63546667,6.9312 C2.63546667,9.29928875 3.2819991,10.9283707 4.44915954,12.015458 C5.00247074,12.530827 5.6765155,12.8936032 6.43333333,13.1086453 L6.43333333,7.64889647 C4.84276309,7.01629189 3.7693458,5.47836408 3.76666667,3.73333333 C3.76666667,1.37178978 5.61370612,-0.5 8,-0.5 C10.3862939,-0.5 12.2333333,1.37178978 12.2333331,3.73378085 C12.2317706,5.47953343 11.157801,7.02000747 9.56666667,7.65303589 Z M8,2.63333333 C7.39251571,2.63333333 6.9,3.12584904 6.9,3.73333333 C6.9,4.34081763 7.39251571,4.83333333 8,4.83333333 C8.60748429,4.83333333 9.1,4.34081763 9.1,3.73333333 C9.1,3.12584904 8.60748429,2.63333333 8,2.63333333 Z" transform="translate(1 1)"/>
</svg>
