<svg xmlns="http://www.w3.org/2000/svg" width="19" height="18" viewBox="0 0 19 18">
  <g fill="none" stroke="#FFF" transform="translate(2 1)">
    <path fill="#05032D" d="M11.2329193,10.2597788 L11.2329193,11.9254658 C11.2329193,13.3597998 10.3677159,14.3231498 8.83699838,15.0885923 L6.6552795,16.1793626 L6.6552795,12.1325726 L3.37053297,8.84782609 L-0.67631615,8.84782609 L-0.314475845,8.12420466 L0.41463003,6.66611216 C1.17986439,5.13547588 2.14327753,4.27018634 3.57763975,4.27018634 L5.2433268,4.27018634 C7.53619282,1.38262439 10.980432,-0.5 13.779518,-0.5 L16.0031056,-0.5 L16.0031056,1.72358758 C16.0031056,4.52267363 14.1204812,7.96691277 11.2329193,10.2597788 Z M11.4254658,4.77018634 C11.4254658,4.38768523 11.1154204,4.07763975 10.7329193,4.07763975 C10.3504182,4.07763975 10.0403727,4.38768523 10.0403727,4.77018634 C10.0403727,5.15268744 10.3504182,5.46273292 10.7329193,5.46273292 C11.1154204,5.46273292 11.4254658,5.15268744 11.4254658,4.77018634 Z"/>
    <path fill="#C73530" d="M2.98136646,10.0258125 L5.47729312,12.5217391 L4.52746643,13.4715658 C4.16970361,13.8293286 3.68675477,14.1120976 3.10942584,14.3371003 C2.70125684,14.4961763 2.26855568,14.6175409 1.83648858,14.7072591 C1.57688838,14.7611648 1.37275279,14.7929334 1.25045808,14.8071939 L0.596967229,14.8833961 L0.698541362,14.2333655 C0.716520639,14.1183059 0.7527381,13.9246123 0.809003897,13.677775 C0.902712388,13.2666772 1.02014756,12.8550515 1.16416609,12.4671957 C1.39831689,11.8366049 1.67998932,11.3271896 2.03153978,10.9756392 L2.98136646,10.0258125 Z"/>
  </g>
</svg>
