<svg xmlns="http://www.w3.org/2000/svg" width="23" height="23" viewBox="0 0 23 23">
  <g fill="none">
    <path fill="#05032D" d="M19.8080571,0 C16.1324571,0 11.2004571,2.52171429 7.88845714,6.85714286 L5.14285714,6.85714286 C3.15891429,6.85714286 2.02182857,8.33794286 1.23891429,9.90394286 L0.1908,12 L2.6652,12 L5.14285714,12 L7.71428571,14.5714286 L10.2857143,17.1428571 L10.2857143,19.6205143 L10.2857143,22.0949143 L12.3817714,21.0469714 C13.9477714,20.2638857 15.4285714,19.1268 15.4285714,17.1428571 L15.4285714,14.3972571 C19.764,11.0852571 22.2857143,6.15325714 22.2857143,2.47765714 L22.2857143,0 L19.8080571,0 Z M17.1428571,6.85714286 C17.1428571,7.80394286 16.3753714,8.57142857 15.4285714,8.57142857 C14.4817714,8.57142857 13.7142857,7.80394286 13.7142857,6.85714286 C13.7142857,5.91034286 14.4817714,5.14285714 15.4285714,5.14285714 C16.3753714,5.14285714 17.1428571,5.91034286 17.1428571,6.85714286 Z"/>
    <path fill="#C73530" d="M4.28571429,15.4285714 L3.42857143,16.2857143 C2.19051429,17.5237714 1.71428571,20.5714286 1.71428571,20.5714286 C1.71428571,20.5714286 4.62514286,20.232 6,18.8571429 L6.85714286,18 L4.28571429,15.4285714 Z"/>
  </g>
</svg>
