<svg xmlns="http://www.w3.org/2000/svg" width="16" height="18" viewBox="0 0 16 18">
  <path fill="#05032D" stroke="#FFF" d="M4.45127219,12.0937294 C3.9702692,12.1130291 3.50497219,12.2703157 3.11078684,12.5470011 L2.63455129,12.8812789 L-0.130260122,7.31479187 L1.55353757,6.19226008 L1.55432205,2.78589755 C1.61729613,1.70479737 2.49879616,0.852703887 3.59358289,0.826203209 L3.67087057,0.826203209 C3.86684464,0.194058193 4.47236196,-0.245260521 5.13368984,-0.200534759 L8.18128572,-0.19946969 C8.24541216,-0.203661975 8.30981351,-0.203661975 8.37435769,-0.199442204 C8.9961573,-0.158268987 9.50163006,0.265083191 9.67673834,0.826326072 L9.76617786,0.82635127 C10.8487974,0.852703887 11.7302974,1.70479737 11.7941176,2.81497326 L11.7941176,6.19230117 L13.4815007,7.31722317 L10.7047739,12.7723854 L10.23719,12.4618673 C9.33138932,11.8603337 8.13847369,11.9227501 7.31696131,12.6012117 L6.85590793,13.0176471 L6.42277708,13.0176471 L6.28090557,12.8921453 L6.03020672,12.6697674 C5.58288079,12.3068168 5.02707988,12.1041262 4.45127219,12.0937294 Z M3.5802139,2.85225153 C3.5802139,3.20128356 3.5802139,3.23850478 3.5802139,4.35508021 C3.5802139,4.65271239 3.5802139,4.873653 3.5802139,5.04425043 L6.67690714,3.31894992 L9.76769494,5.08511437 L9.76851286,2.85022523 C9.76636401,2.85181884 9.76206456,2.85278387 9.7540107,2.85294118 L3.5802139,2.85225153 Z M9.76851286,2.85022523 L9.76851802,2.83611776 C9.76912415,2.84220917 9.77247589,2.8472862 9.76851286,2.85022523 Z M9.76851802,2.83611776 L9.76851932,2.83257081 C9.76843723,2.83442995 9.76843723,2.83442995 9.76846589,2.8354896 C9.76847979,2.83570014 9.7684973,2.83590954 9.76851802,2.83611776 Z M13.8475936,13.1476661 L13.8475936,15.1382211 L13.3844315,15.1724379 C13.2461316,15.182655 13.117416,15.2470198 13.0132857,15.3658101 C12.671195,15.7288014 12.2354073,15.9902546 11.7642637,16.1184639 C10.9722102,16.3523304 10.1155893,16.173252 9.47139272,15.6311586 L9.05235812,15.2542215 C8.93495487,15.1374741 8.74547294,15.1374741 8.60090371,15.2793074 C8.56384035,15.311076 8.52666441,15.3442715 8.47068184,15.3952475 C8.43609779,15.4267859 8.43609779,15.4267859 8.40007971,15.4595957 C8.30224111,15.5485399 8.23338954,15.6085954 8.15641754,15.6701729 C7.21320138,16.4239221 5.86349142,16.3858245 4.96401304,15.5798217 L4.56858576,15.2248911 C4.46294479,15.1326028 4.30539746,15.1326028 4.18062428,15.2407836 C4.10950949,15.2969269 4.05198544,15.3465709 3.92063112,15.4633303 C3.77476619,15.592988 3.70737045,15.6511515 3.60363498,15.7327433 C2.69610395,16.404726 1.4476575,16.372865 0.56487166,15.6463456 L0.198361265,15.3209676 C0.126714407,15.2389228 0.0287332773,15.1846784 -0.0786583065,15.1675709 L-0.5,15.1004511 L-0.5,13.2051379 L-0.0614266822,13.1508464 C0.306601649,13.1052878 0.679637796,13.1749187 1.03320974,13.3656565 C1.34150054,13.5564821 1.63404339,13.7712411 1.94956875,14.0482464 C2.03805324,14.144669 2.17162424,14.185888 2.27092066,14.1635569 C2.32593395,14.147273 2.37739397,14.1207126 2.43112299,14.0787166 C2.48530229,14.0380821 2.53652991,13.9939575 2.62485349,13.913248 C2.66146463,13.8797217 2.66146463,13.8797217 2.70052635,13.8440763 C2.76802652,13.7827125 2.82106492,13.7363768 2.87414064,13.6932826 C3.78878272,12.9354142 5.11303546,12.9354142 6.02395941,13.6902318 C6.10145231,13.7531947 6.159233,13.8040418 6.28508965,13.9177187 C6.39794958,14.0196567 6.44712076,14.0629274 6.52018429,14.1227025 C6.62582527,14.2149908 6.78337259,14.2149908 6.9026716,14.1111943 C6.9620771,14.0629274 7.01124828,14.0196567 7.12410821,13.9177187 C7.24996486,13.8040418 7.30774555,13.7531947 7.38021465,13.6943682 C8.29706318,12.9294053 9.62978174,12.9294053 10.5537754,13.7004442 C10.6025244,13.7426933 10.6482292,13.7838277 10.7153938,13.8453525 C10.753102,13.879938 10.753102,13.879938 10.7894781,13.913248 C10.8766821,13.9929345 10.9339397,14.043096 11.0070292,14.1021677 C11.1126702,14.194456 11.2702175,14.194456 11.3761285,14.101932 L11.8723717,13.6694629 C12.2896705,13.3309219 12.8109028,13.1464062 13.3482013,13.1470592 L13.8475936,13.1476661 Z" transform="translate(1 1)"/>
</svg>
