<svg xmlns="http://www.w3.org/2000/svg" width="19" height="22" viewBox="0 0 19 22">
  <path fill="#05032D" d="M6.11294118,15.9411765 C7.06517647,15.9538824 7.98522353,16.2870588 8.72470588,16.8870588 L9.09176471,17.2117647 L9.16235294,17.2117647 L9.6,16.8164706 C10.9859294,15.6708235 12.9585882,15.5676235 14.4564706,16.5623529 L17.6470588,10.2941176 L15.5294118,8.88235294 L15.5294118,3.87058824 C15.4636235,2.74117647 14.5427294,1.85105882 13.4117647,1.82352941 L12.7058824,1.82352941 C12.7543059,1.09223529 12.2006118,0.460188235 11.4693176,0.411764706 C11.4110118,0.407952941 11.3524235,0.407952941 11.2941176,0.411764706 L7.05882353,0.411764706 C6.32752941,0.363341176 5.69548235,0.917035294 5.64705882,1.64832941 C5.64324706,1.70663529 5.64324706,1.76522353 5.64705882,1.82352941 L4.94117647,1.82352941 C3.81021176,1.85105882 2.88931765,2.74117647 2.82352941,3.87058824 L2.82352941,8.88235294 L0.705882353,10.2941176 L3.88235294,16.6894118 C4.53783529,16.2293176 5.31261176,15.9694118 6.11294118,15.9411765 Z M4.23529412,3.87058824 C4.25011765,3.50437647 4.55901176,3.21962353 4.92508235,3.23444706 C4.93044706,3.23472941 4.93581176,3.23501176 4.94117647,3.23529412 L13.4117647,3.23529412 C13.7774118,3.21115294 14.0935059,3.48785882 14.1176471,3.85350588 C14.1196235,3.88272941 14.1196235,3.91195294 14.1176471,3.94117647 L14.1176471,8.17647059 L9.17647059,5.35294118 L4.23529412,8.10588235 C4.23529412,8.10588235 4.23529412,3.87058824 4.23529412,3.87058824 Z M18.3529412,18.7647059 L18.3529412,20.1764706 C17.9822118,20.2038588 17.6373176,20.3763765 17.3929412,20.6564706 C17.0093647,21.0634824 16.5207529,21.3565647 15.9811765,21.5035294 C15.1133647,21.7597647 14.1748235,21.5635294 13.4823529,20.9811765 L12.9317647,20.4870588 C12.5021647,20.0598588 11.8084235,20.0598588 11.3788235,20.4870588 C11.1811765,20.6564706 10.9976471,20.84 10.7858824,21.0094118 C9.75134118,21.8361412 8.27096471,21.7943529 7.28470588,20.9105882 L6.73411765,20.4164706 C6.32978824,20.0632471 5.72668235,20.0632471 5.32235294,20.4164706 C5.05411765,20.6282353 4.81411765,20.8682353 4.54588235,21.08 C3.55157647,21.8162353 2.18371765,21.7813647 1.22823529,20.9952941 L0.790588235,20.6141176 C0.586305882,20.3801882 0.306635294,20.2253176 0,20.1764706 L0,18.7647059 C0.364941176,18.7195294 0.734823529,18.7885647 1.05882353,18.9623529 C1.45157647,19.2054588 1.82456471,19.4792 2.17411765,19.7811765 C2.46367059,20.0967059 2.90075294,20.2315294 3.31764706,20.1341176 C3.47647059,20.0871059 3.62498824,20.0104471 3.75529412,19.9082353 C3.98117647,19.7388235 4.16470588,19.5411765 4.39058824,19.3576471 C5.39378824,18.5264 6.84621176,18.5264 7.84941176,19.3576471 C8.07529412,19.5411765 8.28705882,19.7529412 8.51294118,19.9364706 C8.91727059,20.2896941 9.52037647,20.2896941 9.92470588,19.9364706 C10.1505882,19.7529412 10.3623529,19.5411765 10.5882353,19.3576471 C11.5938353,18.5186353 13.0555765,18.5186353 14.0611765,19.3576471 C14.2729412,19.5411765 14.4705882,19.7388235 14.6823529,19.9082353 C15.0866824,20.2614588 15.6897882,20.2614588 16.0941176,19.9082353 L16.7576471,19.3294118 C17.2087059,18.9634824 17.7721412,18.764 18.3529412,18.7647059 Z"/>
</svg>
