<svg xmlns="http://www.w3.org/2000/svg" width="14" height="18" viewBox="0 0 14 18">
  <path fill="#05032D" stroke="#FFF" d="M10.8971241,3.19156923 L10.8974933,3.1912 C11.4156925,3.1912 11.8305733,3.61671879 11.8305733,4.13538462 L11.8305733,15.5529846 C11.8305733,16.0716504 11.4156925,16.4971692 10.8974933,16.4971692 L0.967853333,16.4971692 C0.449336578,16.4971692 0.0337665598,16.0721203 0.0323733333,15.5517538 L0.0323733333,11.5216 C0.0323733333,11.0015803 0.448334152,10.5749538 0.967853333,10.5749538 L4.83225333,10.5749538 L4.83225333,4.13575385 C4.83225333,3.61708802 5.24713415,3.19156923 5.76533333,3.19156923 L7.23117333,3.19156923 L7.23117333,0.444184615 C7.23117333,-0.0744812088 7.64605415,-0.500000021 8.16425333,-0.500000021 L8.49785333,-0.500000021 C9.01597478,-0.500000021 9.4309011,-0.0747114019 9.43105333,0.444061538 L9.43105333,3.19156923 L10.8971241,3.19156923 Z M2.23201333,13.0361231 L1.73201333,13.0361231 L2.23201333,13.5361231 L2.23201333,13.0361231 Z M2.23201333,12.8053538 L2.23201333,12.3053538 L1.73201333,12.8053538 L2.23201333,12.8053538 Z M2.43201333,12.8053538 L2.93201333,12.8053538 L2.43201333,12.3053538 L2.43201333,12.8053538 Z M2.43201333,13.0361231 L2.43201333,13.5361231 L2.93201333,13.0361231 L2.43201333,13.0361231 Z M4.63201333,13.0361231 L4.13201333,13.0361231 L4.63201333,13.5361231 L4.63201333,13.0361231 Z M4.63201333,12.8053538 L4.63201333,12.3053538 L4.13201333,12.8053538 L4.63201333,12.8053538 Z M4.83201333,12.8053538 L5.33201333,12.8053538 L4.83201333,12.3053538 L4.83201333,12.8053538 Z M4.83201333,13.0361231 L4.83201333,13.5361231 L5.33201333,13.0361231 L4.83201333,13.0361231 Z M7.03201333,13.0361231 L6.53201333,13.0361231 L7.03201333,13.5361231 L7.03201333,13.0361231 Z M7.03201333,12.8053538 L7.03201333,12.3053538 L6.53201333,12.8053538 L7.03201333,12.8053538 Z M7.23201333,12.8053538 L7.73201333,12.8053538 L7.23201333,12.3053538 L7.23201333,12.8053538 Z M7.23201333,13.0361231 L7.23201333,13.5361231 L7.73201333,13.0361231 L7.23201333,13.0361231 Z M7.03201333,10.5745846 L6.53201333,10.5745846 L7.03201333,11.0745846 L7.03201333,10.5745846 Z M7.03201333,10.3438154 L7.03201333,9.84381538 L6.53201333,10.3438154 L7.03201333,10.3438154 Z M7.23201333,10.3438154 L7.73201333,10.3438154 L7.23201333,9.84381538 L7.23201333,10.3438154 Z M7.23201333,10.5745846 L7.23201333,11.0745846 L7.73201333,10.5745846 L7.23201333,10.5745846 Z" transform="translate(1 1)"/>
</svg>
