<svg xmlns="http://www.w3.org/2000/svg" width="17" height="24" viewBox="0 0 17 24">
  <path fill="#05032D" d="M16.34624,5.53735385 L13.39658,5.53735385 L13.39658,0.666092308 C13.396472,0.298116923 13.105556,-3.0846854e-08 12.74678,-3.0846854e-08 L12.74678,-3.0846854e-08 L12.24638,-3.0846854e-08 C11.887604,-3.0846854e-08 11.59676,0.298301538 11.59676,0.666276923 L11.59676,0.666276923 L11.59676,5.53735385 L8.648,5.53735385 C8.289224,5.53735385 7.99838,5.83565538 7.99838,6.20363077 L7.99838,6.20363077 L7.99838,6.20363077 L7.99838,16.6124308 L1.45178,16.6124308 C1.091024,16.6124308 0.79856,16.9123938 0.79856,17.2824 L0.79856,23.3276308 C0.79955,23.6969169 1.091726,23.9957538 1.45178,23.9957538 L16.34624,23.9957538 C16.705016,23.9957538 16.99586,23.6974523 16.99586,23.3294769 L16.99586,23.3294769 L16.99586,6.20307692 C16.99586,5.83510154 16.705016,5.5368 16.34624,5.5368 L16.34624,5.5368 L16.34624,5.53735385 Z M4.39802,20.3041846 L2.59802,20.3041846 L2.59802,18.4580308 L4.39802,18.4580308 L4.39802,20.3041846 Z M7.99802,20.3041846 L6.19802,20.3041846 L6.19802,18.4580308 L7.99802,18.4580308 L7.99802,20.3041846 Z M11.59802,20.3041846 L9.79802,20.3041846 L9.79802,18.4580308 L11.59802,18.4580308 L11.59802,20.3041846 Z M11.59802,16.6118769 L9.79802,16.6118769 L9.79802,14.7657231 L11.59802,14.7657231 L11.59802,16.6118769 Z"/>
</svg>
