<svg xmlns="http://www.w3.org/2000/svg" width="19" height="22" viewBox="0 0 19 22">
  <path fill="#05032D" d="M1.64285714,0 C0.735507143,0 0,0.735507143 0,1.64285714 L0,14.7857143 C0,15.6930643 0.735507143,16.4285714 1.64285714,16.4285714 L16.4285714,16.4285714 C17.3359214,16.4285714 18.0714286,15.6930643 18.0714286,14.7857143 L18.0714286,1.64285714 C18.0714286,0.735507143 17.3359214,0 16.4285714,0 L1.64285714,0 Z M6.16071429,0.821428571 L6.17675777,0.821428571 L11.9267578,0.821428571 C12.1536363,0.821428571 12.3374721,1.00526429 12.3374721,1.23214286 C12.3374721,1.45902143 12.1536363,1.64285714 11.9267578,1.64285714 L6.16071429,1.64285714 C5.93383571,1.64285714 5.75,1.45902143 5.75,1.23214286 C5.75,1.00526429 5.93383571,0.821428571 6.16071429,0.821428571 Z M2.46428571,3.28571429 L8.21428571,3.28571429 L8.21428571,9.85714286 L2.46428571,9.85714286 C2.01069286,9.85714286 1.64285714,9.48930714 1.64285714,9.03571429 L1.64285714,4.10714286 C1.64285714,3.65355 2.01069286,3.28571429 2.46428571,3.28571429 Z M9.85714286,3.28571429 L15.6071429,3.28571429 C16.0607357,3.28571429 16.4285714,3.65355 16.4285714,4.10714286 L16.4285714,9.03571429 C16.4285714,9.48930714 16.0607357,9.85714286 15.6071429,9.85714286 L9.85714286,9.85714286 L9.85714286,3.28571429 Z M4.92857143,11.5 C5.83592143,11.5 6.57142857,12.2355071 6.57142857,13.1428571 C6.57142857,14.0502071 5.83592143,14.7857143 4.92857143,14.7857143 C4.02122143,14.7857143 3.28571429,14.0502071 3.28571429,13.1428571 C3.28571429,12.2355071 4.02122143,11.5 4.92857143,11.5 Z M13.1428571,11.5 C14.0502071,11.5 14.7857143,12.2355071 14.7857143,13.1428571 C14.7857143,14.0502071 14.0502071,14.7857143 13.1428571,14.7857143 C12.2355071,14.7857143 11.5,14.0502071 11.5,13.1428571 C11.5,12.2355071 12.2355071,11.5 13.1428571,11.5 Z M13.8744411,17.0618031 C13.7681236,17.0708569 13.6603259,17.1019545 13.5599884,17.1548545 C13.1931384,17.3480545 13.0282371,17.7843004 13.1749438,18.1720147 L13.4541014,18.7142857 L4.61732705,18.7142857 L4.82910152,18.2714848 C4.98960866,17.8471348 4.77535446,17.3731179 4.35100446,17.2126124 C3.96329018,17.0660696 3.52704491,17.2309714 3.33384491,17.5976554 L1.69098776,20.8833697 C1.65615919,20.9779983 1.64055714,21.0778643 1.64285714,21.1785714 C1.64285714,21.6321643 2.01069286,22 2.46428571,22 C2.76032857,21.9983571 3.03121518,21.8347844 3.17020089,21.5732416 L3.17020089,21.4898156 L3.28571429,21.4898156 L3.79589848,20.3571429 L14.2755299,20.3571429 L14.7857143,21.4898156 L14.7857143,21.5732416 C14.9247,21.8347844 15.1955874,21.9983571 15.4916303,22 C15.9452215,22 16.3130589,21.6321643 16.3130589,21.1785714 C16.3457501,21.0491143 16.3457501,20.9133584 16.3130589,20.7839013 L14.6702017,17.498187 C14.5116249,17.1971745 14.1933969,17.0346417 13.8744411,17.0618031 Z"/>
</svg>
