<svg xmlns="http://www.w3.org/2000/svg" width="16" height="18" viewBox="0 0 16 18">
  <path fill="#05032D" stroke="#FFF" d="M1.19480519,-0.5 L11.9480519,-0.5 C12.8840852,-0.5 13.6428571,0.258771911 13.6428571,1.19480519 L13.6428571,10.7532468 C13.6428571,11.68928 12.8840852,12.4480519 11.9480519,12.4480519 L1.19480519,12.4480519 C0.258771911,12.4480519 -0.5,11.68928 -0.5,10.7532468 L-0.5,1.19480519 C-0.5,0.258771911 0.258771911,-0.5 1.19480519,-0.5 Z M4.48051948,1.0974026 L8.67400565,1.0974026 C8.56286587,1.0974026 8.47270695,1.00724367 8.47270695,0.896103896 C8.47270695,0.784964119 8.56286587,0.694805195 8.67400565,0.694805195 L4.48051948,0.694805195 C4.59165926,0.694805195 4.68181818,0.784964119 4.68181818,0.896103896 C4.68181818,1.00724367 4.59165926,1.0974026 4.48051948,1.0974026 Z M5.47402597,6.66883117 L5.47402597,2.88961039 L1.79220779,2.88961039 C1.73846445,2.88961039 1.69480519,2.93326965 1.69480519,2.98701299 L1.69480519,6.57142857 C1.69480519,6.62517191 1.73846445,6.66883117 1.79220779,6.66883117 L5.47402597,6.66883117 Z M7.66883117,2.88961039 L7.66883117,6.66883117 L11.3506494,6.66883117 C11.4043927,6.66883117 11.4480519,6.62517191 11.4480519,6.57142857 L11.4480519,2.98701299 C11.4480519,2.93326965 11.4043927,2.88961039 11.3506494,2.88961039 L7.66883117,2.88961039 Z M3.58441558,8.86363636 C3.20066705,8.86363636 2.88961039,9.17469302 2.88961039,9.55844156 C2.88961039,9.94219009 3.20066705,10.2532468 3.58441558,10.2532468 C3.96816412,10.2532468 4.27922078,9.94219009 4.27922078,9.55844156 C4.27922078,9.17469302 3.96816412,8.86363636 3.58441558,8.86363636 Z M9.55844156,8.86363636 C9.17469302,8.86363636 8.86363636,9.17469302 8.86363636,9.55844156 C8.86363636,9.94219009 9.17469302,10.2532468 9.55844156,10.2532468 C9.94219009,10.2532468 10.2532468,9.94219009 10.2532468,9.55844156 C10.2532468,9.17469302 9.94219009,8.86363636 9.55844156,8.86363636 Z M12.362344,15.4641705 C12.3303992,16.041561 11.8519102,16.4999997 11.2638656,16.4999923 C10.8646148,16.4977767 10.4991003,16.276878 10.3117176,15.9242619 L10.2532468,15.8142316 L10.2532468,15.7363666 L10.0590361,15.3051948 L3.08382097,15.3051948 L2.71277792,16.1289568 L2.60614399,16.1289568 C2.40396096,16.3603212 2.10945229,16.4982456 1.79220779,16.5 C1.1861797,16.5 0.694805195,16.0086255 0.694935543,15.4140137 C0.691825473,15.277837 0.713602139,15.1428473 0.782595688,14.9642984 L1.98225902,12.5652248 C2.24039392,12.0752975 2.82317599,11.8547822 3.3412557,12.0505988 C3.78511848,12.2184848 4.0568045,12.6431819 4.04291227,13.1103896 L9.04803307,13.1103896 C9.0058321,12.676384 9.22649341,12.2457437 9.62862322,12.0339638 C9.75973677,11.964838 9.90287728,11.9227522 10.0480772,11.9103872 C10.4838409,11.8732788 10.9042513,12.0993052 11.1164512,12.5023474 L12.3112564,14.8919578 L12.3488246,14.9931449 C12.3877953,15.1474685 12.3923017,15.3083339 12.362344,15.4641705 Z" transform="translate(1 1)"/>
</svg>
