<svg xmlns="http://www.w3.org/2000/svg" width="14" height="18" viewBox="0 0 14 18">
  <path fill="#05032D" stroke="#FFF" d="M6.17826087,1.61304348 L6.06521739,1.61304348 L6.06521739,2.83913043 L6.67826087,2.83913043 C7.02721536,2.83913043 7.51561721,2.92053074 8.01491115,3.17017771 C8.87435265,3.59989846 9.40434783,4.39489122 9.40434783,5.56521739 L9.40434783,8.90434783 C9.40434783,10.5616305 8.665657,11.6696668 7.45838941,12.2733006 C6.75039982,12.6272953 6.05330232,12.7434783 5.56521739,12.7434783 L4.45217391,12.7434783 C3.96408898,12.7434783 3.26699148,12.6272953 2.5590019,12.2733006 C1.3517343,11.6696668 0.613043478,10.5616305 0.613043478,8.90434783 L0.613043478,5.56521739 C0.613043478,4.39489122 1.14303865,3.59989846 2.00248016,3.17017771 C2.50177409,2.92053074 2.99017594,2.83913043 3.33913043,2.83913043 L3.95217391,2.83913043 L3.95217391,1.61304348 L3.83913043,1.61304348 L3.83913043,1.66956522 C3.83913043,2.25402064 3.36706411,2.72608696 2.7826087,2.72608696 C2.19815328,2.72608696 1.72608696,2.25402064 1.72608696,1.66956522 L1.72608696,0.556521739 C1.72608696,0.416262897 1.75531335,0.240904525 1.84843858,0.0546540718 C2.01728977,-0.283048306 2.34271731,-0.5 2.7826087,-0.5 L7.23478261,-0.5 C7.37504145,-0.5 7.55039982,-0.470773605 7.73665028,-0.377648378 C8.07435265,-0.208797189 8.29130435,0.116630352 8.29130435,0.556521739 L8.29130435,1.66956522 C8.29130435,2.25402064 7.81923803,2.72608696 7.23478261,2.72608696 C6.65032719,2.72608696 6.17826087,2.25402064 6.17826087,1.66956522 L6.17826087,1.61304348 Z M5.00869565,4.98673967 L3.15046141,5.68954096 L2.72975867,7.28564139 C2.75262013,7.28951281 2.7725085,7.29130435 2.7826087,7.29130435 L7.23478261,7.29130435 C7.2448828,7.29130435 7.26477116,7.28951281 7.2876326,7.28564139 L6.86692989,5.68954096 L5.00869565,4.98673967 Z M2.6640498,7.27149817 C2.66307726,7.26974983 2.66268032,7.26883187 2.66303259,7.26895815 C2.66344004,7.26910421 2.66384861,7.26924949 2.66425829,7.26939399 Z M5.00869565,9.40434783 C4.97752672,9.40434783 4.95217391,9.42970064 4.95217391,9.46086957 C4.95217391,9.49203849 4.97752672,9.5173913 5.00869565,9.5173913 C5.03986458,9.5173913 5.06521739,9.49203849 5.06521739,9.46086957 C5.06521739,9.42970064 5.03986458,9.40434783 5.00869565,9.40434783 Z M3.22584806,13.273913 L6.79154324,13.273913 L6.37415194,12.1608696 L9.11171763,12.1608696 L10.7388915,16.5 L8.00132585,16.5 L7.58393455,15.3869565 L2.43345676,15.3869565 L2.01606545,16.5 L-0.721500234,16.5 L0.905673679,12.1608696 L3.64323936,12.1608696 L3.22584806,13.273913 Z" transform="translate(2 1)"/>
</svg>
