<svg xmlns="http://www.w3.org/2000/svg" width="15" height="23" viewBox="0 0 15 23">
  <path fill="#05032D" d="M4,0 C3.2,0 3.2,0.8 3.2,0.8 L3.2,2.4 C3.2,2.8432 3.5568,3.2 4,3.2 C4.4432,3.2 4.8,2.8432 4.8,2.4 L4.8,1.6 L6.4,1.6 L6.4,4.8 L4.8,4.8 C4.8,4.8 1.6,4.8 1.6,8 L1.6,12.8 C1.6,17.6 6.4,17.6 6.4,17.6 L8,17.6 C8,17.6 12.8,17.6 12.8,12.8 L12.8,8 C12.8,4.8 9.6,4.8 9.6,4.8 L8,4.8 L8,1.6 L9.6,1.6 L9.6,2.4 C9.6,2.8432 9.9568,3.2 10.4,3.2 C10.8432,3.2 11.2,2.8432 11.2,2.4 L11.2,0.8 C11.2,0 10.4,0 10.4,0 L4,0 Z M7.2,6.4 L10.47184,7.63744 L11.2,10.4 C11.41056,11.2 10.4,11.2 10.4,11.2 L4,11.2 C4,11.2 2.98944,11.2 3.2,10.4 L3.92816,7.63744 L7.2,6.4 Z M7.2,12.8 C7.64176,12.8 8,13.15824 8,13.6 C8,14.04176 7.64176,14.4 7.2,14.4 C6.75824,14.4 6.4,14.04176 6.4,13.6 C6.4,13.15824 6.75824,12.8 7.2,12.8 Z M1.8,18.2 L0,23 L2.4,23 L3,21.4 L11.4,21.4 L12,23 L14.4,23 L12.6,18.2 L10.2,18.2 L10.8,19.8 L3.6,19.8 L4.2,18.2 L1.8,18.2 Z"/>
</svg>
