<svg xmlns="http://www.w3.org/2000/svg" width="17" height="18" viewBox="0 0 17 18">
  <path fill="#05032D" stroke="#FFF" d="M11.4525692,13.9314381 L11.1245059,13.9314381 L11.1245059,15.6750769 C11.1245059,16.1344895 10.7465349,16.5 10.2885059,16.5 L8.30437945,16.5 C7.84635081,16.5 7.46837817,16.1344899 7.46837817,15.6750769 L7.46838022,9.73670905 C7.46765925,9.48487791 7.58445347,9.24794313 7.7833409,9.09292988 L10.7657134,6.77027351 C11.0678701,6.53602379 11.4932683,6.53602379 11.7954249,6.77027351 L11.7944901,6.76955057 L14.7893694,9.08004656 C14.9944621,9.2383518 15.1134566,9.4831041 15.1087522,9.73270903 L15.1087522,15.6750769 C15.1087522,16.1345061 14.7307104,16.5 14.2726957,16.5 L12.2885692,16.5 C11.8305402,16.5 11.4525692,16.1344895 11.4525692,15.6750769 L11.4525692,13.9314381 Z M9.79644269,11.6471572 L9.29644269,11.6471572 L9.79644269,12.1471572 L9.79644269,11.6471572 Z M9.79644269,11.3628763 L9.79644269,10.8628763 L9.29644269,11.3628763 L9.79644269,11.3628763 Z M10.1245059,11.3628763 L10.6245059,11.3628763 L10.1245059,10.8628763 L10.1245059,11.3628763 Z M10.1245059,11.6471572 L10.1245059,12.1471572 L10.6245059,11.6471572 L10.1245059,11.6471572 Z M12.4525692,11.6471572 L11.9525692,11.6471572 L12.4525692,12.1471572 L12.4525692,11.6471572 Z M12.4525692,11.3628763 L12.4525692,10.8628763 L11.9525692,11.3628763 L12.4525692,11.3628763 Z M12.7806324,11.3628763 L13.2806324,11.3628763 L12.7806324,10.8628763 L12.7806324,11.3628763 Z M12.7806324,11.6471572 L12.7806324,12.1471572 L13.2806324,11.6471572 L12.7806324,11.6471572 Z M5.32392553,0.0463652896 C5.34944242,0.0773801093 5.36504966,0.0963619665 5.50110244,0.26183223 C5.70599509,0.511110645 5.70599509,0.511110645 5.99624442,0.864508335 C6.50846765,1.48832149 7.02069767,2.11314665 7.49882466,2.69777782 C7.50879687,2.70997153 7.50879687,2.70997153 7.51876889,2.72216558 C8.12919386,3.46861941 8.63740389,4.0925853 9.01010768,4.55385446 C9.22232983,4.81650683 9.38800891,5.02318932 9.5033777,5.16938492 C9.56557352,5.24819962 9.61343998,5.30979981 9.64719721,5.35457366 C9.67266857,5.38858652 9.67266857,5.38858652 9.69517317,5.4203229 C9.71545378,5.42685415 9.71545378,5.42685415 9.79644269,5.72575251 L9.79644269,5.95544915 L9.62217775,6.10508966 L7.19558912,8.18790093 C7.1596423,8.21565963 7.14029264,8.2545761 7.14031621,8.29431438 L7.14031621,16.5 L5.6469249,16.5 C5.18962941,16.5 4.81225296,16.1350645 4.81225296,15.6763612 L4.81225296,13.9314381 L4.48418972,13.9314381 L4.48418972,15.6763246 C4.48422306,16.1312433 4.11280401,16.4947451 3.65350198,16.5 L0.331428978,16.4999963 C0.113535773,16.4991618 -0.0960701749,16.4142595 -0.251918765,16.2623479 C-0.411029195,16.1072568 -0.500904505,15.8950558 -0.500002649,15.6750769 L-0.500000644,5.82477398 C-0.500469894,5.65909309 -0.450319959,5.49744332 -0.331798516,5.32767257 L3.95700672,0.0682097871 C4.1129024,-0.159063824 4.37233334,-0.293703931 4.64822134,-0.293703931 C4.91515118,-0.293703931 5.16667533,-0.167665481 5.32392553,0.0463652896 Z M1.82806324,10.3628763 L1.32806324,10.3628763 L1.82806324,10.8628763 L1.82806324,10.3628763 Z M1.82806324,10.0785953 L1.82806324,9.57859532 L1.32806324,10.0785953 L1.82806324,10.0785953 Z M2.15612648,10.0785953 L2.65612648,10.0785953 L2.15612648,9.57859532 L2.15612648,10.0785953 Z M2.15612648,10.3628763 L2.15612648,10.8628763 L2.65612648,10.3628763 L2.15612648,10.3628763 Z M1.82806324,6.51003344 L1.32806324,6.51003344 L1.82806324,7.01003344 L1.82806324,6.51003344 Z M1.82806324,6.22575251 L1.82806324,5.72575251 L1.32806324,6.22575251 L1.82806324,6.22575251 Z M2.15612648,6.22575251 L2.65612648,6.22575251 L2.15612648,5.72575251 L2.15612648,6.22575251 Z M2.15612648,6.51003344 L2.15612648,7.01003344 L2.65612648,6.51003344 L2.15612648,6.51003344 Z M4.48418972,10.3628763 L3.98418972,10.3628763 L4.48418972,10.8628763 L4.48418972,10.3628763 Z M4.48418972,10.0785953 L4.48418972,9.57859532 L3.98418972,10.0785953 L4.48418972,10.0785953 Z M4.81225296,10.0785953 L5.31225296,10.0785953 L4.81225296,9.57859532 L4.81225296,10.0785953 Z M4.81225296,10.3628763 L4.81225296,10.8628763 L5.31225296,10.3628763 L4.81225296,10.3628763 Z M4.48418972,6.51003344 L3.98418972,6.51003344 L4.48418972,7.01003344 L4.48418972,6.51003344 Z M4.48418972,6.22575251 L4.48418972,5.72575251 L3.98418972,6.22575251 L4.48418972,6.22575251 Z M4.81225296,6.22575251 L5.31225296,6.22575251 L4.81225296,5.72575251 L4.81225296,6.22575251 Z M4.81225296,6.51003344 L4.81225296,7.01003344 L5.31225296,6.51003344 L4.81225296,6.51003344 Z" transform="translate(1 1)"/>
</svg>
